<svg width="316" height="240" viewBox="0 0 316 240" fill="none" xmlns="http://www.w3.org/2000/svg">
<g filter="url(#filter0_d_581_3876)">
<rect width="306" height="230" rx="10" fill="#7887C7"/>
<path d="M98.2857 198.891C98.2857 200.106 98.0931 201.212 97.7081 202.209C97.323 203.206 96.7793 204.059 96.0771 204.769C95.3749 205.479 94.5292 206.03 93.5401 206.422C92.5585 206.807 91.4712 207 90.2782 207H84.2188V190.77H90.2782C91.4712 190.77 92.5585 190.966 93.5401 191.359C94.5292 191.744 95.3749 192.295 96.0771 193.012C96.7793 193.722 97.323 194.575 97.7081 195.572C98.0931 196.569 98.2857 197.675 98.2857 198.891ZM96.0318 198.891C96.0318 197.894 95.8959 197.003 95.6241 196.218C95.3523 195.432 94.9672 194.768 94.4688 194.224C93.9705 193.681 93.3664 193.265 92.6567 192.978C91.9469 192.691 91.1541 192.548 90.2782 192.548H86.416V205.222H90.2782C91.1541 205.222 91.9469 205.078 92.6567 204.791C93.3664 204.505 93.9705 204.093 94.4688 203.557C94.9672 203.013 95.3523 202.349 95.6241 201.564C95.8959 200.778 96.0318 199.887 96.0318 198.891ZM105.657 195.346C106.495 195.346 107.25 195.485 107.922 195.765C108.594 196.044 109.168 196.44 109.644 196.954C110.119 197.467 110.482 198.09 110.731 198.823C110.988 199.547 111.116 200.359 111.116 201.258C111.116 202.164 110.988 202.979 110.731 203.704C110.482 204.429 110.119 205.048 109.644 205.562C109.168 206.075 108.594 206.471 107.922 206.751C107.25 207.023 106.495 207.159 105.657 207.159C104.811 207.159 104.048 207.023 103.369 206.751C102.697 206.471 102.123 206.075 101.647 205.562C101.172 205.048 100.805 204.429 100.549 203.704C100.3 202.979 100.175 202.164 100.175 201.258C100.175 200.359 100.3 199.547 100.549 198.823C100.805 198.09 101.172 197.467 101.647 196.954C102.123 196.44 102.697 196.044 103.369 195.765C104.048 195.485 104.811 195.346 105.657 195.346ZM105.657 205.584C106.789 205.584 107.635 205.207 108.194 204.452C108.753 203.689 109.032 202.628 109.032 201.269C109.032 199.902 108.753 198.838 108.194 198.075C107.635 197.312 106.789 196.931 105.657 196.931C105.083 196.931 104.581 197.029 104.15 197.226C103.728 197.422 103.373 197.705 103.086 198.075C102.806 198.445 102.595 198.902 102.452 199.446C102.316 199.982 102.248 200.589 102.248 201.269C102.248 202.628 102.527 203.689 103.086 204.452C103.652 205.207 104.509 205.584 105.657 205.584ZM120.355 197.418C120.265 197.584 120.125 197.667 119.936 197.667C119.823 197.667 119.695 197.626 119.551 197.543C119.408 197.46 119.23 197.369 119.019 197.271C118.815 197.165 118.57 197.071 118.283 196.988C117.996 196.897 117.656 196.852 117.263 196.852C116.924 196.852 116.618 196.897 116.346 196.988C116.074 197.071 115.84 197.188 115.644 197.339C115.455 197.49 115.308 197.667 115.202 197.871C115.104 198.068 115.055 198.283 115.055 198.517C115.055 198.811 115.138 199.057 115.304 199.253C115.478 199.449 115.704 199.619 115.983 199.763C116.263 199.906 116.58 200.035 116.935 200.148C117.29 200.253 117.652 200.371 118.022 200.499C118.4 200.62 118.766 200.756 119.121 200.907C119.476 201.058 119.793 201.246 120.072 201.473C120.352 201.699 120.574 201.979 120.74 202.311C120.914 202.636 121.001 203.028 121.001 203.489C121.001 204.017 120.906 204.508 120.718 204.961C120.529 205.407 120.25 205.796 119.88 206.128C119.51 206.453 119.057 206.709 118.52 206.898C117.984 207.087 117.365 207.181 116.663 207.181C115.863 207.181 115.138 207.053 114.488 206.796C113.839 206.532 113.288 206.196 112.835 205.788L113.311 205.018C113.371 204.92 113.443 204.844 113.526 204.791C113.609 204.739 113.714 204.712 113.843 204.712C113.979 204.712 114.122 204.765 114.273 204.871C114.424 204.976 114.605 205.093 114.817 205.222C115.036 205.35 115.3 205.467 115.61 205.573C115.919 205.679 116.304 205.731 116.765 205.731C117.158 205.731 117.501 205.682 117.796 205.584C118.09 205.479 118.335 205.339 118.532 205.165C118.728 204.992 118.872 204.791 118.962 204.565C119.06 204.338 119.109 204.097 119.109 203.84C119.109 203.523 119.023 203.262 118.849 203.059C118.683 202.847 118.46 202.67 118.181 202.526C117.901 202.375 117.58 202.247 117.218 202.141C116.863 202.028 116.497 201.911 116.119 201.79C115.749 201.669 115.383 201.533 115.021 201.382C114.666 201.224 114.349 201.027 114.069 200.793C113.79 200.559 113.563 200.272 113.39 199.933C113.224 199.585 113.141 199.166 113.141 198.675C113.141 198.237 113.231 197.818 113.412 197.418C113.594 197.01 113.858 196.656 114.205 196.354C114.553 196.044 114.979 195.799 115.485 195.617C115.991 195.436 116.569 195.346 117.218 195.346C117.973 195.346 118.649 195.466 119.245 195.708C119.849 195.942 120.37 196.267 120.808 196.682L120.355 197.418ZM131.398 195.527V207.849C131.398 208.31 131.337 208.737 131.216 209.129C131.096 209.529 130.903 209.877 130.639 210.171C130.374 210.466 130.035 210.696 129.619 210.862C129.212 211.036 128.721 211.123 128.147 211.123C127.905 211.123 127.683 211.104 127.479 211.066C127.275 211.028 127.071 210.972 126.867 210.896L126.946 209.809C126.962 209.741 126.988 209.688 127.026 209.65C127.056 209.62 127.101 209.601 127.162 209.594C127.222 209.586 127.301 209.582 127.4 209.582C127.49 209.59 127.607 209.594 127.751 209.594C128.34 209.594 128.759 209.454 129.008 209.175C129.257 208.903 129.382 208.461 129.382 207.849V195.527H131.398ZM131.817 191.925C131.817 192.121 131.775 192.306 131.692 192.48C131.617 192.646 131.511 192.797 131.375 192.933C131.247 193.061 131.096 193.163 130.922 193.239C130.748 193.314 130.563 193.352 130.367 193.352C130.171 193.352 129.986 193.314 129.812 193.239C129.646 193.163 129.499 193.061 129.37 192.933C129.242 192.797 129.14 192.646 129.064 192.48C128.989 192.306 128.951 192.121 128.951 191.925C128.951 191.729 128.989 191.544 129.064 191.37C129.14 191.189 129.242 191.034 129.37 190.906C129.499 190.77 129.646 190.664 129.812 190.589C129.986 190.513 130.171 190.475 130.367 190.475C130.563 190.475 130.748 190.513 130.922 190.589C131.096 190.664 131.247 190.77 131.375 190.906C131.511 191.034 131.617 191.189 131.692 191.37C131.775 191.544 131.817 191.729 131.817 191.925ZM144.145 195.527V207H142.944C142.657 207 142.476 206.86 142.4 206.581L142.242 205.346C141.744 205.898 141.185 206.343 140.566 206.683C139.946 207.015 139.237 207.181 138.436 207.181C137.81 207.181 137.255 207.079 136.771 206.875C136.296 206.664 135.896 206.37 135.571 205.992C135.246 205.614 135.001 205.158 134.835 204.622C134.676 204.085 134.597 203.493 134.597 202.843V195.527H136.613V202.843C136.613 203.712 136.809 204.384 137.202 204.859C137.602 205.335 138.21 205.573 139.025 205.573C139.622 205.573 140.177 205.433 140.69 205.154C141.211 204.867 141.691 204.474 142.129 203.976V195.527H144.145ZM151.339 201.394C151.747 201.394 152.106 201.337 152.415 201.224C152.725 201.11 152.985 200.952 153.197 200.748C153.408 200.544 153.567 200.303 153.672 200.023C153.778 199.736 153.831 199.423 153.831 199.083C153.831 198.381 153.616 197.822 153.185 197.407C152.763 196.992 152.147 196.784 151.339 196.784C150.524 196.784 149.901 196.992 149.471 197.407C149.048 197.822 148.836 198.381 148.836 199.083C148.836 199.423 148.889 199.736 148.995 200.023C149.108 200.303 149.27 200.544 149.482 200.748C149.693 200.952 149.954 201.11 150.263 201.224C150.573 201.337 150.932 201.394 151.339 201.394ZM154.975 207.623C154.975 207.344 154.896 207.117 154.737 206.943C154.579 206.77 154.363 206.634 154.092 206.536C153.827 206.437 153.518 206.37 153.163 206.332C152.808 206.286 152.43 206.252 152.03 206.23C151.638 206.207 151.237 206.185 150.83 206.162C150.422 206.139 150.029 206.101 149.652 206.049C149.229 206.245 148.882 206.494 148.61 206.796C148.345 207.091 148.213 207.438 148.213 207.838C148.213 208.095 148.278 208.333 148.406 208.552C148.542 208.778 148.746 208.971 149.017 209.129C149.289 209.295 149.629 209.424 150.037 209.514C150.452 209.613 150.939 209.662 151.498 209.662C152.042 209.662 152.529 209.613 152.959 209.514C153.389 209.416 153.752 209.277 154.046 209.095C154.348 208.914 154.579 208.699 154.737 208.45C154.896 208.201 154.975 207.925 154.975 207.623ZM157.025 195.98V196.727C157.025 196.976 156.866 197.135 156.549 197.203L155.247 197.373C155.504 197.871 155.632 198.422 155.632 199.026C155.632 199.585 155.522 200.095 155.303 200.556C155.092 201.009 154.798 201.397 154.42 201.722C154.042 202.047 153.589 202.296 153.061 202.47C152.532 202.643 151.958 202.73 151.339 202.73C150.803 202.73 150.297 202.666 149.822 202.538C149.58 202.689 149.395 202.851 149.267 203.025C149.138 203.191 149.074 203.361 149.074 203.534C149.074 203.806 149.184 204.014 149.403 204.157C149.629 204.293 149.924 204.391 150.286 204.452C150.648 204.512 151.06 204.55 151.521 204.565C151.989 204.58 152.464 204.606 152.948 204.644C153.438 204.674 153.914 204.731 154.375 204.814C154.843 204.897 155.258 205.033 155.621 205.222C155.983 205.411 156.274 205.671 156.493 206.003C156.719 206.336 156.832 206.766 156.832 207.294C156.832 207.785 156.708 208.261 156.459 208.722C156.217 209.182 155.866 209.59 155.405 209.945C154.945 210.307 154.378 210.594 153.706 210.806C153.042 211.025 152.291 211.134 151.453 211.134C150.614 211.134 149.882 211.051 149.255 210.885C148.629 210.719 148.108 210.496 147.692 210.217C147.277 209.937 146.964 209.613 146.752 209.243C146.548 208.88 146.446 208.499 146.446 208.099C146.446 207.532 146.624 207.053 146.979 206.66C147.334 206.268 147.821 205.954 148.44 205.72C148.1 205.569 147.828 205.369 147.624 205.12C147.428 204.863 147.33 204.52 147.33 204.089C147.33 203.923 147.36 203.753 147.421 203.58C147.481 203.398 147.572 203.221 147.692 203.047C147.821 202.866 147.976 202.696 148.157 202.538C148.338 202.379 148.549 202.239 148.791 202.118C148.225 201.801 147.783 201.382 147.466 200.861C147.149 200.333 146.99 199.721 146.99 199.026C146.99 198.468 147.096 197.962 147.307 197.509C147.526 197.048 147.828 196.659 148.213 196.342C148.598 196.018 149.055 195.768 149.584 195.595C150.12 195.421 150.705 195.334 151.339 195.334C151.838 195.334 152.302 195.391 152.732 195.504C153.163 195.61 153.555 195.768 153.91 195.98H157.025ZM165.328 201.835C164.399 201.866 163.606 201.941 162.949 202.062C162.3 202.175 161.768 202.326 161.352 202.515C160.944 202.704 160.646 202.926 160.457 203.183C160.276 203.44 160.186 203.727 160.186 204.044C160.186 204.346 160.235 204.606 160.333 204.825C160.431 205.044 160.563 205.226 160.729 205.369C160.903 205.505 161.103 205.607 161.33 205.675C161.564 205.735 161.813 205.765 162.077 205.765C162.432 205.765 162.757 205.731 163.051 205.664C163.346 205.588 163.621 205.482 163.878 205.346C164.142 205.21 164.391 205.048 164.625 204.859C164.867 204.671 165.101 204.455 165.328 204.214V201.835ZM158.815 197.146C159.449 196.535 160.133 196.078 160.865 195.776C161.598 195.474 162.409 195.323 163.3 195.323C163.942 195.323 164.512 195.429 165.011 195.64C165.509 195.851 165.928 196.146 166.268 196.523C166.607 196.901 166.864 197.358 167.038 197.894C167.212 198.43 167.298 199.019 167.298 199.661V207H166.404C166.207 207 166.056 206.97 165.951 206.909C165.845 206.841 165.762 206.713 165.701 206.524L165.475 205.437C165.173 205.716 164.878 205.966 164.591 206.185C164.305 206.396 164.003 206.577 163.685 206.728C163.368 206.872 163.028 206.981 162.666 207.057C162.311 207.14 161.915 207.181 161.477 207.181C161.031 207.181 160.612 207.121 160.22 207C159.827 206.872 159.483 206.683 159.189 206.434C158.902 206.185 158.672 205.871 158.498 205.494C158.332 205.109 158.249 204.656 158.249 204.135C158.249 203.681 158.373 203.247 158.623 202.832C158.872 202.409 159.276 202.035 159.835 201.711C160.393 201.386 161.122 201.122 162.02 200.918C162.919 200.707 164.021 200.586 165.328 200.556V199.661C165.328 198.77 165.135 198.098 164.75 197.645C164.365 197.184 163.802 196.954 163.062 196.954C162.564 196.954 162.145 197.018 161.805 197.146C161.473 197.267 161.182 197.407 160.933 197.565C160.692 197.716 160.48 197.856 160.299 197.985C160.125 198.105 159.952 198.166 159.778 198.166C159.642 198.166 159.525 198.132 159.427 198.064C159.329 197.988 159.246 197.898 159.178 197.792L158.815 197.146ZM177.844 198.256C177.467 197.75 177.059 197.399 176.621 197.203C176.183 196.999 175.693 196.897 175.149 196.897C174.084 196.897 173.265 197.279 172.691 198.041C172.117 198.804 171.83 199.891 171.83 201.303C171.83 202.051 171.895 202.692 172.023 203.228C172.151 203.757 172.34 204.195 172.589 204.542C172.838 204.882 173.144 205.131 173.507 205.29C173.869 205.448 174.281 205.528 174.741 205.528C175.406 205.528 175.983 205.377 176.474 205.075C176.972 204.773 177.429 204.346 177.844 203.795V198.256ZM179.86 190.317V207H178.66C178.373 207 178.192 206.86 178.116 206.581L177.935 205.188C177.444 205.777 176.886 206.252 176.259 206.615C175.632 206.977 174.907 207.159 174.084 207.159C173.427 207.159 172.831 207.034 172.295 206.785C171.759 206.528 171.302 206.154 170.924 205.664C170.547 205.173 170.256 204.561 170.052 203.829C169.848 203.096 169.746 202.254 169.746 201.303C169.746 200.457 169.86 199.672 170.086 198.947C170.313 198.215 170.637 197.581 171.06 197.044C171.483 196.508 172 196.089 172.612 195.787C173.231 195.478 173.926 195.323 174.696 195.323C175.398 195.323 175.998 195.444 176.497 195.685C177.003 195.919 177.452 196.248 177.844 196.671V190.317H179.86ZM187.881 195.346C188.719 195.346 189.474 195.485 190.146 195.765C190.818 196.044 191.392 196.44 191.868 196.954C192.343 197.467 192.706 198.09 192.955 198.823C193.212 199.547 193.34 200.359 193.34 201.258C193.34 202.164 193.212 202.979 192.955 203.704C192.706 204.429 192.343 205.048 191.868 205.562C191.392 206.075 190.818 206.471 190.146 206.751C189.474 207.023 188.719 207.159 187.881 207.159C187.035 207.159 186.273 207.023 185.593 206.751C184.921 206.471 184.347 206.075 183.871 205.562C183.396 205.048 183.03 204.429 182.773 203.704C182.524 202.979 182.399 202.164 182.399 201.258C182.399 200.359 182.524 199.547 182.773 198.823C183.03 198.09 183.396 197.467 183.871 196.954C184.347 196.44 184.921 196.044 185.593 195.765C186.273 195.485 187.035 195.346 187.881 195.346ZM187.881 205.584C189.013 205.584 189.859 205.207 190.418 204.452C190.977 203.689 191.256 202.628 191.256 201.269C191.256 199.902 190.977 198.838 190.418 198.075C189.859 197.312 189.013 196.931 187.881 196.931C187.307 196.931 186.805 197.029 186.375 197.226C185.952 197.422 185.597 197.705 185.31 198.075C185.031 198.445 184.819 198.902 184.676 199.446C184.54 199.982 184.472 200.589 184.472 201.269C184.472 202.628 184.751 203.689 185.31 204.452C185.876 205.207 186.733 205.584 187.881 205.584ZM197.811 197.826C198.174 197.041 198.619 196.429 199.148 195.991C199.676 195.546 200.322 195.323 201.084 195.323C201.326 195.323 201.556 195.349 201.775 195.402C202.002 195.455 202.202 195.538 202.376 195.651L202.228 197.158C202.183 197.346 202.07 197.441 201.888 197.441C201.783 197.441 201.628 197.418 201.424 197.373C201.22 197.328 200.99 197.305 200.733 197.305C200.371 197.305 200.046 197.358 199.759 197.464C199.48 197.569 199.227 197.728 199 197.939C198.781 198.143 198.581 198.4 198.4 198.709C198.226 199.011 198.068 199.359 197.924 199.751V207H195.897V195.527H197.052C197.271 195.527 197.422 195.568 197.505 195.651C197.588 195.734 197.645 195.878 197.675 196.082L197.811 197.826ZM211.363 200.012C211.363 199.544 211.295 199.117 211.159 198.732C211.03 198.339 210.838 198.003 210.581 197.724C210.332 197.437 210.026 197.218 209.664 197.067C209.301 196.909 208.89 196.829 208.429 196.829C207.463 196.829 206.696 197.112 206.13 197.679C205.571 198.237 205.224 199.015 205.088 200.012H211.363ZM212.994 205.392C212.744 205.694 212.446 205.958 212.099 206.185C211.752 206.403 211.378 206.585 210.978 206.728C210.585 206.872 210.177 206.977 209.754 207.045C209.332 207.121 208.913 207.159 208.497 207.159C207.704 207.159 206.972 207.026 206.3 206.762C205.636 206.49 205.058 206.098 204.567 205.584C204.084 205.063 203.706 204.421 203.435 203.659C203.163 202.896 203.027 202.02 203.027 201.031C203.027 200.231 203.148 199.483 203.389 198.789C203.638 198.094 203.993 197.494 204.454 196.988C204.914 196.474 205.477 196.074 206.141 195.787C206.806 195.493 207.553 195.346 208.384 195.346C209.071 195.346 209.705 195.463 210.287 195.697C210.876 195.923 211.382 196.255 211.804 196.693C212.235 197.124 212.571 197.66 212.812 198.302C213.054 198.936 213.175 199.661 213.175 200.476C213.175 200.793 213.141 201.005 213.073 201.11C213.005 201.216 212.877 201.269 212.688 201.269H205.02C205.043 201.994 205.141 202.624 205.315 203.16C205.496 203.697 205.745 204.146 206.062 204.508C206.379 204.863 206.757 205.131 207.195 205.312C207.633 205.486 208.123 205.573 208.667 205.573C209.173 205.573 209.607 205.516 209.97 205.403C210.34 205.282 210.657 205.154 210.921 205.018C211.185 204.882 211.404 204.757 211.578 204.644C211.759 204.523 211.914 204.463 212.042 204.463C212.208 204.463 212.337 204.527 212.427 204.656L212.994 205.392ZM222.334 197.418C222.243 197.584 222.103 197.667 221.914 197.667C221.801 197.667 221.673 197.626 221.529 197.543C221.386 197.46 221.208 197.369 220.997 197.271C220.793 197.165 220.548 197.071 220.261 196.988C219.974 196.897 219.634 196.852 219.242 196.852C218.902 196.852 218.596 196.897 218.324 196.988C218.052 197.071 217.818 197.188 217.622 197.339C217.433 197.49 217.286 197.667 217.18 197.871C217.082 198.068 217.033 198.283 217.033 198.517C217.033 198.811 217.116 199.057 217.282 199.253C217.456 199.449 217.682 199.619 217.962 199.763C218.241 199.906 218.558 200.035 218.913 200.148C219.268 200.253 219.63 200.371 220 200.499C220.378 200.62 220.744 200.756 221.099 200.907C221.454 201.058 221.771 201.246 222.05 201.473C222.33 201.699 222.552 201.979 222.719 202.311C222.892 202.636 222.979 203.028 222.979 203.489C222.979 204.017 222.885 204.508 222.696 204.961C222.507 205.407 222.228 205.796 221.858 206.128C221.488 206.453 221.035 206.709 220.499 206.898C219.963 207.087 219.343 207.181 218.641 207.181C217.841 207.181 217.116 207.053 216.467 206.796C215.817 206.532 215.266 206.196 214.813 205.788L215.289 205.018C215.349 204.92 215.421 204.844 215.504 204.791C215.587 204.739 215.693 204.712 215.821 204.712C215.957 204.712 216.1 204.765 216.251 204.871C216.402 204.976 216.584 205.093 216.795 205.222C217.014 205.35 217.278 205.467 217.588 205.573C217.898 205.679 218.283 205.731 218.743 205.731C219.136 205.731 219.479 205.682 219.774 205.584C220.068 205.479 220.314 205.339 220.51 205.165C220.706 204.992 220.85 204.791 220.94 204.565C221.039 204.338 221.088 204.097 221.088 203.84C221.088 203.523 221.001 203.262 220.827 203.059C220.661 202.847 220.438 202.67 220.159 202.526C219.88 202.375 219.559 202.247 219.196 202.141C218.841 202.028 218.475 201.911 218.098 201.79C217.728 201.669 217.361 201.533 216.999 201.382C216.644 201.224 216.327 201.027 216.048 200.793C215.768 200.559 215.542 200.272 215.368 199.933C215.202 199.585 215.119 199.166 215.119 198.675C215.119 198.237 215.209 197.818 215.391 197.418C215.572 197.01 215.836 196.656 216.184 196.354C216.531 196.044 216.957 195.799 217.463 195.617C217.969 195.436 218.547 195.346 219.196 195.346C219.951 195.346 220.627 195.466 221.224 195.708C221.828 195.942 222.349 196.267 222.787 196.682L222.334 197.418Z" fill="#101734"/>
<g clip-path="url(#clip0_581_3876)">
<path d="M133.079 70.0367C135.634 66.3132 137.075 61.6673 137.075 56.8318C137.075 45.0563 128.731 35.4753 118.478 35.4753C108.225 35.4753 99.8822 45.0568 99.8822 56.8318C99.8822 61.7505 101.361 66.4541 103.987 70.202C94.8597 77.3219 89 90.7679 89 105.468C89 107.708 90.5802 109.525 92.5325 109.525H144.735C146.687 109.525 148.267 107.708 148.267 105.468C148.267 90.6168 142.329 77.108 133.079 70.0367ZM96.2419 101.413C97.3077 89.283 103.098 78.8668 111.32 74.7839C112.497 74.1977 113.305 72.9216 113.432 71.4588C113.56 69.9954 112.983 68.5654 111.927 67.7239C108.807 65.2442 106.945 61.1716 106.945 56.8335C106.945 49.5313 112.118 43.5901 118.476 43.5901C124.837 43.5901 130.008 49.5313 130.008 56.8335C130.008 61.1172 128.179 65.1605 125.112 67.6487C124.064 68.4952 123.501 69.9332 123.64 71.3977C123.779 72.8605 124.599 74.1281 125.781 74.699C134.097 78.7236 139.955 89.1772 141.026 101.416H96.2419V101.413Z" fill="#101734"/>
<path d="M176.07 58.5192C174.69 56.9348 172.455 56.9348 171.075 58.5192L163.9 66.7619L156.721 58.5192C155.341 56.9348 153.107 56.9348 151.727 58.5192C150.347 60.1037 150.347 62.6694 151.727 64.2545L158.905 72.4972L151.727 80.7421C150.347 82.3272 150.347 84.894 151.727 86.4791C152.417 87.2707 153.32 87.6646 154.225 87.6646C155.129 87.6646 156.033 87.2713 156.725 86.4791L163.9 78.2335L171.079 86.4791C171.769 87.2707 172.673 87.6646 173.577 87.6646C174.481 87.6646 175.384 87.2713 176.074 86.4791C177.454 84.894 177.454 82.3272 176.074 80.7421L168.899 72.4972L176.074 64.2545C177.45 62.67 177.45 60.1037 176.07 58.5192Z" fill="#101734"/>
<path d="M200.062 86.1826C200.851 85.4033 202.314 84.1465 204.448 82.4059L207.861 79.6274C210.74 77.2931 212.807 75.175 214.065 73.273C215.979 70.4125 216.94 67.1405 216.94 63.4538C216.94 58.6483 215.583 54.7861 212.869 51.8662C210.156 48.9507 206.504 47.4902 201.916 47.4902C196.11 47.4902 192.072 49.9727 189.799 54.9406C188.598 57.551 187.932 60.9741 187.792 65.208H196.073C196.174 62.416 196.492 60.3776 197.03 59.0953C197.963 56.8759 199.729 55.764 202.321 55.764C204.213 55.764 205.669 56.4612 206.688 57.8566C207.704 59.2549 208.21 61.0046 208.21 63.1086C208.21 65.6941 207.323 68.0765 205.55 70.2512C204.393 71.6495 201.852 73.9606 197.926 77.185C193.403 80.8932 190.533 84.4057 189.316 87.7252C188.06 90.678 187.396 93.9375 187.313 97.5076H217V88.8926H198.073C198.612 87.865 199.277 86.9618 200.062 86.1826Z" fill="#101734"/>
</g>
</g>
<defs>
<filter id="filter0_d_581_3876" x="0" y="0" width="316" height="240" filterUnits="userSpaceOnUse" color-interpolation-filters="sRGB">
<feFlood flood-opacity="0" result="BackgroundImageFix"/>
<feColorMatrix in="SourceAlpha" type="matrix" values="0 0 0 0 0 0 0 0 0 0 0 0 0 0 0 0 0 0 127 0" result="hardAlpha"/>
<feOffset dx="10" dy="10"/>
<feComposite in2="hardAlpha" operator="out"/>
<feColorMatrix type="matrix" values="0 0 0 0 0 0 0 0 0 0 0 0 0 0 0 0 0 0 1 0"/>
<feBlend mode="normal" in2="BackgroundImageFix" result="effect1_dropShadow_581_3876"/>
<feBlend mode="normal" in="SourceGraphic" in2="effect1_dropShadow_581_3876" result="shape"/>
</filter>
<clipPath id="clip0_581_3876">
<rect width="128" height="127" fill="white" transform="translate(89 13)"/>
</clipPath>
</defs>
</svg>
