<svg width="316" height="240" viewBox="0 0 316 240" fill="none" xmlns="http://www.w3.org/2000/svg">
<g filter="url(#filter0_d_581_3867)">
<rect width="306" height="230" rx="10" fill="#7887C7"/>
<path d="M130.001 200.975L127.453 194.372C127.377 194.175 127.298 193.949 127.215 193.692C127.132 193.428 127.053 193.148 126.977 192.854C126.819 193.465 126.656 193.975 126.49 194.383L123.942 200.975H130.001ZM134.577 207H132.878C132.682 207 132.523 206.951 132.402 206.853C132.282 206.755 132.191 206.63 132.131 206.479L130.613 202.56H123.33L121.813 206.479C121.767 206.615 121.68 206.736 121.552 206.841C121.424 206.947 121.265 207 121.076 207H119.378L125.867 190.77H128.087L134.577 207ZM143.912 197.565C143.851 197.648 143.791 197.713 143.73 197.758C143.67 197.803 143.587 197.826 143.481 197.826C143.368 197.826 143.243 197.781 143.107 197.69C142.972 197.592 142.802 197.486 142.598 197.373C142.401 197.26 142.156 197.158 141.862 197.067C141.575 196.969 141.22 196.92 140.797 196.92C140.231 196.92 139.732 197.022 139.302 197.226C138.872 197.422 138.509 197.709 138.215 198.086C137.928 198.464 137.709 198.921 137.558 199.457C137.414 199.993 137.343 200.593 137.343 201.258C137.343 201.952 137.422 202.572 137.58 203.115C137.739 203.651 137.962 204.104 138.249 204.474C138.543 204.837 138.894 205.116 139.302 205.312C139.717 205.501 140.182 205.596 140.695 205.596C141.186 205.596 141.59 205.539 141.907 205.426C142.224 205.305 142.485 205.173 142.688 205.029C142.9 204.886 143.073 204.757 143.209 204.644C143.353 204.523 143.493 204.463 143.628 204.463C143.795 204.463 143.923 204.527 144.014 204.656L144.58 205.392C144.331 205.701 144.048 205.966 143.73 206.185C143.413 206.403 143.07 206.588 142.7 206.74C142.337 206.883 141.956 206.989 141.556 207.057C141.156 207.125 140.748 207.159 140.333 207.159C139.615 207.159 138.947 207.026 138.328 206.762C137.716 206.498 137.184 206.117 136.731 205.618C136.278 205.112 135.923 204.493 135.666 203.761C135.41 203.028 135.281 202.194 135.281 201.258C135.281 200.404 135.398 199.615 135.632 198.891C135.874 198.166 136.221 197.543 136.674 197.022C137.135 196.493 137.697 196.082 138.362 195.787C139.034 195.493 139.804 195.346 140.672 195.346C141.48 195.346 142.19 195.478 142.802 195.742C143.421 195.999 143.968 196.365 144.444 196.841L143.912 197.565ZM154.53 197.565C154.469 197.648 154.409 197.713 154.349 197.758C154.288 197.803 154.205 197.826 154.099 197.826C153.986 197.826 153.861 197.781 153.726 197.69C153.59 197.592 153.42 197.486 153.216 197.373C153.02 197.26 152.774 197.158 152.48 197.067C152.193 196.969 151.838 196.92 151.415 196.92C150.849 196.92 150.35 197.022 149.92 197.226C149.49 197.422 149.127 197.709 148.833 198.086C148.546 198.464 148.327 198.921 148.176 199.457C148.032 199.993 147.961 200.593 147.961 201.258C147.961 201.952 148.04 202.572 148.198 203.115C148.357 203.651 148.58 204.104 148.867 204.474C149.161 204.837 149.512 205.116 149.92 205.312C150.335 205.501 150.8 205.596 151.313 205.596C151.804 205.596 152.208 205.539 152.525 205.426C152.842 205.305 153.103 205.173 153.307 205.029C153.518 204.886 153.692 204.757 153.828 204.644C153.971 204.523 154.111 204.463 154.247 204.463C154.413 204.463 154.541 204.527 154.632 204.656L155.198 205.392C154.949 205.701 154.666 205.966 154.349 206.185C154.031 206.403 153.688 206.588 153.318 206.74C152.955 206.883 152.574 206.989 152.174 207.057C151.774 207.125 151.366 207.159 150.951 207.159C150.233 207.159 149.565 207.026 148.946 206.762C148.334 206.498 147.802 206.117 147.349 205.618C146.896 205.112 146.541 204.493 146.284 203.761C146.028 203.028 145.899 202.194 145.899 201.258C145.899 200.404 146.016 199.615 146.25 198.891C146.492 198.166 146.839 197.543 147.292 197.022C147.753 196.493 148.316 196.082 148.98 195.787C149.652 195.493 150.422 195.346 151.29 195.346C152.098 195.346 152.808 195.478 153.42 195.742C154.039 195.999 154.586 196.365 155.062 196.841L154.53 197.565ZM159.491 195.527V207H157.475V195.527H159.491ZM159.922 191.925C159.922 192.121 159.88 192.306 159.797 192.48C159.722 192.646 159.616 192.797 159.48 192.933C159.352 193.061 159.197 193.163 159.016 193.239C158.842 193.314 158.657 193.352 158.461 193.352C158.264 193.352 158.079 193.314 157.906 193.239C157.74 193.163 157.592 193.061 157.464 192.933C157.336 192.797 157.234 192.646 157.158 192.48C157.083 192.306 157.045 192.121 157.045 191.925C157.045 191.729 157.083 191.544 157.158 191.37C157.234 191.189 157.336 191.034 157.464 190.906C157.592 190.77 157.74 190.664 157.906 190.589C158.079 190.513 158.264 190.475 158.461 190.475C158.657 190.475 158.842 190.513 159.016 190.589C159.197 190.664 159.352 190.77 159.48 190.906C159.616 191.034 159.722 191.189 159.797 191.37C159.88 191.544 159.922 191.729 159.922 191.925ZM167.64 195.346C168.478 195.346 169.233 195.485 169.905 195.765C170.577 196.044 171.151 196.44 171.627 196.954C172.103 197.467 172.465 198.09 172.714 198.823C172.971 199.547 173.099 200.359 173.099 201.258C173.099 202.164 172.971 202.979 172.714 203.704C172.465 204.429 172.103 205.048 171.627 205.562C171.151 206.075 170.577 206.471 169.905 206.751C169.233 207.023 168.478 207.159 167.64 207.159C166.794 207.159 166.032 207.023 165.352 206.751C164.68 206.471 164.106 206.075 163.631 205.562C163.155 205.048 162.789 204.429 162.532 203.704C162.283 202.979 162.158 202.164 162.158 201.258C162.158 200.359 162.283 199.547 162.532 198.823C162.789 198.09 163.155 197.467 163.631 196.954C164.106 196.44 164.68 196.044 165.352 195.765C166.032 195.485 166.794 195.346 167.64 195.346ZM167.64 205.584C168.773 205.584 169.618 205.207 170.177 204.452C170.736 203.689 171.015 202.628 171.015 201.269C171.015 199.902 170.736 198.838 170.177 198.075C169.618 197.312 168.773 196.931 167.64 196.931C167.066 196.931 166.564 197.029 166.134 197.226C165.711 197.422 165.356 197.705 165.069 198.075C164.79 198.445 164.578 198.902 164.435 199.446C164.299 199.982 164.231 200.589 164.231 201.269C164.231 202.628 164.51 203.689 165.069 204.452C165.635 205.207 166.492 205.584 167.64 205.584ZM170.947 190.589L168.308 193.511C168.203 193.624 168.097 193.707 167.991 193.76C167.893 193.805 167.765 193.828 167.606 193.828H166.406L168.082 191.087C168.188 190.913 168.301 190.789 168.422 190.713C168.55 190.63 168.735 190.589 168.977 190.589H170.947ZM177.559 197.192C177.808 196.912 178.072 196.659 178.352 196.433C178.631 196.206 178.926 196.014 179.235 195.855C179.552 195.689 179.885 195.565 180.232 195.481C180.587 195.391 180.968 195.346 181.376 195.346C182.003 195.346 182.554 195.451 183.029 195.663C183.513 195.867 183.913 196.161 184.23 196.546C184.555 196.924 184.8 197.38 184.966 197.917C185.132 198.453 185.215 199.045 185.215 199.695V207H183.188V199.695C183.188 198.826 182.988 198.154 182.588 197.679C182.195 197.195 181.595 196.954 180.787 196.954C180.19 196.954 179.632 197.097 179.111 197.384C178.597 197.671 178.122 198.06 177.684 198.551V207H175.656V195.527H176.868C177.155 195.527 177.332 195.666 177.4 195.946L177.559 197.192Z" fill="#101734"/>
<g clip-path="url(#clip0_581_3867)">
<path d="M215.527 123.565L213.587 121.639C211.811 119.877 209.032 119.725 207.063 121.159L185.195 99.4606C186.86 96.735 188.034 93.7339 188.64 90.5632C189.013 88.6147 188.488 86.6408 187.201 85.1477C185.938 83.6841 184.102 82.8856 182.155 82.9407C180.138 83.0065 178.341 84.0209 177.212 85.548L168.095 76.5024L208.79 36.1226C209.002 35.9129 209.166 35.6629 209.273 35.3877L216.857 15.8818C217.16 15.1002 216.972 14.2149 216.374 13.622C215.777 13.0291 214.88 12.8405 214.097 13.1432L194.44 20.6682C194.16 20.7742 193.908 20.9392 193.697 21.1469L153.001 61.5267L112.303 21.1469C112.092 20.9394 111.84 20.7742 111.562 20.6682L91.9029 13.1432C91.1172 12.8405 90.223 13.0288 89.6254 13.622C89.0278 14.2149 88.8399 15.1002 89.1428 15.8818L96.727 35.3877C96.8338 35.6629 96.9982 35.9129 97.2095 36.1226L137.907 76.5024L128.788 85.548C127.659 84.0209 125.862 83.0065 123.845 82.9407C121.883 82.8814 120.062 83.6841 118.801 85.1477C117.512 86.6408 116.987 88.6147 117.36 90.5632C117.964 93.7274 119.138 96.7221 120.81 99.4562L98.9366 121.158C96.9684 119.727 94.1913 119.877 92.4132 121.639L90.4751 123.564C88.5135 125.511 88.5135 128.679 90.4751 130.625L98.45 138.538C99.4318 139.512 100.721 139.999 102.011 139.999C103.298 139.999 104.587 139.512 105.569 138.538L107.507 136.615C109.285 134.851 109.435 132.095 107.994 130.143L129.816 108.491C132.714 110.273 135.935 111.512 139.353 112.134C139.724 112.202 140.096 112.234 140.467 112.234C141.927 112.234 143.353 111.717 144.501 110.751C145.985 109.499 146.818 107.674 146.779 105.734C146.738 103.569 145.594 101.646 143.872 100.536L153.001 91.478L162.131 100.536C160.406 101.646 159.262 103.571 159.222 105.744C159.185 107.674 160.015 109.499 161.499 110.751C162.65 111.717 164.076 112.233 165.536 112.233C165.905 112.233 166.279 112.202 166.65 112.134C170.067 111.511 173.288 110.272 176.185 108.491L198.007 130.142C197.375 130.994 197.021 132.008 197.021 133.084C197.021 134.418 197.544 135.672 198.493 136.615L200.432 138.538C201.413 139.512 202.703 139.999 203.992 139.999C205.279 139.999 206.569 139.512 207.55 138.538L215.525 130.627C216.475 129.683 217 128.429 217 127.095C217 125.761 216.475 124.505 215.527 123.565ZM105.028 127.095L102.01 124.098L123.26 103.012L124.829 104.569L124.848 104.59C124.852 104.594 124.859 104.598 124.863 104.603L126.28 106.009L105.028 127.095ZM196.397 24.4593L211.141 18.8172L205.452 33.4434L165.076 73.5077L162.056 70.5108L199.357 33.5024C200.19 32.6745 200.19 31.3337 199.357 30.5077C198.523 29.6795 197.172 29.6795 196.339 30.5077L159.037 67.5159L156.019 64.5212L196.397 24.4593ZM139.391 98.9903C138.509 98.6811 137.677 98.2765 136.874 97.8149C136.584 97.6434 136.296 97.4696 136.016 97.279C135.794 97.1309 135.572 96.9805 135.359 96.8194C134.834 96.4213 134.319 96.0041 133.837 95.536C133.389 95.0848 132.989 94.602 132.609 94.1064C132.415 93.85 132.236 93.5854 132.061 93.3164C131.918 93.1047 131.783 92.8865 131.653 92.6684C131.431 92.2871 131.216 91.9017 131.032 91.5014C131.015 91.4674 131.002 91.4314 130.987 91.3976C130.77 90.9189 130.575 90.4277 130.413 89.9256L140.926 79.4971L149.981 88.4834L139.391 98.9903ZM106.644 33.5027C105.81 32.6747 105.81 31.334 106.644 30.508C107.477 29.6798 108.828 29.6798 109.663 30.508L167.354 87.7485C168.188 88.5764 168.188 89.9172 167.354 90.7431C166.938 91.1584 166.391 91.3636 165.845 91.3636C165.298 91.3636 164.752 91.1581 164.335 90.7431L106.644 33.5027ZM184.445 89.7732C183.598 94.2059 181.453 98.2554 178.213 101.515L178.121 101.608C174.825 104.869 170.479 107.129 165.877 107.968C165.111 108.11 164.534 107.748 164.263 107.521C163.759 107.097 163.478 106.477 163.491 105.814C163.508 104.819 164.195 103.976 165.123 103.806C165.595 103.722 166.05 103.565 166.513 103.442C166.53 103.438 166.545 103.44 166.562 103.435C166.592 103.427 166.618 103.414 166.647 103.406C167.36 103.213 168.058 102.982 168.746 102.705C168.931 102.631 169.113 102.546 169.294 102.467C169.847 102.222 170.396 101.972 170.927 101.673C171.337 101.449 171.728 101.186 172.123 100.93C172.445 100.718 172.774 100.528 173.087 100.295C173.813 99.7609 174.513 99.1804 175.175 98.5366L175.196 98.5155C175.198 98.5135 175.201 98.5135 175.203 98.5091C175.243 98.4708 175.273 98.4244 175.312 98.3842C175.886 97.7955 176.422 97.177 176.908 96.5225C177.286 96.0227 177.602 95.4911 177.922 94.9617C178.035 94.7753 178.163 94.6015 178.268 94.4109C178.641 93.7415 178.953 93.0471 179.239 92.3395C179.263 92.2782 179.295 92.2189 179.318 92.1573C179.604 91.4202 179.831 90.6665 180.018 89.8976C180.027 89.8573 180.044 89.8214 180.053 89.7812C180.057 89.7705 180.055 89.7578 180.057 89.7452C180.129 89.4382 180.238 89.1458 180.294 88.8345C180.458 87.9048 181.299 87.2059 182.294 87.1741C182.318 87.1719 182.343 87.1719 182.367 87.1719C183.201 87.1719 183.72 87.6251 183.957 87.9004C184.398 88.4114 184.576 89.0956 184.445 89.7732ZM212.507 127.631L204.532 135.544C204.233 135.838 203.746 135.84 203.452 135.544L201.511 133.621C201.317 133.428 201.289 133.201 201.289 133.085C201.289 132.968 201.317 132.742 201.513 132.549L202.481 131.587L208.519 125.598L209.488 124.634C209.638 124.488 209.834 124.414 210.028 124.414C210.225 124.414 210.419 124.488 210.568 124.634L212.507 126.559C212.701 126.752 212.731 126.977 212.731 127.095C212.731 127.211 212.701 127.438 212.507 127.631Z" fill="#101734"/>
</g>
</g>
<defs>
<filter id="filter0_d_581_3867" x="0" y="0" width="316" height="240" filterUnits="userSpaceOnUse" color-interpolation-filters="sRGB">
<feFlood flood-opacity="0" result="BackgroundImageFix"/>
<feColorMatrix in="SourceAlpha" type="matrix" values="0 0 0 0 0 0 0 0 0 0 0 0 0 0 0 0 0 0 127 0" result="hardAlpha"/>
<feOffset dx="10" dy="10"/>
<feComposite in2="hardAlpha" operator="out"/>
<feColorMatrix type="matrix" values="0 0 0 0 0 0 0 0 0 0 0 0 0 0 0 0 0 0 1 0"/>
<feBlend mode="normal" in2="BackgroundImageFix" result="effect1_dropShadow_581_3867"/>
<feBlend mode="normal" in="SourceGraphic" in2="effect1_dropShadow_581_3867" result="shape"/>
</filter>
<clipPath id="clip0_581_3867">
<rect width="128" height="127" fill="white" transform="translate(89 13)"/>
</clipPath>
</defs>
</svg>
