<svg width="316" height="240" viewBox="0 0 316 240" fill="none" xmlns="http://www.w3.org/2000/svg">
<g filter="url(#filter0_d_581_3868)">
<rect width="306" height="230" rx="10" fill="#7887C7"/>
<path d="M123.307 198.891C123.307 200.106 123.114 201.212 122.729 202.209C122.344 203.206 121.801 204.059 121.098 204.769C120.396 205.479 119.55 206.03 118.561 206.422C117.58 206.807 116.492 207 115.299 207H109.24V190.77H115.299C116.492 190.77 117.58 190.966 118.561 191.359C119.55 191.744 120.396 192.295 121.098 193.012C121.801 193.722 122.344 194.575 122.729 195.572C123.114 196.569 123.307 197.675 123.307 198.891ZM121.053 198.891C121.053 197.894 120.917 197.003 120.645 196.218C120.373 195.432 119.988 194.768 119.49 194.224C118.992 193.681 118.388 193.265 117.678 192.978C116.968 192.691 116.175 192.548 115.299 192.548H111.437V205.222H115.299C116.175 205.222 116.968 205.078 117.678 204.791C118.388 204.505 118.992 204.093 119.49 203.557C119.988 203.013 120.373 202.349 120.645 201.564C120.917 200.778 121.053 199.887 121.053 198.891ZM133.521 200.012C133.521 199.544 133.453 199.117 133.317 198.732C133.189 198.339 132.996 198.003 132.739 197.724C132.49 197.437 132.184 197.218 131.822 197.067C131.46 196.909 131.048 196.829 130.587 196.829C129.621 196.829 128.855 197.112 128.288 197.679C127.729 198.237 127.382 199.015 127.246 200.012H133.521ZM135.152 205.392C134.903 205.694 134.604 205.958 134.257 206.185C133.91 206.403 133.536 206.585 133.136 206.728C132.743 206.872 132.335 206.977 131.913 207.045C131.49 207.121 131.071 207.159 130.655 207.159C129.863 207.159 129.13 207.026 128.458 206.762C127.794 206.49 127.216 206.098 126.725 205.584C126.242 205.063 125.864 204.421 125.593 203.659C125.321 202.896 125.185 202.02 125.185 201.031C125.185 200.231 125.306 199.483 125.547 198.789C125.797 198.094 126.151 197.494 126.612 196.988C127.073 196.474 127.635 196.074 128.3 195.787C128.964 195.493 129.712 195.346 130.542 195.346C131.229 195.346 131.863 195.463 132.445 195.697C133.034 195.923 133.54 196.255 133.963 196.693C134.393 197.124 134.729 197.66 134.971 198.302C135.212 198.936 135.333 199.661 135.333 200.476C135.333 200.793 135.299 201.005 135.231 201.11C135.163 201.216 135.035 201.269 134.846 201.269H127.178C127.201 201.994 127.299 202.624 127.473 203.16C127.654 203.697 127.903 204.146 128.22 204.508C128.537 204.863 128.915 205.131 129.353 205.312C129.791 205.486 130.282 205.573 130.825 205.573C131.331 205.573 131.765 205.516 132.128 205.403C132.498 205.282 132.815 205.154 133.079 205.018C133.343 204.882 133.562 204.757 133.736 204.644C133.917 204.523 134.072 204.463 134.2 204.463C134.367 204.463 134.495 204.527 134.585 204.656L135.152 205.392ZM139.837 204.236C140.207 204.735 140.611 205.086 141.049 205.29C141.487 205.494 141.977 205.596 142.521 205.596C143.593 205.596 144.416 205.214 144.99 204.452C145.564 203.689 145.851 202.602 145.851 201.19C145.851 200.442 145.783 199.8 145.647 199.264C145.519 198.728 145.33 198.29 145.081 197.951C144.831 197.603 144.526 197.35 144.163 197.192C143.801 197.033 143.389 196.954 142.929 196.954C142.272 196.954 141.694 197.105 141.196 197.407C140.705 197.709 140.252 198.136 139.837 198.687V204.236ZM139.735 197.305C140.218 196.708 140.777 196.229 141.411 195.867C142.045 195.504 142.77 195.323 143.586 195.323C144.25 195.323 144.85 195.451 145.386 195.708C145.923 195.957 146.379 196.331 146.757 196.829C147.134 197.32 147.425 197.932 147.629 198.664C147.833 199.396 147.935 200.238 147.935 201.19C147.935 202.035 147.822 202.824 147.595 203.557C147.368 204.282 147.04 204.912 146.61 205.448C146.187 205.977 145.666 206.396 145.047 206.706C144.435 207.008 143.744 207.159 142.974 207.159C142.272 207.159 141.668 207.042 141.162 206.807C140.663 206.566 140.222 206.234 139.837 205.811V210.885H137.809V195.527H139.021C139.308 195.527 139.486 195.666 139.554 195.946L139.735 197.305ZM155.343 195.346C156.181 195.346 156.936 195.485 157.608 195.765C158.28 196.044 158.854 196.44 159.33 196.954C159.805 197.467 160.168 198.09 160.417 198.823C160.674 199.547 160.802 200.359 160.802 201.258C160.802 202.164 160.674 202.979 160.417 203.704C160.168 204.429 159.805 205.048 159.33 205.562C158.854 206.075 158.28 206.471 157.608 206.751C156.936 207.023 156.181 207.159 155.343 207.159C154.497 207.159 153.735 207.023 153.055 206.751C152.383 206.471 151.809 206.075 151.334 205.562C150.858 205.048 150.492 204.429 150.235 203.704C149.986 202.979 149.861 202.164 149.861 201.258C149.861 200.359 149.986 199.547 150.235 198.823C150.492 198.09 150.858 197.467 151.334 196.954C151.809 196.44 152.383 196.044 153.055 195.765C153.735 195.485 154.497 195.346 155.343 195.346ZM155.343 205.584C156.476 205.584 157.321 205.207 157.88 204.452C158.439 203.689 158.718 202.628 158.718 201.269C158.718 199.902 158.439 198.838 157.88 198.075C157.321 197.312 156.476 196.931 155.343 196.931C154.769 196.931 154.267 197.029 153.837 197.226C153.414 197.422 153.059 197.705 152.772 198.075C152.493 198.445 152.281 198.902 152.138 199.446C152.002 199.982 151.934 200.589 151.934 201.269C151.934 202.628 152.213 203.689 152.772 204.452C153.338 205.207 154.195 205.584 155.343 205.584ZM165.273 197.826C165.636 197.041 166.081 196.429 166.61 195.991C167.138 195.546 167.784 195.323 168.547 195.323C168.788 195.323 169.018 195.349 169.237 195.402C169.464 195.455 169.664 195.538 169.838 195.651L169.69 197.158C169.645 197.346 169.532 197.441 169.351 197.441C169.245 197.441 169.09 197.418 168.886 197.373C168.682 197.328 168.452 197.305 168.195 197.305C167.833 197.305 167.508 197.358 167.221 197.464C166.942 197.569 166.689 197.728 166.463 197.939C166.244 198.143 166.043 198.4 165.862 198.709C165.689 199.011 165.53 199.359 165.387 199.751V207H163.359V195.527H164.514C164.733 195.527 164.884 195.568 164.967 195.651C165.051 195.734 165.107 195.878 165.137 196.082L165.273 197.826ZM175.133 207.181C174.227 207.181 173.528 206.928 173.037 206.422C172.554 205.916 172.313 205.188 172.313 204.236V197.214H170.931C170.81 197.214 170.708 197.18 170.625 197.112C170.542 197.037 170.5 196.924 170.5 196.773V195.968L172.381 195.731L172.845 192.186C172.868 192.072 172.917 191.982 172.992 191.914C173.075 191.838 173.181 191.801 173.309 191.801H174.329V195.753H177.647V197.214H174.329V204.101C174.329 204.584 174.446 204.942 174.68 205.177C174.914 205.411 175.216 205.528 175.586 205.528C175.797 205.528 175.978 205.501 176.129 205.448C176.288 205.388 176.424 205.324 176.537 205.256C176.65 205.188 176.745 205.127 176.82 205.075C176.903 205.014 176.975 204.984 177.036 204.984C177.141 204.984 177.236 205.048 177.319 205.177L177.908 206.139C177.56 206.464 177.141 206.721 176.65 206.909C176.16 207.091 175.654 207.181 175.133 207.181ZM187.341 200.012C187.341 199.544 187.274 199.117 187.138 198.732C187.009 198.339 186.817 198.003 186.56 197.724C186.311 197.437 186.005 197.218 185.643 197.067C185.28 196.909 184.869 196.829 184.408 196.829C183.442 196.829 182.675 197.112 182.109 197.679C181.55 198.237 181.203 199.015 181.067 200.012H187.341ZM188.972 205.392C188.723 205.694 188.425 205.958 188.078 206.185C187.73 206.403 187.357 206.585 186.956 206.728C186.564 206.872 186.156 206.977 185.733 207.045C185.31 207.121 184.891 207.159 184.476 207.159C183.683 207.159 182.951 207.026 182.279 206.762C181.614 206.49 181.037 206.098 180.546 205.584C180.063 205.063 179.685 204.421 179.413 203.659C179.141 202.896 179.006 202.02 179.006 201.031C179.006 200.231 179.126 199.483 179.368 198.789C179.617 198.094 179.972 197.494 180.433 196.988C180.893 196.474 181.456 196.074 182.12 195.787C182.785 195.493 183.532 195.346 184.363 195.346C185.05 195.346 185.684 195.463 186.266 195.697C186.854 195.923 187.36 196.255 187.783 196.693C188.214 197.124 188.55 197.66 188.791 198.302C189.033 198.936 189.154 199.661 189.154 200.476C189.154 200.793 189.12 201.005 189.052 201.11C188.984 201.216 188.855 201.269 188.667 201.269H180.999C181.022 201.994 181.12 202.624 181.293 203.16C181.475 203.697 181.724 204.146 182.041 204.508C182.358 204.863 182.736 205.131 183.174 205.312C183.611 205.486 184.102 205.573 184.646 205.573C185.152 205.573 185.586 205.516 185.948 205.403C186.318 205.282 186.635 205.154 186.9 205.018C187.164 204.882 187.383 204.757 187.557 204.644C187.738 204.523 187.893 204.463 188.021 204.463C188.187 204.463 188.316 204.527 188.406 204.656L188.972 205.392ZM198.312 197.418C198.222 197.584 198.082 197.667 197.893 197.667C197.78 197.667 197.652 197.626 197.508 197.543C197.365 197.46 197.187 197.369 196.976 197.271C196.772 197.165 196.527 197.071 196.24 196.988C195.953 196.897 195.613 196.852 195.22 196.852C194.881 196.852 194.575 196.897 194.303 196.988C194.031 197.071 193.797 197.188 193.601 197.339C193.412 197.49 193.265 197.667 193.159 197.871C193.061 198.068 193.012 198.283 193.012 198.517C193.012 198.811 193.095 199.057 193.261 199.253C193.435 199.449 193.661 199.619 193.94 199.763C194.22 199.906 194.537 200.035 194.892 200.148C195.247 200.253 195.609 200.371 195.979 200.499C196.357 200.62 196.723 200.756 197.078 200.907C197.433 201.058 197.75 201.246 198.029 201.473C198.309 201.699 198.531 201.979 198.697 202.311C198.871 202.636 198.958 203.028 198.958 203.489C198.958 204.017 198.863 204.508 198.675 204.961C198.486 205.407 198.207 205.796 197.837 206.128C197.467 206.453 197.014 206.709 196.477 206.898C195.941 207.087 195.322 207.181 194.62 207.181C193.82 207.181 193.095 207.053 192.445 206.796C191.796 206.532 191.245 206.196 190.792 205.788L191.268 205.018C191.328 204.92 191.4 204.844 191.483 204.791C191.566 204.739 191.671 204.712 191.8 204.712C191.936 204.712 192.079 204.765 192.23 204.871C192.381 204.976 192.562 205.093 192.774 205.222C192.993 205.35 193.257 205.467 193.567 205.573C193.876 205.679 194.261 205.731 194.722 205.731C195.115 205.731 195.458 205.682 195.753 205.584C196.047 205.479 196.292 205.339 196.489 205.165C196.685 204.992 196.829 204.791 196.919 204.565C197.017 204.338 197.066 204.097 197.066 203.84C197.066 203.523 196.98 203.262 196.806 203.059C196.64 202.847 196.417 202.67 196.138 202.526C195.858 202.375 195.537 202.247 195.175 202.141C194.82 202.028 194.454 201.911 194.076 201.79C193.706 201.669 193.34 201.533 192.978 201.382C192.623 201.224 192.306 201.027 192.026 200.793C191.747 200.559 191.52 200.272 191.347 199.933C191.181 199.585 191.098 199.166 191.098 198.675C191.098 198.237 191.188 197.818 191.369 197.418C191.551 197.01 191.815 196.656 192.162 196.354C192.51 196.044 192.936 195.799 193.442 195.617C193.948 195.436 194.526 195.346 195.175 195.346C195.93 195.346 196.606 195.466 197.202 195.708C197.806 195.942 198.327 196.267 198.765 196.682L198.312 197.418Z" fill="#101734"/>
<g clip-path="url(#clip0_581_3868)">
<path d="M159.177 66.6699L176.333 42.3081L155.456 22.9923L126.3 33.3955L127.271 60.6583L159.177 66.6699Z" fill="#101734"/>
<path d="M148.061 116.033L163.762 132.258L191.187 120.642L195.666 96.6004L168.442 93.2747L148.061 116.033Z" fill="#101734"/>
<path d="M93.0595 99.2343L93.4061 99.6553C102.735 123.27 125.893 140 153 140C188.348 140 217 111.572 217 76.4999C217 41.4298 188.348 13 153 13C117.654 13 89 41.4316 89 76.4999C89 84.3522 90.4462 91.869 93.0734 98.8126L93.0595 99.2343ZM92.3367 76.4999C92.3367 68.4806 93.939 60.8291 96.8217 53.8238L111.961 35.1868L115.885 28.9437C126.154 21.0364 139.028 16.3109 153.002 16.3109C153.338 16.3109 153.669 16.3314 154.007 16.3349L160.777 18.8093L175.7 20.6987C185.256 24.5398 193.614 30.7227 200.038 38.5373L197.553 49.2737L207.358 76.708L213.621 78.2822C212.659 110.65 185.849 136.687 153.002 136.687C136.648 136.687 121.796 130.223 110.875 119.747L122.649 109.713L111.412 80.9752L93.8311 74.9672L93.4247 87.7813C92.7212 84.1276 92.3367 80.3587 92.3367 76.4999Z" fill="#101734"/>
</g>
</g>
<defs>
<filter id="filter0_d_581_3868" x="0" y="0" width="316" height="240" filterUnits="userSpaceOnUse" color-interpolation-filters="sRGB">
<feFlood flood-opacity="0" result="BackgroundImageFix"/>
<feColorMatrix in="SourceAlpha" type="matrix" values="0 0 0 0 0 0 0 0 0 0 0 0 0 0 0 0 0 0 127 0" result="hardAlpha"/>
<feOffset dx="10" dy="10"/>
<feComposite in2="hardAlpha" operator="out"/>
<feColorMatrix type="matrix" values="0 0 0 0 0 0 0 0 0 0 0 0 0 0 0 0 0 0 1 0"/>
<feBlend mode="normal" in2="BackgroundImageFix" result="effect1_dropShadow_581_3868"/>
<feBlend mode="normal" in="SourceGraphic" in2="effect1_dropShadow_581_3868" result="shape"/>
</filter>
<clipPath id="clip0_581_3868">
<rect width="128" height="127" fill="white" transform="translate(89 13)"/>
</clipPath>
</defs>
</svg>
