<svg width="316" height="240" viewBox="0 0 316 240" fill="none" xmlns="http://www.w3.org/2000/svg">
<g filter="url(#filter0_d_581_3981)">
<rect width="306" height="230" rx="10" fill="#7887C7"/>
<path d="M136.184 192.616H130.929V207H128.743V192.616H123.476V190.77H136.184V192.616ZM143.031 200.012C143.031 199.544 142.963 199.117 142.827 198.732C142.698 198.339 142.506 198.003 142.249 197.724C142 197.437 141.694 197.218 141.332 197.067C140.969 196.909 140.558 196.829 140.097 196.829C139.131 196.829 138.364 197.112 137.798 197.679C137.239 198.237 136.892 199.015 136.756 200.012H143.031ZM144.662 205.392C144.412 205.694 144.114 205.958 143.767 206.185C143.42 206.403 143.046 206.585 142.646 206.728C142.253 206.872 141.845 206.977 141.422 207.045C141 207.121 140.58 207.159 140.165 207.159C139.372 207.159 138.64 207.026 137.968 206.762C137.303 206.49 136.726 206.098 136.235 205.584C135.752 205.063 135.374 204.421 135.102 203.659C134.831 202.896 134.695 202.02 134.695 201.031C134.695 200.231 134.816 199.483 135.057 198.789C135.306 198.094 135.661 197.494 136.122 196.988C136.582 196.474 137.145 196.074 137.809 195.787C138.474 195.493 139.221 195.346 140.052 195.346C140.739 195.346 141.373 195.463 141.955 195.697C142.544 195.923 143.05 196.255 143.472 196.693C143.903 197.124 144.239 197.66 144.48 198.302C144.722 198.936 144.843 199.661 144.843 200.476C144.843 200.793 144.809 201.005 144.741 201.11C144.673 201.216 144.545 201.269 144.356 201.269H136.688C136.711 201.994 136.809 202.624 136.983 203.16C137.164 203.697 137.413 204.146 137.73 204.508C138.047 204.863 138.425 205.131 138.863 205.312C139.301 205.486 139.791 205.573 140.335 205.573C140.841 205.573 141.275 205.516 141.638 205.403C142.008 205.282 142.325 205.154 142.589 205.018C142.853 204.882 143.072 204.757 143.246 204.644C143.427 204.523 143.582 204.463 143.71 204.463C143.876 204.463 144.005 204.527 144.095 204.656L144.662 205.392ZM149.233 197.826C149.596 197.041 150.041 196.429 150.57 195.991C151.098 195.546 151.744 195.323 152.506 195.323C152.748 195.323 152.978 195.349 153.197 195.402C153.424 195.455 153.624 195.538 153.798 195.651L153.65 197.158C153.605 197.346 153.492 197.441 153.311 197.441C153.205 197.441 153.05 197.418 152.846 197.373C152.642 197.328 152.412 197.305 152.155 197.305C151.793 197.305 151.468 197.358 151.181 197.464C150.902 197.569 150.649 197.728 150.422 197.939C150.203 198.143 150.003 198.4 149.822 198.709C149.649 199.011 149.49 199.359 149.346 199.751V207H147.319V195.527H148.474C148.693 195.527 148.844 195.568 148.927 195.651C149.01 195.734 149.067 195.878 149.097 196.082L149.233 197.826ZM157.484 197.826C157.847 197.041 158.292 196.429 158.821 195.991C159.349 195.546 159.995 195.323 160.758 195.323C160.999 195.323 161.23 195.349 161.448 195.402C161.675 195.455 161.875 195.538 162.049 195.651L161.902 197.158C161.856 197.346 161.743 197.441 161.562 197.441C161.456 197.441 161.301 197.418 161.097 197.373C160.894 197.328 160.663 197.305 160.406 197.305C160.044 197.305 159.719 197.358 159.432 197.464C159.153 197.569 158.9 197.728 158.674 197.939C158.455 198.143 158.255 198.4 158.073 198.709C157.9 199.011 157.741 199.359 157.598 199.751V207H155.57V195.527H156.726C156.945 195.527 157.096 195.568 157.179 195.651C157.262 195.734 157.318 195.878 157.348 196.082L157.484 197.826ZM168.193 195.346C169.031 195.346 169.786 195.485 170.458 195.765C171.13 196.044 171.704 196.44 172.18 196.954C172.656 197.467 173.018 198.09 173.267 198.823C173.524 199.547 173.652 200.359 173.652 201.258C173.652 202.164 173.524 202.979 173.267 203.704C173.018 204.429 172.656 205.048 172.18 205.562C171.704 206.075 171.13 206.471 170.458 206.751C169.786 207.023 169.031 207.159 168.193 207.159C167.347 207.159 166.585 207.023 165.905 206.751C165.233 206.471 164.659 206.075 164.184 205.562C163.708 205.048 163.342 204.429 163.085 203.704C162.836 202.979 162.711 202.164 162.711 201.258C162.711 200.359 162.836 199.547 163.085 198.823C163.342 198.09 163.708 197.467 164.184 196.954C164.659 196.44 165.233 196.044 165.905 195.765C166.585 195.485 167.347 195.346 168.193 195.346ZM168.193 205.584C169.326 205.584 170.171 205.207 170.73 204.452C171.289 203.689 171.568 202.628 171.568 201.269C171.568 199.902 171.289 198.838 170.73 198.075C170.171 197.312 169.326 196.931 168.193 196.931C167.619 196.931 167.117 197.029 166.687 197.226C166.264 197.422 165.909 197.705 165.622 198.075C165.343 198.445 165.131 198.902 164.988 199.446C164.852 199.982 164.784 200.589 164.784 201.269C164.784 202.628 165.063 203.689 165.622 204.452C166.188 205.207 167.045 205.584 168.193 205.584ZM178.123 197.826C178.486 197.041 178.931 196.429 179.46 195.991C179.988 195.546 180.634 195.323 181.397 195.323C181.638 195.323 181.868 195.349 182.087 195.402C182.314 195.455 182.514 195.538 182.688 195.651L182.541 197.158C182.495 197.346 182.382 197.441 182.201 197.441C182.095 197.441 181.94 197.418 181.736 197.373C181.532 197.328 181.302 197.305 181.045 197.305C180.683 197.305 180.358 197.358 180.071 197.464C179.792 197.569 179.539 197.728 179.313 197.939C179.094 198.143 178.894 198.4 178.712 198.709C178.539 199.011 178.38 199.359 178.237 199.751V207H176.209V195.527H177.365C177.583 195.527 177.735 195.568 177.818 195.651C177.901 195.734 177.957 195.878 177.987 196.082L178.123 197.826Z" fill="#101734"/>
<g clip-path="url(#clip0_581_3981)">
<path d="M153 13C128.404 13 108.394 32.8539 108.394 57.2575V121.398C108.394 131.655 116.805 140 127.142 140C132.151 140 136.705 138.036 140.071 134.849C143.437 138.036 147.991 140 153 140C158.01 140 162.563 138.036 165.929 134.849C169.296 138.036 173.849 140 178.859 140C189.196 140 197.606 131.655 197.606 121.398V57.2575C197.606 32.8539 177.596 13 153 13ZM141.364 63.0303H137.485C134.272 63.0303 131.667 60.4457 131.667 57.2575C131.667 54.0694 134.272 51.4847 137.485 51.4847H141.364C144.577 51.4847 147.182 54.0694 147.182 57.2575C147.182 60.4457 144.577 63.0303 141.364 63.0303ZM158.818 82.2728C158.818 85.4604 156.213 88.0456 153 88.0456C149.787 88.0456 147.182 85.4604 147.182 82.2728V78.4243C147.182 75.2362 149.787 72.6516 153 72.6516C156.213 72.6516 158.818 75.2362 158.818 78.4243V82.2728ZM168.515 63.0303H164.637C161.423 63.0303 158.818 60.4457 158.818 57.2575C158.818 54.0694 161.423 51.4847 164.637 51.4847H168.515C171.729 51.4847 174.334 54.0694 174.334 57.2575C174.334 60.4457 171.728 63.0303 168.515 63.0303Z" fill="#101734"/>
</g>
</g>
<defs>
<filter id="filter0_d_581_3981" x="0" y="0" width="316" height="240" filterUnits="userSpaceOnUse" color-interpolation-filters="sRGB">
<feFlood flood-opacity="0" result="BackgroundImageFix"/>
<feColorMatrix in="SourceAlpha" type="matrix" values="0 0 0 0 0 0 0 0 0 0 0 0 0 0 0 0 0 0 127 0" result="hardAlpha"/>
<feOffset dx="10" dy="10"/>
<feComposite in2="hardAlpha" operator="out"/>
<feColorMatrix type="matrix" values="0 0 0 0 0 0 0 0 0 0 0 0 0 0 0 0 0 0 1 0"/>
<feBlend mode="normal" in2="BackgroundImageFix" result="effect1_dropShadow_581_3981"/>
<feBlend mode="normal" in="SourceGraphic" in2="effect1_dropShadow_581_3981" result="shape"/>
</filter>
<clipPath id="clip0_581_3981">
<rect width="128" height="127" fill="white" transform="translate(89 13)"/>
</clipPath>
</defs>
</svg>
