<svg width="25" height="26" viewBox="0 0 25 26" fill="none" xmlns="http://www.w3.org/2000/svg">
<path d="M18.0095 0.184051C16.1395 0.184051 14.3777 1.01388 13.0538 2.51575L12.5077 3.1352L11.9514 2.50406C10.6274 1.00219 8.86565 0.172363 6.99567 0.172363C5.13085 0.172363 3.3742 0.996347 2.05028 2.49822C0.726355 4.00009 0 5.99284 0 8.11416C0 10.2355 0.731506 12.2282 2.05543 13.7301L11.8689 24.8626L11.8896 24.886C12.0596 25.0789 12.2862 25.1724 12.5077 25.1724C12.7344 25.1724 12.9611 25.073 13.1311 24.8802L22.9446 13.7476C24.2685 12.2458 25 10.253 25 8.13169C25 6.01037 24.2736 4.01177 22.9497 2.51575C21.631 1.00803 19.8743 0.184051 18.0095 0.184051ZM21.6979 12.3276L12.5129 22.753L3.30723 12.31C2.31815 11.188 1.7721 9.69784 1.76695 8.10831C1.76695 6.52463 2.30785 5.03445 3.29693 3.91243C4.28601 2.79625 5.59963 2.1768 6.99052 2.1768C8.39172 2.1768 9.70534 2.79625 10.6996 3.92412L11.8793 5.26236C12.2089 5.63637 12.7962 5.63637 13.1311 5.26236L14.3056 3.92996C15.2947 2.80794 16.6134 2.18849 18.0095 2.18849C19.4055 2.18849 20.7191 2.80794 21.7082 3.92996C22.6973 5.05198 23.2434 6.54216 23.2382 8.13169C23.2382 9.71537 22.6922 11.2056 21.6979 12.3276Z" fill="white"/>
</svg>
