<svg width="34" height="34" viewBox="0 0 34 34" fill="none" xmlns="http://www.w3.org/2000/svg">
<g clip-path="url(#clip0_1014_3498)">
<path fill-rule="evenodd" clip-rule="evenodd" d="M5.66667 10.4615C5.66667 7.68697 6.86071 5.02603 8.98612 3.06411C11.1115 1.10219 13.9942 0 17 0C20.0058 0 22.8885 1.10219 25.0139 3.06411C27.1393 5.02603 28.3333 7.68697 28.3333 10.4615V15.5476C28.3333 16.7733 28.764 17.9659 29.5611 18.9476L33.4333 23.7128C33.749 24.1014 33.9413 24.5634 33.9885 25.0472C34.0358 25.5309 33.9362 26.0173 33.7009 26.4517C33.4656 26.8861 33.1038 27.2515 32.6562 27.5068C32.2086 27.7622 31.6928 27.8974 31.1667 27.8974H2.83333C2.30715 27.8974 1.79136 27.7622 1.34376 27.5068C0.896164 27.2515 0.534441 26.8861 0.299124 26.4517C0.0638078 26.0173 -0.0358043 25.5309 0.0114499 25.0472C0.0587042 24.5634 0.250958 24.1014 0.566668 23.7128L4.43889 18.9476C5.23585 17.9667 5.66667 16.7737 5.66667 15.5476V10.4615ZM17 34C15.5761 33.9998 14.1904 33.5755 13.0486 32.7901C11.9069 32.0048 11.0702 30.9004 10.6628 29.641H23.3372C22.9298 30.9004 22.0931 32.0048 20.9514 32.7901C19.8096 33.5755 18.4239 33.9998 17 34V34Z" fill="#101734"/>
</g>
<defs>
<clipPath id="clip0_1014_3498">
<rect width="34" height="34" fill="white"/>
</clipPath>
</defs>
</svg>
