<svg width="39" height="31" viewBox="0 0 39 31" fill="none" xmlns="http://www.w3.org/2000/svg">
<g clip-path="url(#clip0_596_3627)">
<path d="M38.0088 14.4671C38.9077 13.7705 39.2252 12.7483 38.8372 11.7992C38.4492 10.8501 37.4365 10.1715 36.1942 10.0279L26.715 8.93305C26.6976 8.93106 26.6828 8.92238 26.6751 8.91001L22.4361 2.08252C21.8807 1.18764 20.7555 0.631592 19.5 0.631592C18.2444 0.631592 17.1195 1.18764 16.564 2.08252L12.3249 8.91001C12.3172 8.92238 12.3023 8.93092 12.285 8.93305L2.80595 10.0279C1.56362 10.1715 0.550904 10.8501 0.162925 11.7992C-0.225055 12.7483 0.0924157 13.7705 0.991318 14.4671L7.8504 19.7816C7.86292 19.7913 7.86865 19.8052 7.86561 19.8189L6.2464 27.3232C6.03416 28.3067 6.53345 29.2821 7.54903 29.8686C8.56479 30.4553 9.88604 30.531 10.9972 30.0667L19.4755 26.5237C19.4909 26.5172 19.5095 26.5173 19.5249 26.5237L28.0031 30.0667C28.4865 30.2687 29.0094 30.3684 29.5298 30.3684C30.2057 30.3684 30.8774 30.2 31.4511 29.8686C32.4667 29.2821 32.9658 28.3067 32.7537 27.323L31.1345 19.8189C31.1315 19.8052 31.1374 19.7913 31.1497 19.7816L38.0088 14.4671ZM27.9595 20.2516L29.5787 27.7558C29.583 27.7757 29.5842 27.7816 29.5576 27.797C29.5309 27.8124 29.5241 27.8095 29.5017 27.8001L21.0233 24.257C20.0694 23.8586 18.9304 23.8586 17.9762 24.257L9.49788 27.8C9.47551 27.8092 9.46871 27.8122 9.44204 27.7969C9.41538 27.7815 9.41663 27.7755 9.42093 27.7558L11.0401 20.2515C11.2223 19.4071 10.8703 18.546 10.0985 17.9479L3.23974 12.6335C3.22166 12.6194 3.21612 12.6153 3.22632 12.5904C3.23652 12.5655 3.24403 12.5646 3.26909 12.5617L12.7481 11.4668C13.8149 11.3436 14.7365 10.8114 15.2134 10.0432L19.4526 3.21553C19.4638 3.19761 19.4671 3.19206 19.5 3.19206C19.5329 3.19206 19.5363 3.19761 19.5474 3.21553L23.7866 10.0432C24.2637 10.8114 25.1851 11.3437 26.2519 11.4668L35.7309 12.5617C35.7559 12.5646 35.7634 12.5655 35.7736 12.5904C35.7838 12.6153 35.7783 12.6196 35.7602 12.6335L28.9011 17.948C28.1295 18.546 27.7775 19.4072 27.9595 20.2516Z" fill="#4D5EA6"/>
</g>
<defs>
<clipPath id="clip0_596_3627">
<rect width="39" height="31" fill="white"/>
</clipPath>
</defs>
</svg>
