<svg width="39" height="32" viewBox="0 0 39 32" fill="none" xmlns="http://www.w3.org/2000/svg">
<path d="M37.7804 18.3084L35.9944 16.9614C35.6665 16.7141 35.4798 16.3654 35.4798 15.9999C35.4798 15.6345 35.6665 15.2858 35.9944 15.0385L37.7804 13.6915C38.2011 13.3743 38.3821 12.8966 38.2551 12.4396C38.1279 11.9826 37.712 11.6166 37.1654 11.4806L34.8439 10.9028C34.4178 10.7968 34.0652 10.549 33.8721 10.2198C33.6788 9.89056 33.6626 9.50994 33.8273 9.17044L34.7242 7.321C34.9354 6.8855 34.8459 6.3905 34.4898 6.02413C34.1337 5.65769 33.5654 5.47594 33.001 5.548L30.6039 5.85394C30.1639 5.91013 29.7153 5.81238 29.3671 5.58456C29.0189 5.35675 28.803 5.01956 28.7718 4.65513L28.6019 2.6695C28.5619 2.20194 28.2196 1.78781 27.7049 1.5845C27.1902 1.38113 26.5822 1.41969 26.1117 1.68556L24.1138 2.81463C23.747 3.02194 23.2911 3.09356 22.857 3.01231C22.4229 2.931 22.05 2.70419 21.8291 2.38681L20.6259 0.658313C20.3427 0.251188 19.8152 0 19.244 0C18.6728 0 18.1453 0.251188 17.862 0.65825L16.659 2.38669C16.4381 2.704 16.0654 2.93088 15.6311 3.01219C15.197 3.0935 14.7411 3.02181 14.3744 2.8145L12.3764 1.68544C11.9059 1.41963 11.2979 1.38106 10.7832 1.58438C10.2685 1.78775 9.92622 2.20188 9.88623 2.66938L9.71629 4.655C9.68514 5.01956 9.46919 5.35663 9.12101 5.58444C8.77283 5.81225 8.32425 5.91 7.88421 5.85381L5.48715 5.54788C4.92265 5.47581 4.35448 5.6575 3.9983 6.024C3.64212 6.3905 3.55269 6.88544 3.76392 7.32088L4.66084 9.17031C4.82553 9.50981 4.8093 9.89044 4.61605 10.2197C4.4228 10.5489 4.07036 10.7967 3.64418 10.9027L1.32269 11.4804C0.776077 11.6164 0.360178 11.9825 0.233047 12.4394C0.105916 12.8964 0.287053 13.3743 0.707674 13.6914L2.49375 15.0384C2.82167 15.2856 3.00829 15.6344 3.00829 15.9998C3.00829 16.3653 2.82167 16.7139 2.49375 16.9613L0.707598 18.3083C0.286977 18.6255 0.105916 19.1033 0.232971 19.5603C0.360026 20.0173 0.775924 20.3833 1.32261 20.5193L3.6441 21.097C4.07028 21.2031 4.4228 21.4508 4.61598 21.78C4.80923 22.1093 4.82545 22.4899 4.66077 22.8294L3.76384 24.6788C3.55262 25.1143 3.64212 25.6093 3.99822 25.9757C4.35433 26.3421 4.92265 26.5239 5.48708 26.4518L7.88413 26.1459C8.32418 26.0897 8.77275 26.1874 9.12093 26.4153C9.46912 26.6431 9.68506 26.9803 9.71622 27.3447L9.88616 29.3303C9.92615 29.7979 10.2685 30.212 10.7832 30.4153C11.2978 30.6187 11.9059 30.5801 12.3764 30.3143L14.3743 29.1852C14.741 28.9779 15.1969 28.9063 15.631 28.9876C16.0653 29.0689 16.438 29.2957 16.6589 29.6131L17.8619 31.3416C18.1452 31.7486 18.6726 31.9998 19.2439 31.9998C19.8151 31.9998 20.3426 31.7486 20.6259 31.3416L21.8288 29.6131C22.0497 29.2958 22.4224 29.0689 22.8567 28.9876C23.2908 28.9062 23.7467 28.9779 24.1135 29.1852L26.1114 30.3143C26.5819 30.5801 27.1899 30.6186 27.7046 30.4153C28.2193 30.2119 28.5616 29.7978 28.6016 29.3303L28.7715 27.3447C28.8027 26.9801 29.0186 26.6431 29.3668 26.4153C29.715 26.1874 30.1636 26.0897 30.6036 26.1459L33.0007 26.4518C33.5652 26.5239 34.1333 26.3422 34.4895 25.9757C34.8457 25.6092 34.9351 25.1143 34.7239 24.6788L33.827 22.8294C33.6623 22.4899 33.6785 22.1093 33.8718 21.78C34.065 21.4508 34.4175 21.203 34.8436 21.097L37.1651 20.5193C37.7118 20.3833 38.1276 20.0172 38.2548 19.5603C38.3822 19.1034 38.2011 18.6256 37.7804 18.3084ZM14.0758 18.563H14.0758C14.0758 18.8349 13.6719 18.9709 13.2678 18.9709C12.8949 18.9709 12.5635 18.9114 12.3668 18.6139L10.3989 15.6736V18.5629C10.3989 18.8349 9.99508 18.9708 9.59114 18.9708C9.1872 18.9708 8.78319 18.8349 8.78319 18.5629V13.1666C8.78319 12.8862 9.18713 12.7588 9.59114 12.7588C10.1711 12.7588 10.3887 12.8012 10.7822 13.4216L12.4602 16.0475V13.1582C12.4602 12.8778 12.864 12.7588 13.268 12.7588C13.6719 12.7588 14.0759 12.8777 14.0759 13.1582V18.563H14.0758ZM18.3634 15.3508V15.3508C18.6741 15.3508 18.8502 15.5972 18.8502 15.8691C18.8502 16.0986 18.7052 16.3705 18.3634 16.3705H16.8098V17.8152H19.5855C19.8962 17.8152 20.0723 18.0871 20.0723 18.4015C20.0723 18.6734 19.9274 18.9709 19.5855 18.9709H15.8984C15.5463 18.9709 15.1941 18.8349 15.1941 18.563V13.1667C15.1941 12.8948 15.5463 12.7588 15.8984 12.7588H19.5855C19.9274 12.7588 20.0723 13.0562 20.0723 13.3282C20.0723 13.6426 19.8962 13.9146 19.5855 13.9146H16.8098V15.3509H18.3634V15.3508ZM29.6939 13.3961L27.6328 18.58C27.5085 18.8775 27.0425 19.0219 26.566 19.0219C26.0999 19.0219 25.6028 18.8774 25.5199 18.58L24.9814 16.5659L24.4428 18.58C24.3599 18.8775 23.8628 19.0219 23.3967 19.0219C22.9202 19.0219 22.4439 18.8774 22.33 18.58L20.2688 13.3961C20.2586 13.3706 20.2481 13.3282 20.2481 13.2856C20.2481 12.9967 20.8282 12.7588 21.2943 12.7588C21.5428 12.7588 21.7499 12.8268 21.8121 13.0052L23.3863 17.3648L24.2046 14.4924C24.2667 14.2629 24.6292 14.1439 24.9814 14.1439C25.3335 14.1439 25.6959 14.2629 25.7581 14.4924L26.5763 17.3648L28.1506 13.0052C28.2127 12.8268 28.4199 12.7588 28.6685 12.7588C29.1346 12.7588 29.7145 12.9967 29.7145 13.2856C29.7146 13.3282 29.7042 13.3707 29.6939 13.3961Z" fill="#273570"/>
</svg>
