<svg width="35" height="27" viewBox="0 0 35 27" fill="none" xmlns="http://www.w3.org/2000/svg">
<path d="M3.5 5H31.5C33.4329 5 35 3.88067 35 2.5C35 1.11933 33.4329 0 31.5 0H3.5C1.56707 0 0 1.11933 0 2.5C0 3.88067 1.56707 5 3.5 5Z" fill="#101734"/>
<path d="M31.5 11H3.5C1.56707 11 0 12.1193 0 13.5C0 14.8807 1.56707 16 3.5 16H31.5C33.4329 16 35 14.8807 35 13.5C35 12.1193 33.4329 11 31.5 11Z" fill="#101734"/>
<path d="M31.5 22H3.5C1.56707 22 0 23.1193 0 24.5C0 25.8807 1.56707 27 3.5 27H31.5C33.4329 27 35 25.8807 35 24.5C35 23.1193 33.4329 22 31.5 22Z" fill="#101734"/>
</svg>
