<svg width="35" height="34" viewBox="0 0 35 34" fill="none" xmlns="http://www.w3.org/2000/svg">
<g clip-path="url(#clip0_707_1266)">
<path d="M33.2596 6.2941C32.7361 6.53101 32.1979 6.73095 31.6479 6.89327C32.299 6.14198 32.7954 5.25798 33.0985 4.29063C33.1664 4.07379 33.096 3.83645 32.9213 3.69464C32.7468 3.55272 32.5044 3.53572 32.3123 3.65187C31.1444 4.35863 29.8844 4.86654 28.5631 5.16355C27.2323 3.83667 25.4246 3.08154 23.5559 3.08154C19.6114 3.08154 16.4023 6.35574 16.4023 10.3802C16.4023 10.6972 16.4219 11.0124 16.4608 11.3233C11.5661 10.8848 7.0155 8.43007 3.89063 4.51908C3.77926 4.37968 3.6077 4.30456 3.43205 4.31892C3.2563 4.33296 3.09839 4.43409 3.0096 4.5895C2.37581 5.6991 2.04075 6.96818 2.04075 8.25941C2.04075 10.0181 2.65616 11.6867 3.74325 12.9906C3.41271 12.8738 3.09194 12.7278 2.7858 12.5544C2.62144 12.461 2.42085 12.4625 2.25757 12.558C2.09417 12.6535 1.99173 12.8292 1.98743 13.0213C1.98668 13.0536 1.98668 13.086 1.98668 13.1188C1.98668 15.7439 3.37143 18.1074 5.48854 19.3955C5.30666 19.377 5.12488 19.3501 4.94429 19.3149C4.75811 19.2786 4.56666 19.3452 4.44111 19.4901C4.31534 19.6348 4.27374 19.8366 4.33168 20.0209C5.11531 22.5172 7.13288 24.3533 9.57194 24.9131C7.549 26.2058 5.2356 26.883 2.80708 26.883C2.30035 26.883 1.79072 26.8526 1.29194 26.7924C1.04417 26.7623 0.807247 26.9116 0.722864 27.152C0.638481 27.3925 0.727916 27.6607 0.938713 27.7986C4.05853 29.8395 7.66595 30.9183 11.3708 30.9183C18.654 30.9183 23.2101 27.4141 25.7497 24.4745C28.9165 20.8089 30.7327 15.9571 30.7327 11.1632C30.7327 10.963 30.7297 10.7607 30.7237 10.5591C31.9731 9.59869 33.0488 8.43632 33.9241 7.10034C34.0571 6.89744 34.0427 6.62928 33.8887 6.4425C33.7348 6.25561 33.4784 6.19518 33.2596 6.2941Z" fill="#4FE87D"/>
</g>
<defs>
<clipPath id="clip0_707_1266">
<rect width="33.3234" height="34" fill="white" transform="translate(0.691528)"/>
</clipPath>
</defs>
</svg>
