<svg width="51" height="44" viewBox="0 0 51 44" fill="none" xmlns="http://www.w3.org/2000/svg">
<ellipse cx="25.5" cy="22" rx="25.5" ry="22" fill="#273570"/>
<g clip-path="url(#clip0_554_3337)">
<path d="M44.0364 23.3084L42.2504 21.9614C41.9224 21.7141 41.7358 21.3654 41.7358 20.9999C41.7358 20.6345 41.9224 20.2858 42.2504 20.0385L44.0364 18.6915C44.4571 18.3743 44.6381 17.8966 44.5111 17.4396C44.3839 16.9826 43.968 16.6166 43.4214 16.4806L41.0999 15.9028C40.6737 15.7968 40.3212 15.549 40.1281 15.2198C39.9348 14.8906 39.9186 14.5099 40.0833 14.1704L40.9802 12.321C41.1914 11.8855 41.1019 11.3905 40.7458 11.0241C40.3897 10.6577 39.8214 10.4759 39.257 10.548L36.8599 10.8539C36.4199 10.9101 35.9713 10.8124 35.6231 10.5846C35.2749 10.3568 35.059 10.0196 35.0278 9.65513L34.8579 7.6695C34.8179 7.20194 34.4756 6.78781 33.9609 6.5845C33.4462 6.38113 32.8382 6.41969 32.3677 6.68556L30.3697 7.81463C30.003 8.02194 29.5471 8.09356 29.113 8.01231C28.6789 7.931 28.306 7.70419 28.0851 7.38681L26.8819 5.65831C26.5987 5.25119 26.0712 5 25.5 5C24.9288 5 24.4013 5.25119 24.118 5.65825L22.915 7.38669C22.6941 7.704 22.3214 7.93088 21.8871 8.01219C21.453 8.0935 20.9971 8.02181 20.6303 7.8145L18.6324 6.68544C18.1619 6.41963 17.5539 6.38106 17.0392 6.58438C16.5245 6.78775 16.1822 7.20188 16.1422 7.66938L15.9723 9.655C15.9411 10.0196 15.7252 10.3566 15.377 10.5844C15.0288 10.8123 14.5802 10.91 14.1402 10.8538L11.7431 10.5479C11.1786 10.4758 10.6105 10.6575 10.2543 11.024C9.8981 11.3905 9.80868 11.8854 10.0199 12.3209L10.9168 14.1703C11.0815 14.5098 11.0653 14.8904 10.872 15.2197C10.6788 15.5489 10.3263 15.7967 9.90016 15.9027L7.57867 16.4804C7.03206 16.6164 6.61616 16.9825 6.48903 17.4394C6.3619 17.8964 6.54303 18.3743 6.96366 18.6914L8.74973 20.0384C9.07765 20.2856 9.26427 20.6344 9.26427 20.9998C9.26427 21.3653 9.07765 21.7139 8.74973 21.9613L6.96358 23.3083C6.54296 23.6255 6.3619 24.1033 6.48895 24.5603C6.61601 25.0173 7.03191 25.3833 7.57859 25.5193L9.90008 26.097C10.3263 26.2031 10.6788 26.4508 10.872 26.78C11.0652 27.1093 11.0814 27.4899 10.9167 27.8294L10.0198 29.6788C9.8086 30.1143 9.8981 30.6093 10.2542 30.9757C10.6103 31.3421 11.1786 31.5239 11.7431 31.4518L14.1401 31.1459C14.5802 31.0897 15.0287 31.1874 15.3769 31.4153C15.7251 31.6431 15.941 31.9803 15.9722 32.3447L16.1421 34.3303C16.1821 34.7979 16.5244 35.212 17.0391 35.4153C17.5538 35.6187 18.1618 35.5801 18.6323 35.3143L20.6303 34.1852C20.997 33.9779 21.4529 33.9063 21.887 33.9876C22.3213 34.0689 22.694 34.2957 22.9149 34.6131L24.1179 36.3416C24.4011 36.7486 24.9286 36.9998 25.4999 36.9998C26.0711 36.9998 26.5986 36.7486 26.8818 36.3416L28.0848 34.6131C28.3057 34.2958 28.6784 34.0689 29.1127 33.9876C29.5468 33.9062 30.0027 33.9779 30.3694 34.1852L32.3674 35.3143C32.8379 35.5801 33.4459 35.6186 33.9606 35.4153C34.4753 35.2119 34.8176 34.7978 34.8576 34.3303L35.0275 32.3447C35.0587 31.9801 35.2746 31.6431 35.6228 31.4153C35.971 31.1874 36.4195 31.0897 36.8596 31.1459L39.2566 31.4518C39.8212 31.5239 40.3893 31.3422 40.7455 30.9757C41.1017 30.6092 41.1911 30.1143 40.9799 29.6788L40.083 27.8294C39.9183 27.4899 39.9345 27.1093 40.1278 26.78C40.321 26.4508 40.6735 26.203 41.0996 26.097L43.4211 25.5193C43.9678 25.3833 44.3836 25.0172 44.5108 24.5603C44.6382 24.1034 44.4571 23.6256 44.0364 23.3084ZM20.3318 23.563H20.3317C20.3317 23.8349 19.9279 23.9709 19.5238 23.9709C19.1509 23.9709 18.8195 23.9114 18.6228 23.6139L16.6549 20.6736V23.5629C16.6549 23.8349 16.2511 23.9708 15.8471 23.9708C15.4432 23.9708 15.0392 23.8349 15.0392 23.5629V18.1666C15.0392 17.8862 15.4431 17.7588 15.8471 17.7588C16.4271 17.7588 16.6446 17.8012 17.0382 18.4216L18.7161 21.0475V18.1582C18.7161 17.8778 19.12 17.7588 19.5239 17.7588C19.9279 17.7588 20.3319 17.8777 20.3319 18.1582V23.563H20.3318ZM24.6194 20.3508V20.3508C24.9301 20.3508 25.1062 20.5972 25.1062 20.8691C25.1062 21.0986 24.9612 21.3705 24.6194 21.3705H23.0658V22.8152H25.8415C26.1522 22.8152 26.3283 23.0871 26.3283 23.4015C26.3283 23.6734 26.1833 23.9709 25.8415 23.9709H22.1544C21.8022 23.9709 21.4501 23.8349 21.4501 23.563V18.1667C21.4501 17.8948 21.8022 17.7588 22.1544 17.7588H25.8415C26.1833 17.7588 26.3283 18.0562 26.3283 18.3282C26.3283 18.6426 26.1522 18.9146 25.8415 18.9146H23.0658V20.3509H24.6194V20.3508ZM35.9499 18.3961L33.8888 23.58C33.7645 23.8775 33.2985 24.0219 32.822 24.0219C32.3559 24.0219 31.8588 23.8774 31.7759 23.58L31.2373 21.5659L30.6987 23.58C30.6159 23.8775 30.1188 24.0219 29.6527 24.0219C29.1762 24.0219 28.6998 23.8774 28.586 23.58L26.5248 18.3961C26.5145 18.3706 26.5041 18.3282 26.5041 18.2856C26.5041 17.9967 27.0842 17.7588 27.5502 17.7588C27.7988 17.7588 28.0059 17.8268 28.0681 18.0052L29.6423 22.3648L30.4605 19.4924C30.5227 19.2629 30.8852 19.1439 31.2373 19.1439C31.5895 19.1439 31.9519 19.2629 32.0141 19.4924L32.8323 22.3648L34.4066 18.0052C34.4687 17.8268 34.6759 17.7588 34.9244 17.7588C35.3905 17.7588 35.9705 17.9967 35.9705 18.2856C35.9706 18.3282 35.9602 18.3707 35.9499 18.3961Z" fill="#01CF3F"/>
</g>
<defs>
<clipPath id="clip0_554_3337">
<rect width="39" height="32" fill="white" transform="translate(6 5)"/>
</clipPath>
</defs>
</svg>
