<svg width="40" height="32" viewBox="0 0 40 32" fill="none" xmlns="http://www.w3.org/2000/svg">
<path d="M39.3789 12.865C37.9144 6.57439 31.732 1.50164 24.0653 0.300012C10.3508 -1.84943 -1.50998 7.88251 1.10964 19.1355C2.5742 25.426 8.75661 30.4988 16.4232 31.7004C30.1377 33.8498 41.9985 24.1179 39.3789 12.865ZM29.2801 23.4143C28.8041 23.8049 28.1804 24.0002 27.5567 24.0002C26.9331 24.0002 26.3094 23.8049 25.8334 23.4143L18.5209 17.4143C18.0638 17.0393 17.8067 16.5315 17.8067 16.0002V8.0002C17.8067 6.8947 18.8981 6.0002 20.2442 6.0002C21.5904 6.0002 22.6817 6.89476 22.6817 8.0002V15.1721L29.2801 20.5861C30.2323 21.3674 30.2323 22.633 29.2801 23.4143Z" fill="#273570"/>
</svg>
