<svg width="46" height="45" viewBox="0 0 46 45" fill="none" xmlns="http://www.w3.org/2000/svg">
<path d="M12.263 13.3942C13.504 13.3942 14.5046 12.5172 14.5046 11.4332C14.5046 10.3491 13.504 9.47217 12.263 9.47217C11.0303 9.47217 10.0269 10.3491 10.0269 11.4332C10.0269 12.5172 11.0317 13.3942 12.263 13.3942Z" fill="#D99F09"/>
<path d="M22.4914 9.8079C24.6135 9.8079 26.3326 8.30431 26.3326 6.44614C26.3326 4.58797 24.6135 3.08032 22.4914 3.08032C20.3748 3.08032 18.6529 4.58662 18.6529 6.44479C18.6529 8.30296 20.3734 9.8079 22.4914 9.8079Z" fill="#D99F09"/>
<path d="M33.5703 13.5092C34.8068 13.5092 35.8091 12.6306 35.8091 11.5469C35.8091 10.4631 34.8068 9.58447 33.5703 9.58447C32.3338 9.58447 31.3314 10.4631 31.3314 11.5469C31.3314 12.6306 32.3338 13.5092 33.5703 13.5092Z" fill="#D99F09"/>
<path d="M36.3553 34.9873H8.62881V41.7149H36.3553V34.9873Z" fill="#D99F09"/>
<path d="M42.1616 14.182C44.2815 14.182 46 12.6763 46 10.8189C46 8.96153 44.2815 7.45581 42.1616 7.45581C40.0417 7.45581 38.3232 8.96153 38.3232 10.8189C38.3232 12.6763 40.0417 14.182 42.1616 14.182Z" fill="#D99F09"/>
<path d="M7.67547 10.9407C7.67547 9.08123 5.96054 7.57764 3.83426 7.57764C1.72048 7.57628 0 9.08123 0 10.9407C0 12.7976 1.72048 14.3039 3.83565 14.3039C5.96054 14.3039 7.67547 12.7976 7.67547 10.9407Z" fill="#D99F09"/>
<path d="M37.8409 14.8059L32.5836 19.4128L33.0255 14.7193C33.0255 14.7193 32.3028 13.6596 31.3592 14.5163L28.1726 18.4817L24.0256 12.1195C24.0256 12.1195 22.8833 10.9827 20.9529 12.1195L16.906 18.3233L14.1641 14.5177C14.1641 14.5177 13.4637 13.439 12.5812 14.5867L12.8689 19.7065L7.68659 14.8059C7.68659 14.8059 6.08563 14.1766 5.31989 15.6924L8.66913 33.6421H36.3067L40.9122 16.1539C40.9122 16.1539 40.3966 13.841 37.8409 14.8059Z" fill="#D99F09"/>
</svg>
