<svg width="35" height="28" viewBox="0 0 35 28" fill="none" xmlns="http://www.w3.org/2000/svg">
<g clip-path="url(#clip0_707_1271)">
<path d="M4.76284 0.000732422H30.2592C32.6815 0.000732422 34.6618 1.61764 34.6618 3.59481V24.4061C34.6618 26.3827 32.6815 27.9985 30.2592 27.9985H4.76284C2.34056 27.9985 0.358276 26.3826 0.358276 24.4061V3.59481C0.358276 1.61764 2.34056 0.000732422 4.76284 0.000732422ZM25.3479 3.11032C24.4974 3.11032 23.8037 3.67881 23.8037 4.37265V7.38863C23.8037 8.08275 24.4974 8.64993 25.3479 8.64993H29.2245C30.0737 8.64993 30.7689 8.08275 30.7689 7.38863V4.37265C30.7689 3.67881 30.0737 3.11032 29.2245 3.11032H25.3479ZM30.7836 11.8406H27.7654C28.0516 12.6036 28.2068 13.4083 28.2068 14.2448C28.2068 18.9005 23.431 22.6765 17.5423 22.6765C11.655 22.6765 6.87914 18.9005 6.87914 14.2448C6.87914 13.4083 7.03579 12.6036 7.32062 11.8406H4.17168V23.6689C4.17168 24.2815 4.78445 24.7798 5.53421 24.7798H29.4217C30.1721 24.7798 30.7836 24.2815 30.7836 23.6689V11.8406ZM17.5424 8.49089C13.7393 8.49089 10.6542 10.9295 10.6542 13.9404C10.6542 16.9483 13.7393 19.3888 17.5424 19.3888C21.3475 19.3888 24.4327 16.9483 24.4327 13.9404C24.4327 10.9294 21.3475 8.49089 17.5424 8.49089Z" fill="#4FE87D"/>
</g>
<defs>
<clipPath id="clip0_707_1271">
<rect width="34.3035" height="28" fill="white" transform="translate(0.358276)"/>
</clipPath>
</defs>
</svg>
