<svg width="34" height="35" viewBox="0 0 34 35" fill="none" xmlns="http://www.w3.org/2000/svg">
<path d="M33.5715 31.5914L23.8164 21.8214C25.7395 19.5131 26.8962 16.5632 26.8962 13.3414C26.8962 5.99118 20.8689 0.0147705 13.4551 0.0147705C6.04119 0.0147705 1.49023e-08 5.99816 3.32088e-08 13.3484C5.15153e-08 20.6986 6.02726 26.675 13.4411 26.675C16.5906 26.675 19.4893 25.5941 21.7887 23.7879L31.5786 33.5859C32.15 34.1577 33.0001 34.1577 33.5715 33.5859C34.1428 33.0141 34.1428 32.1633 33.5715 31.5914ZM2.85685 13.3484C2.85685 7.5742 7.60898 2.88094 13.4411 2.88094C19.2733 2.88094 24.0254 7.5742 24.0254 13.3484C24.0254 19.1226 19.2733 23.8158 13.4411 23.8158C7.60898 23.8158 2.85685 19.1156 2.85685 13.3484Z" fill="#1D233B"/>
</svg>
