<svg width="39" height="32" viewBox="0 0 39 32" fill="none" xmlns="http://www.w3.org/2000/svg">
<path d="M7.45387 11.9423L8.3138 13.8554C8.34612 13.9274 8.4297 13.9752 8.52313 13.9752C8.61656 13.9752 8.70013 13.9274 8.73246 13.8554L9.59238 11.9423C10.2884 10.3936 11.7764 9.17275 13.6637 8.60174L15.9953 7.89616C16.0829 7.86963 16.1412 7.80106 16.1412 7.7244C16.1412 7.64774 16.0829 7.57916 15.9953 7.55264L13.6636 6.84706C11.7762 6.27594 10.2883 5.05519 9.59238 3.50656L8.73246 1.5935C8.70013 1.52158 8.61656 1.47382 8.52313 1.47382C8.4297 1.47382 8.34612 1.52158 8.3138 1.5935L7.45387 3.50656C6.75781 5.05519 5.27003 6.27594 3.38251 6.84706L1.05083 7.55264C0.963181 7.57916 0.904968 7.64774 0.904968 7.7244C0.904968 7.80106 0.963181 7.86963 1.05083 7.89616L3.38237 8.60174C5.2699 9.17275 6.75781 10.3935 7.45387 11.9423Z" fill="#00581B"/>
<path d="M26.3573 20.0226L24.0259 19.3172C22.1384 18.746 20.6505 17.5253 19.9546 15.9767L19.0946 14.0636C19.0623 13.9917 18.9787 13.9439 18.8853 13.9439C18.7919 13.9439 18.7083 13.9917 18.676 14.0636L17.816 15.9765C17.12 17.5253 15.6321 18.746 13.7447 19.3172L11.4131 20.0226C11.3255 20.0491 11.2673 20.1177 11.2673 20.1944C11.2673 20.271 11.3255 20.3396 11.4131 20.3661L13.7448 21.0718C15.6322 21.643 17.12 22.8637 17.816 24.4123L18.676 26.3255C18.7083 26.3974 18.7919 26.4452 18.8853 26.4452C18.9787 26.4452 19.0623 26.3974 19.0946 26.3255L19.9546 24.4123C20.6506 22.8637 22.1384 21.6428 24.0258 21.0718L26.3575 20.3661C26.4451 20.3396 26.5033 20.271 26.5033 20.1944C26.5033 20.1177 26.445 20.0491 26.3573 20.0226Z" fill="#00581B"/>
<path d="M38.4244 11.8399L36.8398 11.3604C35.5571 10.9722 34.546 10.1426 34.0729 9.09012L33.4885 7.79002C33.4665 7.74118 33.4097 7.70862 33.3462 7.70862C33.2828 7.70862 33.226 7.74118 33.2039 7.79002L32.6197 9.09002C32.1466 10.1426 31.1354 10.9722 29.8527 11.3604L28.2682 11.8399C28.2086 11.8579 28.1689 11.9045 28.1689 11.9565C28.1689 12.0086 28.2086 12.0553 28.2682 12.0733L29.8528 12.5527C31.1354 12.9409 32.1466 13.7706 32.6197 14.8231L33.2039 16.1234C33.226 16.1722 33.2828 16.2048 33.3462 16.2048C33.4097 16.2048 33.4665 16.1722 33.4885 16.1234L34.0729 14.8231C34.546 13.7705 35.557 12.9409 36.8398 12.5528L38.4244 12.0733C38.484 12.0553 38.5236 12.0086 38.5236 11.9565C38.5236 11.9045 38.484 11.8579 38.4244 11.8399Z" fill="#00581B"/>
<path d="M34.5859 28.9555L33.4805 28.6209C32.5857 28.3502 31.8805 27.7715 31.5505 27.0375L31.1428 26.1307C31.1275 26.0966 31.0878 26.074 31.0436 26.074C30.9993 26.074 30.9596 26.0966 30.9444 26.1307L30.5366 27.0375C30.2066 27.7716 29.5014 28.3503 28.6068 28.6209L27.5014 28.9555C27.4598 28.968 27.4323 29.0006 27.4323 29.0369C27.4323 29.0732 27.4598 29.1058 27.5014 29.1183L28.6066 29.4529C29.5015 29.7236 30.2068 30.3024 30.5367 31.0365L30.9445 31.9434C30.9597 31.9775 30.9994 32.0001 31.0437 32.0001C31.088 32.0001 31.1277 31.9775 31.1429 31.9434L31.5507 31.0365C31.8806 30.3024 32.5859 29.7236 33.4808 29.4529L34.586 29.1183C34.6275 29.1058 34.6551 29.0732 34.6551 29.0369C34.6551 29.0006 34.6275 28.968 34.5859 28.9555Z" fill="#00581B"/>
<path d="M26.4342 2.88162L25.3288 2.54716C24.4341 2.27642 23.7288 1.69774 23.399 0.963594L22.9912 0.0568215C22.976 0.0226423 22.9363 0 22.892 0C22.8477 0 22.8081 0.0226423 22.7928 0.0567137L22.3852 0.963378C22.0552 1.69753 21.3498 2.27631 20.4551 2.54705L19.3497 2.88151C19.3082 2.89402 19.2806 2.92658 19.2806 2.96291C19.2806 2.99925 19.3082 3.03181 19.3497 3.04432L20.455 3.37889C21.3498 3.64962 22.0552 4.2284 22.3852 4.96266L22.7928 5.86944C22.8081 5.90351 22.8477 5.92615 22.892 5.92615C22.9363 5.92615 22.976 5.90351 22.9912 5.86944L23.399 4.96256C23.729 4.2283 24.4342 3.64962 25.3291 3.37899L26.4343 3.04443C26.4759 3.03192 26.5035 2.99936 26.5035 2.96302C26.5035 2.92669 26.4759 2.89412 26.4342 2.88162Z" fill="#00581B"/>
<path d="M12.8765 27.091L11.4862 26.6705C10.3608 26.33 9.47357 25.602 9.05832 24.6785L8.5457 23.5378C8.52639 23.495 8.47658 23.4664 8.42087 23.4664C8.36515 23.4664 8.31535 23.495 8.29603 23.5378L7.78342 24.6784C7.36843 25.6019 6.48118 26.3299 5.35555 26.6705L3.96553 27.091C3.9131 27.1068 3.87854 27.1478 3.87854 27.1935C3.87854 27.2392 3.91323 27.2802 3.96553 27.2959L5.35568 27.7166C6.48105 28.0571 7.3683 28.7851 7.78342 29.7086L8.29603 30.8493C8.31535 30.8923 8.36515 30.9207 8.42087 30.9207C8.47658 30.9207 8.52652 30.8923 8.5457 30.8493L9.05845 29.7085C9.47343 28.7851 10.3606 28.0572 11.4861 27.7166L12.8765 27.2959C12.9288 27.2802 12.9635 27.2392 12.9635 27.1935C12.9635 27.1478 12.9289 27.1068 12.8765 27.091Z" fill="#00581B"/>
</svg>
