<svg width="34" height="26" viewBox="0 0 34 26" fill="none" xmlns="http://www.w3.org/2000/svg">
<g opacity="0.5" clip-path="url(#clip0_703_1015)">
<path d="M33.5715 24.1377L23.8164 16.6726C25.7395 14.9089 26.8962 12.655 26.8962 10.1933C26.8962 4.5771 20.8689 0.0106506 13.4551 0.0106506C6.04119 0.0106506 1.13865e-08 4.58243 2.53741e-08 10.1986C3.93618e-08 15.8147 6.02726 20.3812 13.4411 20.3812C16.5906 20.3812 19.4893 19.5553 21.7887 18.1752L31.5786 25.6616C32.15 26.0986 33.0001 26.0986 33.5715 25.6616C34.1428 25.2247 34.1428 24.5746 33.5715 24.1377ZM2.85685 10.1986C2.85685 5.78665 7.60898 2.20063 13.4411 2.20063C19.2733 2.20063 24.0254 5.78665 24.0254 10.1986C24.0254 14.6105 19.2733 18.1965 13.4411 18.1965C7.60898 18.1965 2.85685 14.6052 2.85685 10.1986Z" fill="black"/>
</g>
<defs>
<clipPath id="clip0_703_1015">
<rect width="34" height="26" fill="white"/>
</clipPath>
</defs>
</svg>
