<svg width="35" height="34" viewBox="0 0 35 34" fill="none" xmlns="http://www.w3.org/2000/svg">
<g clip-path="url(#clip0_707_1276)">
<path d="M31.5816 0.776855H2.73531C1.22522 0.776855 0.00500488 1.98514 0.00500488 3.47959V30.5217C0.00500488 32.0117 1.22522 33.2234 2.73531 33.2234H31.5816C33.0848 33.2234 34.3085 32.0128 34.3085 30.5217V3.47959C34.3073 1.98514 33.0837 0.776855 31.5816 0.776855ZM23.063 10.4102C22.3538 9.9991 21.7913 9.67432 21.0843 9.67432C20.3923 9.67432 19.8011 9.84579 19.4986 10.1342C19.1962 10.4204 19.0461 10.9746 19.0461 11.7934V13.005H22.7457L21.9448 16.3755H19.0461V27.5749H14.3989V16.3755H12.2301V13.005H14.4012V11.7184C14.4012 10.3636 14.5651 9.55281 14.8882 8.88394C15.2101 8.21734 15.8346 7.47465 16.703 7.05448C17.5704 6.63544 18.8536 6.42422 20.1815 6.42422C21.5426 6.42422 22.6059 6.87392 23.9097 7.23617L23.063 10.4102Z" fill="#4FE87D"/>
</g>
<defs>
<clipPath id="clip0_707_1276">
<rect width="34.3035" height="34" fill="white" transform="translate(0.00500488)"/>
</clipPath>
</defs>
</svg>
