<svg width="35" height="29" viewBox="0 0 35 29" fill="none" xmlns="http://www.w3.org/2000/svg">
<path d="M4.73294 0.500732H30.2293C32.6516 0.500732 34.6318 2.11764 34.6318 4.09481V24.9061C34.6318 26.8827 32.6516 28.4985 30.2293 28.4985H4.73294C2.31065 28.4985 0.328369 26.8826 0.328369 24.9061V4.09481C0.328369 2.11764 2.31065 0.500732 4.73294 0.500732ZM25.318 3.61032C24.4675 3.61032 23.7738 4.17881 23.7738 4.87265V7.88863C23.7738 8.58275 24.4675 9.14993 25.318 9.14993H29.1946C30.0438 9.14993 30.739 8.58275 30.739 7.88863V4.87265C30.739 4.17881 30.0438 3.61032 29.1946 3.61032H25.318ZM30.7537 12.3406H27.7355C28.0217 13.1036 28.1768 13.9083 28.1768 14.7448C28.1768 19.4005 23.4011 23.1765 17.5124 23.1765C11.6251 23.1765 6.84923 19.4005 6.84923 14.7448C6.84923 13.9083 7.00588 13.1036 7.29072 12.3406H4.14177V24.1689C4.14177 24.7815 4.75455 25.2798 5.50431 25.2798H29.3918C30.1422 25.2798 30.7537 24.7815 30.7537 24.1689V12.3406ZM17.5125 8.99089C13.7094 8.99089 10.6243 11.4295 10.6243 14.4404C10.6243 17.4483 13.7094 19.8888 17.5125 19.8888C21.3176 19.8888 24.4028 17.4483 24.4028 14.4404C24.4028 11.4294 21.3176 8.99089 17.5125 8.99089Z" fill="#101734"/>
</svg>
