<svg width="34" height="29" viewBox="0 0 34 29" fill="none" xmlns="http://www.w3.org/2000/svg">
<path d="M33.2299 3.7941C32.7064 4.03101 32.1681 4.23095 31.6182 4.39327C32.2693 3.64198 32.7657 2.75798 33.0687 1.79063C33.1367 1.57379 33.0663 1.33645 32.8916 1.19464C32.7171 1.05272 32.4747 1.03572 32.2826 1.15187C31.1147 1.85863 29.8546 2.36654 28.5334 2.66355C27.2025 1.33667 25.3949 0.581543 23.5262 0.581543C19.5817 0.581543 16.3725 3.85574 16.3725 7.88025C16.3725 8.19721 16.3922 8.51243 16.4311 8.82325C11.5364 8.38476 6.98578 5.93007 3.8609 2.01908C3.74954 1.87968 3.57798 1.80456 3.40233 1.81892C3.22658 1.83296 3.06867 1.93409 2.97988 2.0895C2.34609 3.1991 2.01103 4.46818 2.01103 5.75941C2.01103 7.51809 2.62643 9.18672 3.71353 10.4906C3.38298 10.3738 3.06222 10.2278 2.75607 10.0544C2.59171 9.96105 2.39113 9.96247 2.22784 10.058C2.06445 10.1535 1.96201 10.3292 1.95771 10.5213C1.95696 10.5536 1.95696 10.586 1.95696 10.6188C1.95696 13.2439 3.3417 15.6074 5.45881 16.8955C5.27693 16.877 5.09516 16.8501 4.91457 16.8149C4.72839 16.7786 4.53694 16.8452 4.41138 16.9901C4.28561 17.1348 4.24401 17.3366 4.30195 17.5209C5.08559 20.0172 7.10316 21.8533 9.54222 22.4131C7.51927 23.7058 5.20588 24.383 2.77736 24.383C2.27063 24.383 1.76099 24.3526 1.26222 24.2924C1.01444 24.2623 0.777523 24.4116 0.69314 24.652C0.608756 24.8925 0.698192 25.1607 0.908989 25.2986C4.02881 27.3395 7.63623 28.4183 11.341 28.4183C18.6242 28.4183 23.1804 24.9141 25.72 21.9745C28.8868 18.3089 30.703 13.4571 30.703 8.66323C30.703 8.46296 30.7 8.26072 30.694 8.05913C31.9434 7.09869 33.0191 5.93632 33.8944 4.60034C34.0274 4.39744 34.013 4.12928 33.8589 3.9425C33.7051 3.75561 33.4487 3.69518 33.2299 3.7941Z" fill="#576082"/>
</svg>
