<svg width="40" height="40" viewBox="0 0 40 40" fill="none" xmlns="http://www.w3.org/2000/svg">
<path d="M39.4133 36.585C39.5992 36.7706 39.7467 36.9911 39.8474 37.2338C39.9481 37.4765 39.9999 37.7367 40 37.9994C40.0001 38.2622 39.9484 38.5223 39.8479 38.7651C39.7474 39.0079 39.6 39.2284 39.4142 39.4142C39.2284 39.6 39.0079 39.7474 38.7651 39.8479C38.5223 39.9484 38.2622 40.0001 37.9994 40C37.7367 39.9999 37.4765 39.9481 37.2338 39.8474C36.9911 39.7467 36.7706 39.5992 36.585 39.4133L19.9991 22.8275L3.41326 39.4133C3.03812 39.788 2.52954 39.9984 1.99934 39.9982C1.46913 39.9981 0.960688 39.7874 0.585776 39.4125C0.210863 39.0375 0.000166355 38.5291 9.84659e-08 37.9989C-0.000166158 37.4687 0.210213 36.9601 0.58489 36.585L17.1707 19.9991L0.58489 3.41326C0.210213 3.03812 -0.000166158 2.52954 9.84659e-08 1.99934C0.000166355 1.46913 0.210863 0.960688 0.585776 0.585776C0.960688 0.210863 1.46913 0.000166355 1.99934 9.84659e-08C2.52954 -0.000166158 3.03812 0.210213 3.41326 0.58489L19.9991 17.1707L36.585 0.58489C36.9601 0.210213 37.4687 -0.000166158 37.9989 9.84659e-08C38.5291 0.000166355 39.0375 0.210863 39.4125 0.585776C39.7874 0.960688 39.9981 1.46913 39.9982 1.99934C39.9984 2.52954 39.788 3.03812 39.4133 3.41326L22.8275 19.9991L39.4133 36.585Z" fill="white"/>
</svg>
