<svg width="50" height="62" viewBox="0 0 50 62" fill="none" xmlns="http://www.w3.org/2000/svg">
<path d="M46.3636 0H3.63636C1.628 0 0 1.5638 0 3.49296V58.507C0 60.4362 1.628 62 3.63636 62H46.3636C48.372 62 50 60.4362 50 58.507V3.49296C50 1.5638 48.372 0 46.3636 0ZM7.09091 7.85915C7.09091 7.08756 7.74218 6.46197 8.54545 6.46197H41.6364C42.4396 6.46197 43.0909 7.08756 43.0909 7.85915V29.5155C43.0909 30.2873 42.4396 30.9127 41.6364 30.9127H8.54545C7.74218 30.9127 7.09091 30.2873 7.09091 29.5155V7.85915ZM24.3636 45.9429C24.3636 47.0926 23.3956 48.0282 22.206 48.0282H18.9202C18.52 48.0282 18.1818 48.3528 18.1818 48.7372V51.8935C18.1818 53.0364 17.208 53.966 16.0111 53.966H14.9376C13.7189 53.966 12.7273 53.0364 12.7273 51.8935V48.7372C12.7273 48.3462 12.4138 48.0282 12.0285 48.0282H8.52127C7.33164 48.0282 6.36364 47.0928 6.36364 45.9429V44.9118C6.36364 43.7411 7.33164 42.7887 8.52127 42.7887H12.0285C12.4269 42.7887 12.7273 42.5002 12.7273 42.1174V38.7486C12.7273 37.6057 13.7189 36.6761 14.9376 36.6761H16.0111C17.208 36.6761 18.1818 37.6057 18.1818 38.7486V42.1174C18.1818 42.4875 18.5131 42.7887 18.9202 42.7887H22.206C23.3958 42.7887 24.3636 43.7411 24.3636 44.9118V45.9429ZM30.5287 41.0489C30.5287 38.9584 32.2991 37.2578 34.4753 37.2578C36.6515 37.2578 38.4218 38.9584 38.4218 41.0489C38.4218 43.1392 36.6515 44.8398 34.4753 44.8398C32.2991 44.8398 30.5287 43.1392 30.5287 41.0489ZM40.4753 53.7468C38.2991 53.7468 36.5287 52.0463 36.5287 49.9559C36.5287 47.8654 38.2991 46.1648 40.4753 46.1648C42.6515 46.1648 44.422 47.8654 44.422 49.9559C44.422 52.0463 42.6515 53.7468 40.4753 53.7468Z" fill="#101734"/>
</svg>
