<svg width="273" height="65" viewBox="0 0 273 65" fill="none" xmlns="http://www.w3.org/2000/svg">
<path d="M20.1754 63.6035H52.0973C56.3893 63.6035 59.8766 60.4678 59.8766 56.6084V14.2822C59.8766 10.4229 56.3893 7.28711 52.0973 7.28711H20.1754C15.8833 7.28711 12.3961 10.4229 12.3961 14.2822V56.6084C12.3961 60.4678 15.8833 63.6035 20.1754 63.6035ZM15.8551 14.2822C15.8551 12.1367 17.7893 10.3975 20.1754 10.3975H52.0973C54.4833 10.3975 56.4176 12.1367 56.4176 14.2822V56.6084C56.4176 58.7539 54.4833 60.4932 52.0973 60.4932H20.1754C17.7893 60.4932 15.8551 58.7539 15.8551 56.6084V14.2822V14.2822Z" fill="white"/>
<path d="M20.9377 40.917H51.3349C52.295 40.917 53.0715 40.2188 53.0715 39.3555V16.25C53.0715 15.3867 52.295 14.6885 51.3349 14.6885H20.9377C19.9777 14.6885 19.2012 15.3867 19.2012 16.25V39.3555C19.2153 40.2188 19.9918 40.917 20.9377 40.917ZM22.6743 17.8242H49.6124V37.8193H22.6743V17.8242Z" fill="white"/>
<path d="M40.0825 52.9395C41.2443 52.9395 42.1861 52.0926 42.1861 51.0479C42.1861 50.0031 41.2443 49.1562 40.0825 49.1562C38.9207 49.1562 37.9788 50.0031 37.9788 51.0479C37.9788 52.0926 38.9207 52.9395 40.0825 52.9395Z" fill="white"/>
<path d="M48.6947 52.9395C49.8565 52.9395 50.7984 52.0926 50.7984 51.0479C50.7984 50.0031 49.8565 49.1562 48.6947 49.1562C47.5329 49.1562 46.5911 50.0031 46.5911 51.0479C46.5911 52.0926 47.5329 52.9395 48.6947 52.9395Z" fill="white"/>
<path d="M31.4843 49.499H28.8582V47.1377C28.8582 46.2744 28.0817 45.5762 27.1217 45.5762C26.1616 45.5762 25.3851 46.2744 25.3851 47.1377V49.499H22.759C21.799 49.499 21.0225 50.1973 21.0225 51.0605C21.0225 51.9238 21.799 52.6221 22.759 52.6221H25.3851V54.9707C25.3851 55.834 26.1616 56.5322 27.1217 56.5322C28.0817 56.5322 28.8582 55.834 28.8582 54.9707V52.6094H31.4843C32.4443 52.6094 33.2209 51.9111 33.2209 51.0479C33.2209 50.1973 32.4443 49.499 31.4843 49.499Z" fill="white"/>
<path d="M44.3886 56.8115C45.5504 56.8115 46.4922 55.9646 46.4922 54.9199C46.4922 53.8752 45.5504 53.0283 44.3886 53.0283C43.2268 53.0283 42.2849 53.8752 42.2849 54.9199C42.2849 55.9646 43.2268 56.8115 44.3886 56.8115Z" fill="white"/>
<path d="M44.3886 49.0674C45.5504 49.0674 46.4922 48.2205 46.4922 47.1758C46.4922 46.1311 45.5504 45.2842 44.3886 45.2842C43.2268 45.2842 42.2849 46.1311 42.2849 47.1758C42.2849 48.2205 43.2268 49.0674 44.3886 49.0674Z" fill="white"/>
<path d="M22.7731 1.39648C21.8131 1.39648 21.0366 2.09473 21.0366 2.94531C21.0366 3.7959 21.8131 4.50684 22.7731 4.50684H49.5277C50.4878 4.50684 51.2643 3.80859 51.2643 2.94531C51.2643 2.08203 50.4736 1.39648 49.5136 1.39648H22.7731Z" fill="white"/>
<path d="M67.6701 42.7521H70.8224L75.4899 56.4893L80.1243 42.7521H83.2434V59H81.1529V49.4105C81.1529 49.0787 81.1603 48.5293 81.1751 47.7625C81.1898 46.9956 81.1972 46.1735 81.1972 45.296L76.5628 59H74.3839L69.7163 45.296V45.7937C69.7163 46.1919 69.7237 46.8002 69.7385 47.6187C69.7606 48.4298 69.7716 49.0271 69.7716 49.4105V59H67.6701V42.7521ZM88.3202 47.1542V55.0182C88.3202 55.6228 88.416 56.1169 88.6078 56.5003C88.9617 57.2082 89.6216 57.5621 90.5876 57.5621C91.9739 57.5621 92.9177 56.9427 93.4191 55.704C93.6919 55.0403 93.8283 54.1297 93.8283 52.972V47.1542H95.8192V59H93.9389L93.9611 57.2524C93.703 57.7022 93.3822 58.082 92.9988 58.3917C92.2393 59.0111 91.3176 59.3208 90.2337 59.3208C88.5451 59.3208 87.3948 58.7567 86.7828 57.6285C86.451 57.0238 86.285 56.2164 86.285 55.2062V47.1542H88.3202ZM103.506 46.8113C104.841 46.8113 105.925 47.1357 106.758 47.7846C107.599 48.4335 108.104 49.5506 108.273 51.136H106.338C106.22 50.406 105.951 49.8013 105.53 49.322C105.11 48.8354 104.435 48.592 103.506 48.592C102.238 48.592 101.331 49.2114 100.785 50.4502C100.431 51.2539 100.255 52.2457 100.255 53.4255C100.255 54.6126 100.505 55.6118 101.007 56.4229C101.508 57.234 102.297 57.6396 103.374 57.6396C104.199 57.6396 104.852 57.3888 105.331 56.8874C105.818 56.3787 106.153 55.6855 106.338 54.8081H108.273C108.052 56.3787 107.499 57.5289 106.614 58.2589C105.729 58.9816 104.598 59.3429 103.219 59.3429C101.67 59.3429 100.435 58.7788 99.5135 57.6506C98.5917 56.5151 98.1309 55.0993 98.1309 53.4034C98.1309 51.324 98.636 49.7055 99.6462 48.5478C100.656 47.3901 101.943 46.8113 103.506 46.8113ZM110.264 42.6968H112.255V48.7579C112.727 48.1607 113.151 47.7404 113.527 47.497C114.169 47.0767 114.969 46.8666 115.927 46.8666C117.645 46.8666 118.81 47.4675 119.422 48.6694C119.754 49.3257 119.92 50.2364 119.92 51.4014V59H117.874V51.5341C117.874 50.664 117.763 50.0262 117.542 49.6207C117.181 48.9718 116.502 48.6473 115.507 48.6473C114.681 48.6473 113.933 48.9312 113.262 49.499C112.591 50.0668 112.255 51.1396 112.255 52.7176V59H110.264V42.6968ZM127.574 57.717C128.894 57.717 129.797 57.2193 130.284 56.2238C130.778 55.221 131.025 54.1076 131.025 52.8835C131.025 51.7775 130.848 50.8779 130.494 50.1847C129.934 49.0934 128.968 48.5478 127.596 48.5478C126.38 48.5478 125.495 49.0123 124.942 49.9414C124.389 50.8705 124.112 51.9913 124.112 53.3038C124.112 54.5647 124.389 55.6155 124.942 56.4561C125.495 57.2967 126.372 57.717 127.574 57.717ZM127.651 46.8113C129.178 46.8113 130.468 47.3201 131.523 48.3376C132.577 49.3552 133.104 50.8521 133.104 52.8282C133.104 54.738 132.64 56.316 131.711 57.5621C130.782 58.8083 129.34 59.4314 127.386 59.4314C125.756 59.4314 124.462 58.882 123.504 57.7833C122.545 56.6773 122.066 55.1952 122.066 53.337C122.066 51.3461 122.571 49.7608 123.581 48.581C124.591 47.4012 125.948 46.8113 127.651 46.8113ZM136.666 55.2837C136.725 55.9473 136.891 56.4561 137.164 56.81C137.665 57.4515 138.535 57.7723 139.774 57.7723C140.511 57.7723 141.16 57.6137 141.721 57.2967C142.281 56.9722 142.561 56.4745 142.561 55.8035C142.561 55.2947 142.336 54.9076 141.886 54.6421C141.599 54.4799 141.031 54.2919 140.183 54.0781L138.601 53.6799C137.591 53.4292 136.846 53.149 136.367 52.8393C135.512 52.301 135.084 51.5563 135.084 50.605C135.084 49.4842 135.486 48.5773 136.29 47.8842C137.101 47.191 138.189 46.8445 139.553 46.8445C141.337 46.8445 142.624 47.368 143.413 48.4151C143.907 49.0787 144.146 49.7939 144.132 50.5608H142.251C142.215 50.111 142.056 49.7018 141.776 49.3331C141.319 48.8095 140.526 48.5478 139.398 48.5478C138.646 48.5478 138.074 48.6916 137.683 48.9791C137.3 49.2667 137.108 49.6465 137.108 50.1184C137.108 50.6345 137.363 51.0475 137.871 51.3572C138.166 51.5415 138.601 51.7037 139.177 51.8438L140.493 52.1646C141.923 52.5111 142.882 52.8466 143.369 53.1711C144.143 53.6799 144.53 54.4799 144.53 55.5712C144.53 56.6257 144.128 57.5363 143.324 58.3032C142.528 59.0701 141.311 59.4535 139.674 59.4535C137.912 59.4535 136.662 59.0553 135.925 58.2589C135.195 57.4552 134.804 56.4634 134.752 55.2837H136.666ZM155.048 54.1555C155.048 55.527 154.846 56.5925 154.44 57.352C153.688 58.7382 152.258 59.4314 150.149 59.4314C148.932 59.4314 147.892 59.1032 147.03 58.447C146.167 57.7833 145.735 56.6072 145.735 54.9187V53.7573H147.804V54.9187C147.804 55.8035 147.999 56.4708 148.39 56.9206C148.788 57.363 149.404 57.5842 150.237 57.5842C151.41 57.5842 152.176 57.1824 152.538 56.3787C152.759 55.8846 152.87 54.9518 152.87 53.5803V42.7521H155.048V54.1555ZM160.125 47.1542V55.0182C160.125 55.6228 160.221 56.1169 160.413 56.5003C160.767 57.2082 161.427 57.5621 162.393 57.5621C163.779 57.5621 164.723 56.9427 165.224 55.704C165.497 55.0403 165.633 54.1297 165.633 52.972V47.1542H167.624V59H165.744L165.766 57.2524C165.508 57.7022 165.187 58.082 164.804 58.3917C164.044 59.0111 163.123 59.3208 162.039 59.3208C160.35 59.3208 159.2 58.7567 158.588 57.6285C158.256 57.0238 158.09 56.2164 158.09 55.2062V47.1542H160.125ZM175.676 46.8887C176.517 46.8887 177.332 47.0878 178.121 47.486C178.91 47.8768 179.511 48.3856 179.924 49.0123C180.322 49.6096 180.587 50.3064 180.72 51.1028C180.838 51.6484 180.897 52.5185 180.897 53.7131H172.214C172.251 54.915 172.535 55.8809 173.066 56.6109C173.597 57.3335 174.419 57.6949 175.533 57.6949C176.572 57.6949 177.402 57.352 178.021 56.6662C178.375 56.268 178.626 55.8072 178.773 55.2837H180.731C180.679 55.7187 180.506 56.2054 180.211 56.7436C179.924 57.2746 179.599 57.7096 179.238 58.0488C178.633 58.6387 177.885 59.0369 176.993 59.2433C176.513 59.3613 175.971 59.4203 175.367 59.4203C173.892 59.4203 172.642 58.8857 171.617 57.8165C170.592 56.74 170.08 55.2357 170.08 53.3038C170.08 51.4014 170.596 49.8566 171.628 48.6694C172.661 47.4823 174.01 46.8887 175.676 46.8887ZM178.851 52.1314C178.77 51.2687 178.582 50.5792 178.287 50.0631C177.741 49.1045 176.83 48.6252 175.555 48.6252C174.64 48.6252 173.874 48.957 173.254 49.6207C172.635 50.2769 172.307 51.1138 172.27 52.1314H178.851ZM187.533 46.944C188.462 46.944 189.273 47.1726 189.967 47.6298C190.343 47.8878 190.726 48.2639 191.117 48.7579V47.2648H192.953V58.0377C192.953 59.542 192.732 60.7291 192.289 61.5992C191.463 63.2067 189.904 64.0104 187.611 64.0104C186.335 64.0104 185.262 63.7229 184.392 63.1477C183.522 62.5799 183.035 61.6877 182.932 60.4711H184.956C185.052 61.002 185.244 61.4112 185.531 61.6988C185.981 62.1412 186.689 62.3624 187.655 62.3624C189.181 62.3624 190.18 61.8241 190.652 60.7476C190.933 60.1134 191.062 58.9816 191.039 57.352C190.641 57.9566 190.162 58.4064 189.602 58.7014C189.041 58.9963 188.3 59.1438 187.378 59.1438C186.095 59.1438 184.971 58.6903 184.005 57.7833C183.046 56.869 182.567 55.3611 182.567 53.2596C182.567 51.2761 183.05 49.7276 184.016 48.6141C184.989 47.5007 186.162 46.944 187.533 46.944ZM191.117 53.0273C191.117 51.5599 190.815 50.4723 190.21 49.7644C189.605 49.0566 188.835 48.7026 187.898 48.7026C186.497 48.7026 185.539 49.3589 185.023 50.6714C184.75 51.3719 184.613 52.2899 184.613 53.4255C184.613 54.7601 184.882 55.7777 185.421 56.4782C185.966 57.1713 186.696 57.5179 187.611 57.5179C189.041 57.5179 190.048 56.8727 190.63 55.5823C190.955 54.8523 191.117 54.0006 191.117 53.0273ZM200.662 57.717C201.982 57.717 202.885 57.2193 203.372 56.2238C203.866 55.221 204.113 54.1076 204.113 52.8835C204.113 51.7775 203.936 50.8779 203.582 50.1847C203.022 49.0934 202.056 48.5478 200.684 48.5478C199.468 48.5478 198.583 49.0123 198.03 49.9414C197.477 50.8705 197.2 51.9913 197.2 53.3038C197.2 54.5647 197.477 55.6155 198.03 56.4561C198.583 57.2967 199.46 57.717 200.662 57.717ZM200.74 46.8113C202.266 46.8113 203.556 47.3201 204.611 48.3376C205.665 49.3552 206.192 50.8521 206.192 52.8282C206.192 54.738 205.728 56.316 204.799 57.5621C203.87 58.8083 202.428 59.4314 200.474 59.4314C198.845 59.4314 197.55 58.882 196.592 57.7833C195.633 56.6773 195.154 55.1952 195.154 53.337C195.154 51.3461 195.659 49.7608 196.669 48.581C197.679 47.4012 199.036 46.8113 200.74 46.8113ZM209.754 55.2837C209.813 55.9473 209.979 56.4561 210.252 56.81C210.753 57.4515 211.623 57.7723 212.862 57.7723C213.599 57.7723 214.248 57.6137 214.809 57.2967C215.369 56.9722 215.649 56.4745 215.649 55.8035C215.649 55.2947 215.424 54.9076 214.975 54.6421C214.687 54.4799 214.119 54.2919 213.271 54.0781L211.69 53.6799C210.679 53.4292 209.935 53.149 209.455 52.8393C208.6 52.301 208.172 51.5563 208.172 50.605C208.172 49.4842 208.574 48.5773 209.378 47.8842C210.189 47.191 211.277 46.8445 212.641 46.8445C214.425 46.8445 215.712 47.368 216.501 48.4151C216.995 49.0787 217.235 49.7939 217.22 50.5608H215.34C215.303 50.111 215.144 49.7018 214.864 49.3331C214.407 48.8095 213.614 48.5478 212.486 48.5478C211.734 48.5478 211.162 48.6916 210.771 48.9791C210.388 49.2667 210.196 49.6465 210.196 50.1184C210.196 50.6345 210.451 51.0475 210.96 51.3572C211.254 51.5415 211.69 51.7037 212.265 51.8438L213.581 52.1646C215.011 52.5111 215.97 52.8466 216.457 53.1711C217.231 53.6799 217.618 54.4799 217.618 55.5712C217.618 56.6257 217.216 57.5363 216.412 58.3032C215.616 59.0701 214.399 59.4535 212.762 59.4535C211 59.4535 209.75 59.0553 209.013 58.2589C208.283 57.4552 207.892 56.4634 207.84 55.2837H209.754ZM220.372 56.5888H222.684V59H220.372V56.5888ZM230.769 46.8113C232.104 46.8113 233.188 47.1357 234.021 47.7846C234.861 48.4335 235.366 49.5506 235.536 51.136H233.6C233.482 50.406 233.213 49.8013 232.793 49.322C232.373 48.8354 231.698 48.592 230.769 48.592C229.501 48.592 228.594 49.2114 228.048 50.4502C227.694 51.2539 227.517 52.2457 227.517 53.4255C227.517 54.6126 227.768 55.6118 228.269 56.4229C228.771 57.234 229.56 57.6396 230.636 57.6396C231.462 57.6396 232.115 57.3888 232.594 56.8874C233.081 56.3787 233.416 55.6855 233.6 54.8081H235.536C235.315 56.3787 234.762 57.5289 233.877 58.2589C232.992 58.9816 231.86 59.3429 230.481 59.3429C228.933 59.3429 227.698 58.7788 226.776 57.6506C225.854 56.5151 225.394 55.0993 225.394 53.4034C225.394 51.324 225.899 49.7055 226.909 48.5478C227.919 47.3901 229.206 46.8113 230.769 46.8113ZM242.228 57.717C243.548 57.717 244.451 57.2193 244.938 56.2238C245.432 55.221 245.679 54.1076 245.679 52.8835C245.679 51.7775 245.502 50.8779 245.148 50.1847C244.587 49.0934 243.621 48.5478 242.25 48.5478C241.033 48.5478 240.148 49.0123 239.595 49.9414C239.042 50.8705 238.766 51.9913 238.766 53.3038C238.766 54.5647 239.042 55.6155 239.595 56.4561C240.148 57.2967 241.026 57.717 242.228 57.717ZM242.305 46.8113C243.831 46.8113 245.122 47.3201 246.176 48.3376C247.231 49.3552 247.758 50.8521 247.758 52.8282C247.758 54.738 247.293 56.316 246.364 57.5621C245.435 58.8083 243.994 59.4314 242.04 59.4314C240.41 59.4314 239.116 58.882 238.157 57.7833C237.199 56.6773 236.72 55.1952 236.72 53.337C236.72 51.3461 237.225 49.7608 238.235 48.581C239.245 47.4012 240.602 46.8113 242.305 46.8113ZM250.136 47.1542H252.105V48.8354C252.577 48.2528 253.004 47.8288 253.388 47.5634C254.044 47.1136 254.789 46.8887 255.622 46.8887C256.566 46.8887 257.325 47.121 257.9 47.5855C258.225 47.851 258.52 48.2418 258.785 48.7579C259.228 48.1238 259.748 47.6556 260.345 47.3532C260.942 47.0435 261.613 46.8887 262.358 46.8887C263.951 46.8887 265.035 47.4638 265.61 48.6141C265.919 49.2335 266.074 50.0668 266.074 51.1138V59H264.006V50.771C264.006 49.982 263.807 49.44 263.409 49.1451C263.018 48.8501 262.539 48.7026 261.971 48.7026C261.189 48.7026 260.514 48.9644 259.947 49.4879C259.386 50.0115 259.106 50.8852 259.106 52.1093V59H257.082V51.2687C257.082 50.4649 256.986 49.8787 256.794 49.5101C256.492 48.957 255.928 48.6805 255.102 48.6805C254.35 48.6805 253.664 48.9718 253.045 49.5543C252.433 50.1368 252.127 51.1913 252.127 52.7176V59H250.136V47.1542Z" fill="white"/>
</svg>
