<svg width="256" height="66" viewBox="0 0 256 66" fill="none" xmlns="http://www.w3.org/2000/svg">
<g clip-path="url(#clip0_901_2009)">
<path d="M46.3636 0H3.63636C1.628 0 0 1.5638 0 3.49296V58.507C0 60.4362 1.628 62 3.63636 62H46.3636C48.372 62 50 60.4362 50 58.507V3.49296C50 1.5638 48.372 0 46.3636 0ZM7.09091 7.85915C7.09091 7.08756 7.74218 6.46197 8.54545 6.46197H41.6364C42.4396 6.46197 43.0909 7.08756 43.0909 7.85915V29.5155C43.0909 30.2873 42.4396 30.9127 41.6364 30.9127H8.54545C7.74218 30.9127 7.09091 30.2873 7.09091 29.5155V7.85915ZM24.3636 45.9429C24.3636 47.0926 23.3956 48.0282 22.206 48.0282H18.9202C18.52 48.0282 18.1818 48.3528 18.1818 48.7372V51.8935C18.1818 53.0364 17.208 53.966 16.0111 53.966H14.9376C13.7189 53.966 12.7273 53.0364 12.7273 51.8935V48.7372C12.7273 48.3462 12.4138 48.0282 12.0285 48.0282H8.52127C7.33164 48.0282 6.36364 47.0928 6.36364 45.9429V44.9118C6.36364 43.7411 7.33164 42.7887 8.52127 42.7887H12.0285C12.4269 42.7887 12.7273 42.5002 12.7273 42.1174V38.7486C12.7273 37.6057 13.7189 36.6761 14.9376 36.6761H16.0111C17.208 36.6761 18.1818 37.6057 18.1818 38.7486V42.1174C18.1818 42.4875 18.5131 42.7887 18.9202 42.7887H22.206C23.3958 42.7887 24.3636 43.7411 24.3636 44.9118V45.9429ZM30.5287 41.0489C30.5287 38.9584 32.2991 37.2578 34.4753 37.2578C36.6515 37.2578 38.4218 38.9584 38.4218 41.0489C38.4218 43.1392 36.6515 44.8398 34.4753 44.8398C32.2991 44.8398 30.5287 43.1392 30.5287 41.0489ZM40.4753 53.7468C38.2991 53.7468 36.5287 52.0463 36.5287 49.9559C36.5287 47.8654 38.2991 46.1648 40.4753 46.1648C42.6515 46.1648 44.422 47.8654 44.422 49.9559C44.422 52.0463 42.6515 53.7468 40.4753 53.7468Z" fill="#101734"/>
</g>
<path d="M79.9597 44.7698V61H78.0343V49.0737C78.0343 48.9152 78.0381 48.7453 78.0456 48.5641C78.0607 48.3828 78.0758 48.1978 78.0909 48.0091L72.5185 58.1572C72.3449 58.497 72.0806 58.6668 71.7257 58.6668H71.4086C71.0537 58.6668 70.7894 58.497 70.6158 58.1572L64.9301 47.9638C64.9754 48.364 64.9981 48.7339 64.9981 49.0737V61H63.0727V44.7698H64.6923C64.8886 44.7698 65.0396 44.7887 65.1453 44.8265C65.251 44.8642 65.353 44.9699 65.4511 45.1436L71.0575 55.1331C71.1481 55.3143 71.2349 55.5031 71.318 55.6994C71.4086 55.8957 71.4917 56.0958 71.5672 56.2997C71.6427 56.0958 71.7219 55.8957 71.805 55.6994C71.8881 55.4956 71.9787 55.303 72.0768 55.1218L77.5813 45.1436C77.6719 44.9699 77.77 44.8642 77.8757 44.8265C77.989 44.7887 78.1438 44.7698 78.3401 44.7698H79.9597ZM92.8696 49.5268V61H91.669C91.3821 61 91.2009 60.8603 91.1254 60.5809L90.9668 59.3464C90.4685 59.8976 89.9097 60.3431 89.2906 60.6829C88.6714 61.0151 87.9617 61.1812 87.1613 61.1812C86.5346 61.1812 85.9796 61.0793 85.4964 60.8754C85.0207 60.664 84.6205 60.3695 84.2958 59.992C83.9711 59.6145 83.7257 59.1576 83.5596 58.6215C83.4011 58.0854 83.3218 57.4927 83.3218 56.8434V49.5268H85.3378V56.8434C85.3378 57.7117 85.5341 58.3837 85.9268 58.8594C86.3269 59.3351 86.9348 59.5729 87.7502 59.5729C88.3467 59.5729 88.9017 59.4332 89.4152 59.1539C89.9362 58.8669 90.4156 58.4743 90.8536 57.976V49.5268H92.8696ZM104.051 51.5654C103.991 51.6485 103.93 51.7127 103.87 51.758C103.809 51.8033 103.726 51.8259 103.621 51.8259C103.507 51.8259 103.383 51.7806 103.247 51.69C103.111 51.5919 102.941 51.4862 102.737 51.3729C102.541 51.2596 102.295 51.1577 102.001 51.0671C101.714 50.9689 101.359 50.9199 100.936 50.9199C100.37 50.9199 99.8717 51.0218 99.4413 51.2257C99.0109 51.422 98.6485 51.7089 98.354 52.0864C98.0671 52.464 97.8481 52.9208 97.6971 53.4569C97.5537 53.993 97.4819 54.5933 97.4819 55.2577C97.4819 55.9524 97.5612 56.5715 97.7198 57.1152C97.8783 57.6513 98.1011 58.1043 98.388 58.4743C98.6825 58.8367 99.0336 59.1161 99.4413 59.3124C99.8566 59.5012 100.321 59.5956 100.834 59.5956C101.325 59.5956 101.729 59.5389 102.046 59.4257C102.363 59.3049 102.624 59.1727 102.828 59.0293C103.039 58.8858 103.213 58.7575 103.349 58.6442C103.492 58.5234 103.632 58.463 103.768 58.463C103.934 58.463 104.062 58.5272 104.153 58.6555L104.719 59.3917C104.47 59.7013 104.187 59.9656 103.87 60.1845C103.553 60.4035 103.209 60.5885 102.839 60.7395C102.477 60.883 102.095 60.9887 101.695 61.0566C101.295 61.1246 100.887 61.1586 100.472 61.1586C99.7547 61.1586 99.0864 61.0264 98.4673 60.7622C97.8557 60.4979 97.3234 60.1166 96.8703 59.6182C96.4173 59.1123 96.0624 58.4932 95.8057 57.7608C95.549 57.0283 95.4206 56.194 95.4206 55.2577C95.4206 54.4045 95.5376 53.6154 95.7717 52.8906C96.0133 52.1657 96.3607 51.5428 96.8137 51.0218C97.2743 50.4932 97.8368 50.0817 98.5013 49.7873C99.1733 49.4928 99.9434 49.3455 100.812 49.3455C101.62 49.3455 102.329 49.4777 102.941 49.742C103.56 49.9987 104.108 50.3649 104.583 50.8406L104.051 51.5654ZM108.911 51.0558C109.402 50.5348 109.945 50.1195 110.542 49.8099C111.138 49.5003 111.825 49.3455 112.603 49.3455C113.23 49.3455 113.781 49.4513 114.257 49.6627C114.74 49.8665 115.14 50.161 115.457 50.5461C115.782 50.9236 116.027 51.3805 116.193 51.9165C116.359 52.4526 116.443 53.0454 116.443 53.6947V61H114.415V53.6947C114.415 52.8264 114.215 52.1544 113.815 51.6787C113.422 51.1955 112.822 50.9538 112.014 50.9538C111.418 50.9538 110.859 51.0973 110.338 51.3842C109.824 51.6712 109.349 52.06 108.911 52.5508V61H106.883V44.3168H108.911V51.0558ZM124.351 49.3455C125.189 49.3455 125.944 49.4852 126.616 49.7646C127.288 50.044 127.862 50.4404 128.337 50.9538C128.813 51.4673 129.176 52.0902 129.425 52.8226C129.682 53.5475 129.81 54.3592 129.81 55.2577C129.81 56.1638 129.682 56.9793 129.425 57.7041C129.176 58.429 128.813 59.0482 128.337 59.5616C127.862 60.075 127.288 60.4715 126.616 60.7508C125.944 61.0227 125.189 61.1586 124.351 61.1586C123.505 61.1586 122.742 61.0227 122.063 60.7508C121.391 60.4715 120.817 60.075 120.341 59.5616C119.866 59.0482 119.499 58.429 119.243 57.7041C118.994 56.9793 118.869 56.1638 118.869 55.2577C118.869 54.3592 118.994 53.5475 119.243 52.8226C119.499 52.0902 119.866 51.4673 120.341 50.9538C120.817 50.4404 121.391 50.044 122.063 49.7646C122.742 49.4852 123.505 49.3455 124.351 49.3455ZM124.351 59.5842C125.483 59.5842 126.329 59.2067 126.888 58.4516C127.447 57.689 127.726 56.6282 127.726 55.269C127.726 53.9024 127.447 52.8377 126.888 52.0751C126.329 51.3125 125.483 50.9312 124.351 50.9312C123.777 50.9312 123.275 51.0293 122.844 51.2257C122.422 51.422 122.067 51.7051 121.78 52.0751C121.5 52.4451 121.289 52.9019 121.145 53.4456C121.01 53.9817 120.942 54.5895 120.942 55.269C120.942 56.6282 121.221 57.689 121.78 58.4516C122.346 59.2067 123.203 59.5842 124.351 59.5842ZM139.049 51.4182C138.959 51.5843 138.819 51.6674 138.63 51.6674C138.517 51.6674 138.389 51.6258 138.245 51.5428C138.102 51.4597 137.924 51.3691 137.713 51.271C137.509 51.1653 137.264 51.0709 136.977 50.9878C136.69 50.8972 136.35 50.8519 135.957 50.8519C135.617 50.8519 135.312 50.8972 135.04 50.9878C134.768 51.0709 134.534 51.1879 134.338 51.3389C134.149 51.4899 134.002 51.6674 133.896 51.8712C133.798 52.0676 133.749 52.2828 133.749 52.5168C133.749 52.8113 133.832 53.0567 133.998 53.253C134.172 53.4493 134.398 53.6192 134.677 53.7627C134.957 53.9061 135.274 54.0345 135.629 54.1478C135.984 54.2535 136.346 54.3705 136.716 54.4989C137.094 54.6197 137.46 54.7556 137.815 54.9066C138.17 55.0576 138.487 55.2464 138.766 55.4729C139.045 55.6994 139.268 55.9788 139.434 56.311C139.608 56.6357 139.695 57.0283 139.695 57.4889C139.695 58.0175 139.6 58.5083 139.412 58.9613C139.223 59.4068 138.944 59.7957 138.574 60.1279C138.204 60.4526 137.751 60.7093 137.214 60.8981C136.678 61.0868 136.059 61.1812 135.357 61.1812C134.557 61.1812 133.832 61.0529 133.182 60.7961C132.533 60.5319 131.982 60.1959 131.529 59.7881L132.004 59.0179C132.065 58.9198 132.137 58.8443 132.22 58.7914C132.303 58.7386 132.408 58.7121 132.537 58.7121C132.673 58.7121 132.816 58.765 132.967 58.8707C133.118 58.9764 133.299 59.0935 133.511 59.2218C133.73 59.3502 133.994 59.4672 134.304 59.5729C134.613 59.6786 134.998 59.7315 135.459 59.7315C135.852 59.7315 136.195 59.6824 136.49 59.5842C136.784 59.4785 137.029 59.3389 137.226 59.1652C137.422 58.9915 137.566 58.7914 137.656 58.5649C137.754 58.3384 137.803 58.0968 137.803 57.84C137.803 57.5229 137.717 57.2624 137.543 57.0586C137.377 56.8471 137.154 56.6697 136.875 56.5262C136.595 56.3752 136.274 56.2469 135.912 56.1411C135.557 56.0279 135.191 55.9109 134.813 55.79C134.443 55.6692 134.077 55.5333 133.715 55.3823C133.36 55.2237 133.043 55.0274 132.763 54.7934C132.484 54.5593 132.257 54.2724 132.084 53.9326C131.918 53.5852 131.835 53.1662 131.835 52.6754C131.835 52.2375 131.925 51.8184 132.106 51.4182C132.288 51.0105 132.552 50.6556 132.899 50.3536C133.247 50.044 133.673 49.7986 134.179 49.6174C134.685 49.4362 135.263 49.3455 135.912 49.3455C136.667 49.3455 137.343 49.4664 137.939 49.708C138.543 49.942 139.064 50.2667 139.502 50.682L139.049 51.4182ZM148.105 55.3936C148.105 56.2997 147.991 57.1114 147.765 57.8287C147.546 58.546 147.217 59.1539 146.779 59.6522C146.349 60.143 145.817 60.5205 145.182 60.7848C144.548 61.0491 143.82 61.1812 142.997 61.1812C142.249 61.1812 141.486 61.0755 140.709 60.8641C140.724 60.6451 140.743 60.4299 140.765 60.2185C140.788 59.9995 140.807 59.7843 140.822 59.5729C140.837 59.4446 140.882 59.3426 140.958 59.2671C141.041 59.1841 141.165 59.1425 141.332 59.1425C141.468 59.1425 141.645 59.1765 141.864 59.2445C142.09 59.3124 142.392 59.3464 142.77 59.3464C143.268 59.3464 143.714 59.2709 144.106 59.1199C144.499 58.9689 144.828 58.7348 145.092 58.4177C145.356 58.1005 145.556 57.6966 145.692 57.2058C145.836 56.7074 145.907 56.1185 145.907 55.4389V44.7698H148.105V55.3936ZM160.737 49.5268V61H159.537C159.25 61 159.068 60.8603 158.993 60.5809L158.834 59.3464C158.336 59.8976 157.777 60.3431 157.158 60.6829C156.539 61.0151 155.829 61.1812 155.029 61.1812C154.402 61.1812 153.847 61.0793 153.364 60.8754C152.888 60.664 152.488 60.3695 152.163 59.992C151.839 59.6145 151.593 59.1576 151.427 58.6215C151.269 58.0854 151.189 57.4927 151.189 56.8434V49.5268H153.205V56.8434C153.205 57.7117 153.402 58.3837 153.794 58.8594C154.194 59.3351 154.802 59.5729 155.618 59.5729C156.214 59.5729 156.769 59.4332 157.283 59.1539C157.804 58.8669 158.283 58.4743 158.721 57.976V49.5268H160.737ZM171.613 54.0119C171.613 53.5437 171.545 53.1171 171.409 52.732C171.28 52.3394 171.088 52.0034 170.831 51.724C170.582 51.4371 170.276 51.2181 169.914 51.0671C169.551 50.9085 169.14 50.8293 168.679 50.8293C167.713 50.8293 166.946 51.1124 166.38 51.6787C165.821 52.2375 165.474 53.0152 165.338 54.0119H171.613ZM173.244 59.3917C172.994 59.6937 172.696 59.958 172.349 60.1845C172.002 60.4035 171.628 60.5847 171.228 60.7282C170.835 60.8716 170.427 60.9773 170.004 61.0453C169.582 61.1208 169.163 61.1586 168.747 61.1586C167.954 61.1586 167.222 61.0264 166.55 60.7622C165.886 60.4903 165.308 60.0977 164.817 59.5842C164.334 59.0633 163.956 58.4214 163.685 57.6588C163.413 56.8962 163.277 56.0203 163.277 55.0312C163.277 54.2308 163.398 53.4833 163.639 52.7886C163.888 52.094 164.243 51.4937 164.704 50.9878C165.164 50.4744 165.727 50.0742 166.391 49.7873C167.056 49.4928 167.803 49.3455 168.634 49.3455C169.321 49.3455 169.955 49.4626 170.537 49.6967C171.126 49.9232 171.632 50.2554 172.054 50.6933C172.485 51.1237 172.821 51.6598 173.062 52.3016C173.304 52.9359 173.425 53.6608 173.425 54.4762C173.425 54.7934 173.391 55.0048 173.323 55.1105C173.255 55.2162 173.127 55.269 172.938 55.269H165.27C165.293 55.9939 165.391 56.6244 165.565 57.1605C165.746 57.6966 165.995 58.1458 166.312 58.5083C166.629 58.8632 167.007 59.1312 167.445 59.3124C167.883 59.4861 168.373 59.5729 168.917 59.5729C169.423 59.5729 169.857 59.5163 170.22 59.403C170.59 59.2822 170.907 59.1539 171.171 59.0179C171.435 58.882 171.654 58.7575 171.828 58.6442C172.009 58.5234 172.164 58.463 172.292 58.463C172.458 58.463 172.587 58.5272 172.677 58.6555L173.244 59.3917ZM179.899 55.3936C180.307 55.3936 180.666 55.337 180.975 55.2237C181.285 55.1105 181.545 54.9519 181.757 54.748C181.968 54.5442 182.127 54.3026 182.232 54.0232C182.338 53.7363 182.391 53.4229 182.391 53.0831C182.391 52.3809 182.176 51.8222 181.745 51.4069C181.323 50.9916 180.707 50.7839 179.899 50.7839C179.084 50.7839 178.461 50.9916 178.03 51.4069C177.608 51.8222 177.396 52.3809 177.396 53.0831C177.396 53.4229 177.449 53.7363 177.555 54.0232C177.668 54.3026 177.83 54.5442 178.042 54.748C178.253 54.9519 178.514 55.1105 178.823 55.2237C179.133 55.337 179.492 55.3936 179.899 55.3936ZM183.535 61.6229C183.535 61.3436 183.456 61.117 183.297 60.9434C183.139 60.7697 182.923 60.6338 182.652 60.5356C182.387 60.4375 182.078 60.3695 181.723 60.3318C181.368 60.2865 180.99 60.2525 180.59 60.2298C180.198 60.2072 179.797 60.1845 179.39 60.1619C178.982 60.1392 178.589 60.1015 178.212 60.0486C177.789 60.2449 177.442 60.4941 177.17 60.7961C176.905 61.0906 176.773 61.4379 176.773 61.8381C176.773 62.0948 176.837 62.3327 176.966 62.5517C177.102 62.7782 177.306 62.9707 177.577 63.1293C177.849 63.2954 178.189 63.4238 178.597 63.5144C179.012 63.6125 179.499 63.6616 180.058 63.6616C180.602 63.6616 181.089 63.6125 181.519 63.5144C181.949 63.4162 182.312 63.2765 182.606 63.0953C182.908 62.9141 183.139 62.6989 183.297 62.4497C183.456 62.2006 183.535 61.925 183.535 61.6229ZM185.585 49.9798V50.7273C185.585 50.9765 185.426 51.1351 185.109 51.203L183.807 51.3729C184.063 51.8712 184.192 52.4224 184.192 53.0265C184.192 53.5852 184.082 54.0949 183.863 54.5555C183.652 55.0085 183.357 55.3974 182.98 55.7221C182.602 56.0468 182.149 56.2959 181.621 56.4696C181.092 56.6433 180.518 56.7301 179.899 56.7301C179.363 56.7301 178.857 56.6659 178.382 56.5376C178.14 56.6886 177.955 56.8509 177.827 57.0246C177.698 57.1907 177.634 57.3606 177.634 57.5342C177.634 57.8061 177.744 58.0137 177.963 58.1572C178.189 58.2931 178.484 58.3912 178.846 58.4516C179.208 58.5121 179.62 58.5498 180.081 58.5649C180.549 58.58 181.024 58.6064 181.508 58.6442C181.998 58.6744 182.474 58.731 182.935 58.8141C183.403 58.8971 183.818 59.0331 184.181 59.2218C184.543 59.4106 184.834 59.6711 185.053 60.0033C185.279 60.3355 185.392 60.7659 185.392 61.2945C185.392 61.7853 185.268 62.261 185.019 62.7216C184.777 63.1821 184.426 63.5899 183.965 63.9448C183.505 64.3072 182.938 64.5941 182.266 64.8055C181.602 65.0245 180.851 65.134 180.013 65.134C179.174 65.134 178.442 65.0509 177.815 64.8848C177.189 64.7187 176.668 64.496 176.252 64.2166C175.837 63.9372 175.524 63.6125 175.312 63.2425C175.108 62.8801 175.006 62.4988 175.006 62.0986C175.006 61.5323 175.184 61.0529 175.539 60.6602C175.894 60.2676 176.381 59.9542 177 59.7202C176.66 59.5691 176.388 59.3691 176.184 59.1199C175.988 58.8632 175.89 58.5196 175.89 58.0892C175.89 57.9231 175.92 57.7532 175.98 57.5795C176.041 57.3983 176.132 57.2209 176.252 57.0472C176.381 56.866 176.535 56.6961 176.717 56.5376C176.898 56.379 177.109 56.2393 177.351 56.1185C176.785 55.8014 176.343 55.3823 176.026 54.8613C175.709 54.3328 175.55 53.7212 175.55 53.0265C175.55 52.4677 175.656 51.9619 175.867 51.5088C176.086 51.0482 176.388 50.6594 176.773 50.3422C177.158 50.0176 177.615 49.7684 178.144 49.5947C178.68 49.4211 179.265 49.3342 179.899 49.3342C180.398 49.3342 180.862 49.3908 181.292 49.5041C181.723 49.6098 182.115 49.7684 182.47 49.9798H185.585ZM192.329 49.3455C193.167 49.3455 193.922 49.4852 194.594 49.7646C195.266 50.044 195.84 50.4404 196.316 50.9538C196.791 51.4673 197.154 52.0902 197.403 52.8226C197.66 53.5475 197.788 54.3592 197.788 55.2577C197.788 56.1638 197.66 56.9793 197.403 57.7041C197.154 58.429 196.791 59.0482 196.316 59.5616C195.84 60.075 195.266 60.4715 194.594 60.7508C193.922 61.0227 193.167 61.1586 192.329 61.1586C191.483 61.1586 190.721 61.0227 190.041 60.7508C189.369 60.4715 188.795 60.075 188.319 59.5616C187.844 59.0482 187.478 58.429 187.221 57.7041C186.972 56.9793 186.847 56.1638 186.847 55.2577C186.847 54.3592 186.972 53.5475 187.221 52.8226C187.478 52.0902 187.844 51.4673 188.319 50.9538C188.795 50.4404 189.369 50.044 190.041 49.7646C190.721 49.4852 191.483 49.3455 192.329 49.3455ZM192.329 59.5842C193.461 59.5842 194.307 59.2067 194.866 58.4516C195.425 57.689 195.704 56.6282 195.704 55.269C195.704 53.9024 195.425 52.8377 194.866 52.0751C194.307 51.3125 193.461 50.9312 192.329 50.9312C191.755 50.9312 191.253 51.0293 190.823 51.2257C190.4 51.422 190.045 51.7051 189.758 52.0751C189.478 52.4451 189.267 52.9019 189.124 53.4456C188.988 53.9817 188.92 54.5895 188.92 55.269C188.92 56.6282 189.199 57.689 189.758 58.4516C190.324 59.2067 191.181 59.5842 192.329 59.5842ZM207.027 51.4182C206.937 51.5843 206.797 51.6674 206.608 51.6674C206.495 51.6674 206.367 51.6258 206.223 51.5428C206.08 51.4597 205.902 51.3691 205.691 51.271C205.487 51.1653 205.242 51.0709 204.955 50.9878C204.668 50.8972 204.328 50.8519 203.935 50.8519C203.596 50.8519 203.29 50.8972 203.018 50.9878C202.746 51.0709 202.512 51.1879 202.316 51.3389C202.127 51.4899 201.98 51.6674 201.874 51.8712C201.776 52.0676 201.727 52.2828 201.727 52.5168C201.727 52.8113 201.81 53.0567 201.976 53.253C202.15 53.4493 202.376 53.6192 202.656 53.7627C202.935 53.9061 203.252 54.0345 203.607 54.1478C203.962 54.2535 204.324 54.3705 204.694 54.4989C205.072 54.6197 205.438 54.7556 205.793 54.9066C206.148 55.0576 206.465 55.2464 206.744 55.4729C207.024 55.6994 207.246 55.9788 207.412 56.311C207.586 56.6357 207.673 57.0283 207.673 57.4889C207.673 58.0175 207.579 58.5083 207.39 58.9613C207.201 59.4068 206.922 59.7957 206.552 60.1279C206.182 60.4526 205.729 60.7093 205.193 60.8981C204.656 61.0868 204.037 61.1812 203.335 61.1812C202.535 61.1812 201.81 61.0529 201.16 60.7961C200.511 60.5319 199.96 60.1959 199.507 59.7881L199.983 59.0179C200.043 58.9198 200.115 58.8443 200.198 58.7914C200.281 58.7386 200.387 58.7121 200.515 58.7121C200.651 58.7121 200.794 58.765 200.945 58.8707C201.096 58.9764 201.278 59.0935 201.489 59.2218C201.708 59.3502 201.972 59.4672 202.282 59.5729C202.591 59.6786 202.976 59.7315 203.437 59.7315C203.83 59.7315 204.173 59.6824 204.468 59.5842C204.762 59.4785 205.008 59.3389 205.204 59.1652C205.4 58.9915 205.544 58.7914 205.634 58.5649C205.732 58.3384 205.781 58.0968 205.781 57.84C205.781 57.5229 205.695 57.2624 205.521 57.0586C205.355 56.8471 205.132 56.6697 204.853 56.5262C204.573 56.3752 204.252 56.2469 203.89 56.1411C203.535 56.0279 203.169 55.9109 202.791 55.79C202.421 55.6692 202.055 55.5333 201.693 55.3823C201.338 55.2237 201.021 55.0274 200.741 54.7934C200.462 54.5593 200.236 54.2724 200.062 53.9326C199.896 53.5852 199.813 53.1662 199.813 52.6754C199.813 52.2375 199.903 51.8184 200.085 51.4182C200.266 51.0105 200.53 50.6556 200.877 50.3536C201.225 50.044 201.651 49.7986 202.157 49.6174C202.663 49.4362 203.241 49.3455 203.89 49.3455C204.645 49.3455 205.321 49.4664 205.917 49.708C206.521 49.942 207.042 50.2667 207.48 50.682L207.027 51.4182ZM209.805 59.7541C209.805 59.5578 209.839 59.3728 209.907 59.1992C209.982 59.0255 210.08 58.8745 210.201 58.7461C210.33 58.6178 210.481 58.5158 210.654 58.4403C210.828 58.3648 211.013 58.3271 211.209 58.3271C211.406 58.3271 211.591 58.3648 211.764 58.4403C211.938 58.5158 212.089 58.6178 212.217 58.7461C212.346 58.8745 212.448 59.0255 212.523 59.1992C212.599 59.3728 212.636 59.5578 212.636 59.7541C212.636 59.958 212.599 60.1468 212.523 60.3204C212.448 60.4866 212.346 60.6338 212.217 60.7622C212.089 60.8905 211.938 60.9887 211.764 61.0566C211.591 61.1321 211.406 61.1699 211.209 61.1699C211.013 61.1699 210.828 61.1321 210.654 61.0566C210.481 60.9887 210.33 60.8905 210.201 60.7622C210.08 60.6338 209.982 60.4866 209.907 60.3204C209.839 60.1468 209.805 59.958 209.805 59.7541ZM223.483 51.5654C223.422 51.6485 223.362 51.7127 223.302 51.758C223.241 51.8033 223.158 51.8259 223.052 51.8259C222.939 51.8259 222.815 51.7806 222.679 51.69C222.543 51.5919 222.373 51.4862 222.169 51.3729C221.973 51.2596 221.727 51.1577 221.433 51.0671C221.146 50.9689 220.791 50.9199 220.368 50.9199C219.802 50.9199 219.304 51.0218 218.873 51.2257C218.443 51.422 218.08 51.7089 217.786 52.0864C217.499 52.464 217.28 52.9208 217.129 53.4569C216.985 53.993 216.914 54.5933 216.914 55.2577C216.914 55.9524 216.993 56.5715 217.152 57.1152C217.31 57.6513 217.533 58.1043 217.82 58.4743C218.114 58.8367 218.465 59.1161 218.873 59.3124C219.288 59.5012 219.753 59.5956 220.266 59.5956C220.757 59.5956 221.161 59.5389 221.478 59.4257C221.795 59.3049 222.056 59.1727 222.26 59.0293C222.471 58.8858 222.645 58.7575 222.781 58.6442C222.924 58.5234 223.064 58.463 223.2 58.463C223.366 58.463 223.494 58.5272 223.585 58.6555L224.151 59.3917C223.902 59.7013 223.619 59.9656 223.302 60.1845C222.984 60.4035 222.641 60.5885 222.271 60.7395C221.908 60.883 221.527 60.9887 221.127 61.0566C220.727 61.1246 220.319 61.1586 219.904 61.1586C219.186 61.1586 218.518 61.0264 217.899 60.7622C217.287 60.4979 216.755 60.1166 216.302 59.6182C215.849 59.1123 215.494 58.4932 215.237 57.7608C214.981 57.0283 214.852 56.194 214.852 55.2577C214.852 54.4045 214.969 53.6154 215.203 52.8906C215.445 52.1657 215.792 51.5428 216.245 51.0218C216.706 50.4932 217.269 50.0817 217.933 49.7873C218.605 49.4928 219.375 49.3455 220.244 49.3455C221.051 49.3455 221.761 49.4777 222.373 49.742C222.992 49.9987 223.539 50.3649 224.015 50.8406L223.483 51.5654ZM230.952 49.3455C231.79 49.3455 232.545 49.4852 233.218 49.7646C233.89 50.044 234.463 50.4404 234.939 50.9538C235.415 51.4673 235.777 52.0902 236.026 52.8226C236.283 53.5475 236.411 54.3592 236.411 55.2577C236.411 56.1638 236.283 56.9793 236.026 57.7041C235.777 58.429 235.415 59.0482 234.939 59.5616C234.463 60.075 233.89 60.4715 233.218 60.7508C232.545 61.0227 231.79 61.1586 230.952 61.1586C230.107 61.1586 229.344 61.0227 228.664 60.7508C227.992 60.4715 227.419 60.075 226.943 59.5616C226.467 59.0482 226.101 58.429 225.844 57.7041C225.595 56.9793 225.471 56.1638 225.471 55.2577C225.471 54.3592 225.595 53.5475 225.844 52.8226C226.101 52.0902 226.467 51.4673 226.943 50.9538C227.419 50.4404 227.992 50.044 228.664 49.7646C229.344 49.4852 230.107 49.3455 230.952 49.3455ZM230.952 59.5842C232.085 59.5842 232.931 59.2067 233.489 58.4516C234.048 57.689 234.327 56.6282 234.327 55.269C234.327 53.9024 234.048 52.8377 233.489 52.0751C232.931 51.3125 232.085 50.9312 230.952 50.9312C230.378 50.9312 229.876 51.0293 229.446 51.2257C229.023 51.422 228.668 51.7051 228.381 52.0751C228.102 52.4451 227.891 52.9019 227.747 53.4456C227.611 53.9817 227.543 54.5895 227.543 55.269C227.543 56.6282 227.823 57.689 228.381 58.4516C228.948 59.2067 229.805 59.5842 230.952 59.5842ZM238.968 61V49.5268H240.18C240.467 49.5268 240.645 49.6664 240.713 49.9458L240.86 51.1237C241.283 50.6027 241.758 50.1761 242.287 49.8439C242.816 49.5117 243.427 49.3455 244.122 49.3455C244.892 49.3455 245.515 49.5607 245.991 49.9911C246.474 50.4215 246.821 51.0029 247.033 51.7353C247.199 51.32 247.41 50.9614 247.667 50.6594C247.931 50.3573 248.226 50.1082 248.55 49.9118C248.875 49.7155 249.218 49.5721 249.581 49.4815C249.951 49.3908 250.325 49.3455 250.702 49.3455C251.306 49.3455 251.842 49.4437 252.31 49.64C252.786 49.8288 253.186 50.1082 253.511 50.4781C253.843 50.8481 254.096 51.3049 254.27 51.8486C254.444 52.3847 254.53 53.0001 254.53 53.6947V61H252.503V53.6947C252.503 52.7962 252.307 52.1166 251.914 51.656C251.521 51.1879 250.955 50.9538 250.215 50.9538C249.883 50.9538 249.566 51.0142 249.264 51.1351C248.969 51.2483 248.709 51.4182 248.482 51.6447C248.256 51.8712 248.075 52.1582 247.939 52.5055C247.81 52.8453 247.746 53.2417 247.746 53.6947V61H245.719V53.6947C245.719 52.7735 245.534 52.0864 245.164 51.6334C244.794 51.1804 244.254 50.9538 243.544 50.9538C243.046 50.9538 242.585 51.0897 242.162 51.3616C241.74 51.6258 241.351 51.9883 240.996 52.4489V61H238.968Z" fill="#101734"/>
<defs>
<clipPath id="clip0_901_2009">
<rect width="50" height="62" fill="white"/>
</clipPath>
</defs>
</svg>
