<svg width="77" height="65" viewBox="0 0 77 65" fill="none" xmlns="http://www.w3.org/2000/svg">
<path d="M21.4908 63.6035H55.4941C60.066 63.6035 63.7807 60.4678 63.7807 56.6084V14.2822C63.7807 10.4229 60.066 7.28711 55.4941 7.28711H21.4908C16.9189 7.28711 13.2043 10.4229 13.2043 14.2822V56.6084C13.2043 60.4678 16.9189 63.6035 21.4908 63.6035ZM16.8889 14.2822C16.8889 12.1367 18.9492 10.3975 21.4908 10.3975H55.4941C58.0357 10.3975 60.0961 12.1367 60.0961 14.2822V56.6084C60.0961 58.7539 58.0357 60.4932 55.4941 60.4932H21.4908C18.9492 60.4932 16.8889 58.7539 16.8889 56.6084V14.2822Z" fill="black"/>
<path d="M22.3029 40.917H54.682C55.7047 40.917 56.5318 40.2188 56.5318 39.3555V16.25C56.5318 15.3867 55.7047 14.6885 54.682 14.6885H22.3029C21.2803 14.6885 20.4531 15.3867 20.4531 16.25V39.3555C20.4682 40.2188 21.2953 40.917 22.3029 40.917ZM24.1527 17.8242H52.8473V37.8193H24.1527V17.8242Z" fill="black"/>
<path d="M42.6959 52.9395C43.9335 52.9395 44.9367 52.0926 44.9367 51.0479C44.9367 50.0031 43.9335 49.1562 42.6959 49.1562C41.4583 49.1562 40.4551 50.0031 40.4551 51.0479C40.4551 52.0926 41.4583 52.9395 42.6959 52.9395Z" fill="black"/>
<path d="M51.8697 52.9395C53.1073 52.9395 54.1105 52.0926 54.1105 51.0479C54.1105 50.0031 53.1073 49.1562 51.8697 49.1562C50.6322 49.1562 49.6289 50.0031 49.6289 51.0479C49.6289 52.0926 50.6322 52.9395 51.8697 52.9395Z" fill="black"/>
<path d="M33.5371 49.499H30.7398V47.1377C30.7398 46.2744 29.9127 45.5762 28.89 45.5762C27.8674 45.5762 27.0402 46.2744 27.0402 47.1377V49.499H24.243C23.2203 49.499 22.3932 50.1973 22.3932 51.0605C22.3932 51.9238 23.2203 52.6221 24.243 52.6221H27.0402V54.9707C27.0402 55.834 27.8674 56.5322 28.89 56.5322C29.9127 56.5322 30.7398 55.834 30.7398 54.9707V52.6094H33.5371C34.5598 52.6094 35.3869 51.9111 35.3869 51.0479C35.3869 50.1973 34.5598 49.499 33.5371 49.499Z" fill="black"/>
<path d="M47.2828 56.8115C48.5204 56.8115 49.5236 55.9646 49.5236 54.9199C49.5236 53.8752 48.5204 53.0283 47.2828 53.0283C46.0452 53.0283 45.042 53.8752 45.042 54.9199C45.042 55.9646 46.0452 56.8115 47.2828 56.8115Z" fill="black"/>
<path d="M47.2828 49.0674C48.5204 49.0674 49.5236 48.2205 49.5236 47.1758C49.5236 46.1311 48.5204 45.2842 47.2828 45.2842C46.0452 45.2842 45.042 46.1311 45.042 47.1758C45.042 48.2205 46.0452 49.0674 47.2828 49.0674Z" fill="black"/>
<path d="M24.258 1.39648C23.2354 1.39648 22.4082 2.09473 22.4082 2.94531C22.4082 3.7959 23.2354 4.50684 24.258 4.50684H52.757C53.7797 4.50684 54.6068 3.80859 54.6068 2.94531C54.6068 2.08203 53.7647 1.39648 52.742 1.39648H24.258Z" fill="black"/>
</svg>
