<svg width="10" height="31" viewBox="0 0 10 31" fill="none" xmlns="http://www.w3.org/2000/svg">
<path d="M9.52905 25.6429C9.52905 28.1401 7.49738 30.1724 4.99938 30.1724C2.50241 30.1724 0.470947 28.1401 0.470947 25.6429C0.470947 23.1457 2.50241 21.1134 4.99938 21.1134C7.49738 21.1138 9.52905 23.1457 9.52905 25.6429Z" fill="white"/>
<path d="M9.52905 15.4465C9.52905 17.9437 7.49738 19.9751 4.99938 19.9751C2.50241 19.9751 0.470947 17.9436 0.470947 15.4465C0.470947 12.9493 2.50241 10.9173 4.99938 10.9173C7.49738 10.9173 9.52905 12.9493 9.52905 15.4465Z" fill="white"/>
<path d="M9.52905 4.70072C9.52905 7.1979 7.49738 9.22998 4.99938 9.22998C2.50241 9.22998 0.470947 7.1979 0.470947 4.70072C0.470947 2.20355 2.50241 0.172359 4.99938 0.172359C7.49738 0.172359 9.52905 2.20355 9.52905 4.70072Z" fill="white"/>
</svg>
