<svg width="316" height="240" viewBox="0 0 316 240" fill="none" xmlns="http://www.w3.org/2000/svg">
<g filter="url(#filter0_d_581_3875)">
<rect width="306" height="230" rx="10" fill="#7887C7"/>
<path d="M126.839 203.648C126.96 203.648 127.065 203.697 127.156 203.795L128.028 204.735C127.364 205.505 126.556 206.105 125.604 206.536C124.661 206.966 123.517 207.181 122.173 207.181C121.01 207.181 119.953 206.981 119.001 206.581C118.05 206.173 117.238 205.607 116.566 204.882C115.894 204.15 115.373 203.274 115.003 202.254C114.633 201.235 114.448 200.114 114.448 198.891C114.448 197.667 114.641 196.546 115.026 195.527C115.411 194.507 115.951 193.632 116.646 192.899C117.348 192.167 118.186 191.6 119.16 191.2C120.134 190.792 121.21 190.589 122.388 190.589C123.543 190.589 124.562 190.774 125.446 191.144C126.329 191.514 127.107 192.016 127.779 192.65L127.054 193.658C127.009 193.733 126.948 193.798 126.873 193.851C126.805 193.896 126.711 193.918 126.59 193.918C126.454 193.918 126.288 193.847 126.091 193.703C125.895 193.552 125.638 193.386 125.321 193.205C125.004 193.024 124.608 192.861 124.132 192.718C123.656 192.567 123.071 192.491 122.377 192.491C121.538 192.491 120.772 192.639 120.077 192.933C119.383 193.22 118.782 193.639 118.276 194.19C117.778 194.741 117.389 195.414 117.11 196.206C116.831 196.999 116.691 197.894 116.691 198.891C116.691 199.902 116.834 200.805 117.121 201.597C117.416 202.39 117.812 203.062 118.31 203.614C118.816 204.157 119.409 204.572 120.089 204.859C120.776 205.146 121.516 205.29 122.309 205.29C122.792 205.29 123.226 205.263 123.611 205.21C124.004 205.15 124.362 205.059 124.687 204.939C125.019 204.818 125.325 204.667 125.604 204.486C125.891 204.297 126.174 204.074 126.454 203.817C126.582 203.704 126.711 203.648 126.839 203.648ZM132.184 190.317V207H130.168V190.317H132.184ZM141.671 201.835C140.743 201.866 139.95 201.941 139.293 202.062C138.644 202.175 138.111 202.326 137.696 202.515C137.288 202.704 136.99 202.926 136.801 203.183C136.62 203.44 136.529 203.727 136.529 204.044C136.529 204.346 136.578 204.606 136.677 204.825C136.775 205.044 136.907 205.226 137.073 205.369C137.247 205.505 137.447 205.607 137.673 205.675C137.907 205.735 138.157 205.765 138.421 205.765C138.776 205.765 139.1 205.731 139.395 205.664C139.689 205.588 139.965 205.482 140.222 205.346C140.486 205.21 140.735 205.048 140.969 204.859C141.211 204.671 141.445 204.455 141.671 204.214V201.835ZM135.159 197.146C135.793 196.535 136.477 196.078 137.209 195.776C137.941 195.474 138.753 195.323 139.644 195.323C140.286 195.323 140.856 195.429 141.354 195.64C141.853 195.851 142.272 196.146 142.611 196.523C142.951 196.901 143.208 197.358 143.382 197.894C143.555 198.43 143.642 199.019 143.642 199.661V207H142.747C142.551 207 142.4 206.97 142.294 206.909C142.189 206.841 142.106 206.713 142.045 206.524L141.819 205.437C141.517 205.716 141.222 205.966 140.935 206.185C140.648 206.396 140.346 206.577 140.029 206.728C139.712 206.872 139.372 206.981 139.01 207.057C138.655 207.14 138.259 207.181 137.821 207.181C137.375 207.181 136.956 207.121 136.563 207C136.171 206.872 135.827 206.683 135.533 206.434C135.246 206.185 135.015 205.871 134.842 205.494C134.676 205.109 134.593 204.656 134.593 204.135C134.593 203.681 134.717 203.247 134.966 202.832C135.216 202.409 135.62 202.035 136.178 201.711C136.737 201.386 137.466 201.122 138.364 200.918C139.263 200.707 140.365 200.586 141.671 200.556V199.661C141.671 198.77 141.479 198.098 141.094 197.645C140.709 197.184 140.146 196.954 139.406 196.954C138.908 196.954 138.489 197.018 138.149 197.146C137.817 197.267 137.526 197.407 137.277 197.565C137.035 197.716 136.824 197.856 136.643 197.985C136.469 198.105 136.295 198.166 136.122 198.166C135.986 198.166 135.869 198.132 135.771 198.064C135.672 197.988 135.589 197.898 135.521 197.792L135.159 197.146ZM142.691 190.589L140.052 193.511C139.946 193.624 139.84 193.707 139.735 193.76C139.637 193.805 139.508 193.828 139.35 193.828H138.149L139.825 191.087C139.931 190.913 140.044 190.789 140.165 190.713C140.293 190.63 140.478 190.589 140.72 190.589H142.691ZM153.395 197.418C153.305 197.584 153.165 197.667 152.976 197.667C152.863 197.667 152.735 197.626 152.591 197.543C152.448 197.46 152.27 197.369 152.059 197.271C151.855 197.165 151.61 197.071 151.323 196.988C151.036 196.897 150.696 196.852 150.303 196.852C149.964 196.852 149.658 196.897 149.386 196.988C149.114 197.071 148.88 197.188 148.684 197.339C148.495 197.49 148.348 197.667 148.242 197.871C148.144 198.068 148.095 198.283 148.095 198.517C148.095 198.811 148.178 199.057 148.344 199.253C148.518 199.449 148.744 199.619 149.024 199.763C149.303 199.906 149.62 200.035 149.975 200.148C150.33 200.253 150.692 200.371 151.062 200.499C151.44 200.62 151.806 200.756 152.161 200.907C152.516 201.058 152.833 201.246 153.112 201.473C153.392 201.699 153.614 201.979 153.78 202.311C153.954 202.636 154.041 203.028 154.041 203.489C154.041 204.017 153.947 204.508 153.758 204.961C153.569 205.407 153.29 205.796 152.92 206.128C152.55 206.453 152.097 206.709 151.561 206.898C151.025 207.087 150.405 207.181 149.703 207.181C148.903 207.181 148.178 207.053 147.529 206.796C146.879 206.532 146.328 206.196 145.875 205.788L146.351 205.018C146.411 204.92 146.483 204.844 146.566 204.791C146.649 204.739 146.755 204.712 146.883 204.712C147.019 204.712 147.162 204.765 147.313 204.871C147.464 204.976 147.646 205.093 147.857 205.222C148.076 205.35 148.34 205.467 148.65 205.573C148.959 205.679 149.344 205.731 149.805 205.731C150.198 205.731 150.541 205.682 150.836 205.584C151.13 205.479 151.376 205.339 151.572 205.165C151.768 204.992 151.912 204.791 152.002 204.565C152.1 204.338 152.15 204.097 152.15 203.84C152.15 203.523 152.063 203.262 151.889 203.059C151.723 202.847 151.5 202.67 151.221 202.526C150.941 202.375 150.621 202.247 150.258 202.141C149.903 202.028 149.537 201.911 149.159 201.79C148.79 201.669 148.423 201.533 148.061 201.382C147.706 201.224 147.389 201.027 147.109 200.793C146.83 200.559 146.604 200.272 146.43 199.933C146.264 199.585 146.181 199.166 146.181 198.675C146.181 198.237 146.271 197.818 146.453 197.418C146.634 197.01 146.898 196.656 147.245 196.354C147.593 196.044 148.019 195.799 148.525 195.617C149.031 195.436 149.609 195.346 150.258 195.346C151.013 195.346 151.689 195.466 152.285 195.708C152.89 195.942 153.411 196.267 153.848 196.682L153.395 197.418ZM158.642 195.527V207H156.626V195.527H158.642ZM159.072 191.925C159.072 192.121 159.031 192.306 158.948 192.48C158.872 192.646 158.767 192.797 158.631 192.933C158.502 193.061 158.348 193.163 158.166 193.239C157.993 193.314 157.808 193.352 157.611 193.352C157.415 193.352 157.23 193.314 157.056 193.239C156.89 193.163 156.743 193.061 156.615 192.933C156.486 192.797 156.384 192.646 156.309 192.48C156.233 192.306 156.196 192.121 156.196 191.925C156.196 191.729 156.233 191.544 156.309 191.37C156.384 191.189 156.486 191.034 156.615 190.906C156.743 190.77 156.89 190.664 157.056 190.589C157.23 190.513 157.415 190.475 157.611 190.475C157.808 190.475 157.993 190.513 158.166 190.589C158.348 190.664 158.502 190.77 158.631 190.906C158.767 191.034 158.872 191.189 158.948 191.37C159.031 191.544 159.072 191.729 159.072 191.925ZM169.939 197.565C169.879 197.648 169.819 197.713 169.758 197.758C169.698 197.803 169.615 197.826 169.509 197.826C169.396 197.826 169.271 197.781 169.135 197.69C168.999 197.592 168.829 197.486 168.626 197.373C168.429 197.26 168.184 197.158 167.889 197.067C167.602 196.969 167.248 196.92 166.825 196.92C166.258 196.92 165.76 197.022 165.33 197.226C164.899 197.422 164.537 197.709 164.242 198.086C163.955 198.464 163.736 198.921 163.585 199.457C163.442 199.993 163.37 200.593 163.37 201.258C163.37 201.952 163.45 202.572 163.608 203.115C163.767 203.651 163.989 204.104 164.276 204.474C164.571 204.837 164.922 205.116 165.33 205.312C165.745 205.501 166.209 205.596 166.723 205.596C167.214 205.596 167.618 205.539 167.935 205.426C168.252 205.305 168.512 205.173 168.716 205.029C168.928 204.886 169.101 204.757 169.237 204.644C169.381 204.523 169.52 204.463 169.656 204.463C169.822 204.463 169.951 204.527 170.041 204.656L170.608 205.392C170.358 205.701 170.075 205.966 169.758 206.185C169.441 206.403 169.097 206.588 168.727 206.74C168.365 206.883 167.984 206.989 167.584 207.057C167.183 207.125 166.776 207.159 166.36 207.159C165.643 207.159 164.975 207.026 164.356 206.762C163.744 206.498 163.212 206.117 162.759 205.618C162.306 205.112 161.951 204.493 161.694 203.761C161.437 203.028 161.309 202.194 161.309 201.258C161.309 200.404 161.426 199.615 161.66 198.891C161.902 198.166 162.249 197.543 162.702 197.022C163.163 196.493 163.725 196.082 164.39 195.787C165.062 195.493 165.832 195.346 166.7 195.346C167.508 195.346 168.218 195.478 168.829 195.742C169.449 195.999 169.996 196.365 170.472 196.841L169.939 197.565ZM177.409 195.346C178.247 195.346 179.002 195.485 179.674 195.765C180.346 196.044 180.92 196.44 181.396 196.954C181.871 197.467 182.234 198.09 182.483 198.823C182.74 199.547 182.868 200.359 182.868 201.258C182.868 202.164 182.74 202.979 182.483 203.704C182.234 204.429 181.871 205.048 181.396 205.562C180.92 206.075 180.346 206.471 179.674 206.751C179.002 207.023 178.247 207.159 177.409 207.159C176.563 207.159 175.801 207.023 175.121 206.751C174.449 206.471 173.875 206.075 173.399 205.562C172.924 205.048 172.558 204.429 172.301 203.704C172.052 202.979 171.927 202.164 171.927 201.258C171.927 200.359 172.052 199.547 172.301 198.823C172.558 198.09 172.924 197.467 173.399 196.954C173.875 196.44 174.449 196.044 175.121 195.765C175.801 195.485 176.563 195.346 177.409 195.346ZM177.409 205.584C178.541 205.584 179.387 205.207 179.946 204.452C180.505 203.689 180.784 202.628 180.784 201.269C180.784 199.902 180.505 198.838 179.946 198.075C179.387 197.312 178.541 196.931 177.409 196.931C176.835 196.931 176.333 197.029 175.902 197.226C175.48 197.422 175.125 197.705 174.838 198.075C174.558 198.445 174.347 198.902 174.204 199.446C174.068 199.982 174 200.589 174 201.269C174 202.628 174.279 203.689 174.838 204.452C175.404 205.207 176.261 205.584 177.409 205.584ZM192.107 197.418C192.017 197.584 191.877 197.667 191.688 197.667C191.575 197.667 191.447 197.626 191.303 197.543C191.16 197.46 190.982 197.369 190.771 197.271C190.567 197.165 190.322 197.071 190.035 196.988C189.748 196.897 189.408 196.852 189.015 196.852C188.676 196.852 188.37 196.897 188.098 196.988C187.826 197.071 187.592 197.188 187.396 197.339C187.207 197.49 187.06 197.667 186.954 197.871C186.856 198.068 186.807 198.283 186.807 198.517C186.807 198.811 186.89 199.057 187.056 199.253C187.23 199.449 187.456 199.619 187.735 199.763C188.015 199.906 188.332 200.035 188.687 200.148C189.042 200.253 189.404 200.371 189.774 200.499C190.152 200.62 190.518 200.756 190.873 200.907C191.228 201.058 191.545 201.246 191.824 201.473C192.104 201.699 192.326 201.979 192.492 202.311C192.666 202.636 192.753 203.028 192.753 203.489C192.753 204.017 192.659 204.508 192.47 204.961C192.281 205.407 192.002 205.796 191.632 206.128C191.262 206.453 190.809 206.709 190.273 206.898C189.736 207.087 189.117 207.181 188.415 207.181C187.615 207.181 186.89 207.053 186.24 206.796C185.591 206.532 185.04 206.196 184.587 205.788L185.063 205.018C185.123 204.92 185.195 204.844 185.278 204.791C185.361 204.739 185.467 204.712 185.595 204.712C185.731 204.712 185.874 204.765 186.025 204.871C186.176 204.976 186.357 205.093 186.569 205.222C186.788 205.35 187.052 205.467 187.362 205.573C187.671 205.679 188.056 205.731 188.517 205.731C188.91 205.731 189.253 205.682 189.548 205.584C189.842 205.479 190.088 205.339 190.284 205.165C190.48 204.992 190.624 204.791 190.714 204.565C190.812 204.338 190.861 204.097 190.861 203.84C190.861 203.523 190.775 203.262 190.601 203.059C190.435 202.847 190.212 202.67 189.933 202.526C189.653 202.375 189.332 202.247 188.97 202.141C188.615 202.028 188.249 201.911 187.871 201.79C187.501 201.669 187.135 201.533 186.773 201.382C186.418 201.224 186.101 201.027 185.821 200.793C185.542 200.559 185.315 200.272 185.142 199.933C184.976 199.585 184.893 199.166 184.893 198.675C184.893 198.237 184.983 197.818 185.164 197.418C185.346 197.01 185.61 196.656 185.957 196.354C186.305 196.044 186.731 195.799 187.237 195.617C187.743 195.436 188.321 195.346 188.97 195.346C189.725 195.346 190.401 195.466 190.997 195.708C191.601 195.942 192.122 196.267 192.56 196.682L192.107 197.418Z" fill="#101734"/>
<path d="M214 94.4917H209.613C208.168 87.2336 201.905 81.7917 194.576 81.7917H193.5V79.3025C193.5 76.0047 190.903 73.325 187.711 73.325H178.789C175.597 73.325 173 76.0068 173 79.3025V81.7917H166.85V79.3025C166.85 76.0047 164.253 73.325 161.061 73.325H152.139C148.947 73.325 146.35 76.0068 146.35 79.3025V81.7917H127.9V61.3087C135.095 58.3517 140.2 51.1021 140.2 42.6334C140.2 31.5463 131.463 22.525 120.725 22.525C109.987 22.525 101.25 31.5463 101.25 42.6334C101.25 51.1043 106.354 58.3517 113.55 61.3087V81.7917H110.424C103.095 81.7917 96.8323 87.2336 95.387 94.4917H91V115.658H111.5L111.707 117.775C112.658 122.599 116.801 126.242 121.75 126.242H142.25C144.511 126.242 146.35 128.14 146.35 130.475H150.45C150.45 125.806 146.772 122.008 142.25 122.008H121.75C118.359 122.008 115.6 119.159 115.6 115.658H214V94.4917ZM111.5 45.8084C110.368 45.8084 109.45 44.8622 109.45 43.6917C109.45 36.6876 114.967 30.9917 121.75 30.9917C122.882 30.9917 123.8 31.9378 123.8 33.1084C123.8 34.2789 122.882 35.225 121.75 35.225C117.228 35.225 113.55 39.0223 113.55 43.6917C113.55 44.8622 112.632 45.8084 111.5 45.8084ZM123.8 62.4919V81.7917H117.65V62.4919C117.882 62.53 118.117 62.547 118.351 62.5766C118.548 62.602 118.743 62.6295 118.941 62.6486C119.479 62.6994 120.016 62.729 120.555 62.7332C120.612 62.7332 120.668 62.7417 120.725 62.7417C120.782 62.7417 120.838 62.7332 120.895 62.7332C121.434 62.729 121.973 62.6994 122.508 62.6486C122.707 62.6295 122.902 62.602 123.097 62.5766C123.333 62.547 123.568 62.53 123.8 62.4919ZM99.5895 94.4917C100.945 89.5958 105.338 86.025 110.422 86.025H113.55H127.9H146.35H166.85H173H193.5H194.576C199.66 86.025 204.055 89.598 205.408 94.4917H99.5895Z" fill="#101734"/>
</g>
<defs>
<filter id="filter0_d_581_3875" x="0" y="0" width="316" height="240" filterUnits="userSpaceOnUse" color-interpolation-filters="sRGB">
<feFlood flood-opacity="0" result="BackgroundImageFix"/>
<feColorMatrix in="SourceAlpha" type="matrix" values="0 0 0 0 0 0 0 0 0 0 0 0 0 0 0 0 0 0 127 0" result="hardAlpha"/>
<feOffset dx="10" dy="10"/>
<feComposite in2="hardAlpha" operator="out"/>
<feColorMatrix type="matrix" values="0 0 0 0 0 0 0 0 0 0 0 0 0 0 0 0 0 0 1 0"/>
<feBlend mode="normal" in2="BackgroundImageFix" result="effect1_dropShadow_581_3875"/>
<feBlend mode="normal" in="SourceGraphic" in2="effect1_dropShadow_581_3875" result="shape"/>
</filter>
</defs>
</svg>
