<svg width="169" height="240" viewBox="0 0 169 240" fill="none" xmlns="http://www.w3.org/2000/svg">
<g filter="url(#filter0_d_581_3870)">
<rect width="306" height="230" rx="10" fill="#7887C7"/>
<path d="M126.315 198.891C126.315 200.106 126.123 201.212 125.738 202.209C125.353 203.206 124.809 204.059 124.107 204.769C123.405 205.479 122.559 206.03 121.57 206.422C120.588 206.807 119.501 207 118.308 207H112.248V190.77H118.308C119.501 190.77 120.588 190.966 121.57 191.359C122.559 191.744 123.405 192.295 124.107 193.012C124.809 193.722 125.353 194.575 125.738 195.572C126.123 196.569 126.315 197.675 126.315 198.891ZM124.062 198.891C124.062 197.894 123.926 197.003 123.654 196.218C123.382 195.432 122.997 194.768 122.499 194.224C122 193.681 121.396 193.265 120.686 192.978C119.977 192.691 119.184 192.548 118.308 192.548H114.446V205.222H118.308C119.184 205.222 119.977 205.078 120.686 204.791C121.396 204.505 122 204.093 122.499 203.557C122.997 203.013 123.382 202.349 123.654 201.564C123.926 200.778 124.062 199.887 124.062 198.891ZM130.913 195.527V207H128.897V195.527H130.913ZM131.344 191.925C131.344 192.121 131.302 192.306 131.219 192.48C131.144 192.646 131.038 192.797 130.902 192.933C130.774 193.061 130.619 193.163 130.438 193.239C130.264 193.314 130.079 193.352 129.883 193.352C129.686 193.352 129.501 193.314 129.328 193.239C129.161 193.163 129.014 193.061 128.886 192.933C128.757 192.797 128.656 192.646 128.58 192.48C128.505 192.306 128.467 192.121 128.467 191.925C128.467 191.729 128.505 191.544 128.58 191.37C128.656 191.189 128.757 191.034 128.886 190.906C129.014 190.77 129.161 190.664 129.328 190.589C129.501 190.513 129.686 190.475 129.883 190.475C130.079 190.475 130.264 190.513 130.438 190.589C130.619 190.664 130.774 190.77 130.902 190.906C131.038 191.034 131.144 191.189 131.219 191.37C131.302 191.544 131.344 191.729 131.344 191.925ZM140.908 197.418C140.817 197.584 140.678 197.667 140.489 197.667C140.376 197.667 140.247 197.626 140.104 197.543C139.96 197.46 139.783 197.369 139.572 197.271C139.368 197.165 139.122 197.071 138.835 196.988C138.548 196.897 138.209 196.852 137.816 196.852C137.476 196.852 137.17 196.897 136.899 196.988C136.627 197.071 136.393 197.188 136.196 197.339C136.008 197.49 135.86 197.667 135.755 197.871C135.657 198.068 135.607 198.283 135.607 198.517C135.607 198.811 135.691 199.057 135.857 199.253C136.03 199.449 136.257 199.619 136.536 199.763C136.816 199.906 137.133 200.035 137.488 200.148C137.842 200.253 138.205 200.371 138.575 200.499C138.952 200.62 139.319 200.756 139.674 200.907C140.028 201.058 140.346 201.246 140.625 201.473C140.904 201.699 141.127 201.979 141.293 202.311C141.467 202.636 141.554 203.028 141.554 203.489C141.554 204.017 141.459 204.508 141.27 204.961C141.082 205.407 140.802 205.796 140.432 206.128C140.062 206.453 139.609 206.709 139.073 206.898C138.537 207.087 137.918 207.181 137.216 207.181C136.415 207.181 135.691 207.053 135.041 206.796C134.392 206.532 133.841 206.196 133.388 205.788L133.863 205.018C133.924 204.92 133.995 204.844 134.078 204.791C134.162 204.739 134.267 204.712 134.396 204.712C134.532 204.712 134.675 204.765 134.826 204.871C134.977 204.976 135.158 205.093 135.37 205.222C135.589 205.35 135.853 205.467 136.162 205.573C136.472 205.679 136.857 205.731 137.318 205.731C137.71 205.731 138.054 205.682 138.348 205.584C138.643 205.479 138.888 205.339 139.085 205.165C139.281 204.992 139.424 204.791 139.515 204.565C139.613 204.338 139.662 204.097 139.662 203.84C139.662 203.523 139.575 203.262 139.402 203.059C139.236 202.847 139.013 202.67 138.733 202.526C138.454 202.375 138.133 202.247 137.771 202.141C137.416 202.028 137.05 201.911 136.672 201.79C136.302 201.669 135.936 201.533 135.574 201.382C135.219 201.224 134.902 201.027 134.622 200.793C134.343 200.559 134.116 200.272 133.943 199.933C133.776 199.585 133.693 199.166 133.693 198.675C133.693 198.237 133.784 197.818 133.965 197.418C134.146 197.01 134.411 196.656 134.758 196.354C135.105 196.044 135.532 195.799 136.038 195.617C136.544 195.436 137.121 195.346 137.771 195.346C138.526 195.346 139.202 195.466 139.798 195.708C140.402 195.942 140.923 196.267 141.361 196.682L140.908 197.418ZM146.053 204.236C146.423 204.735 146.827 205.086 147.265 205.29C147.703 205.494 148.193 205.596 148.737 205.596C149.809 205.596 150.632 205.214 151.206 204.452C151.78 203.689 152.067 202.602 152.067 201.19C152.067 200.442 151.999 199.8 151.863 199.264C151.735 198.728 151.546 198.29 151.297 197.951C151.047 197.603 150.742 197.35 150.379 197.192C150.017 197.033 149.605 196.954 149.145 196.954C148.488 196.954 147.91 197.105 147.412 197.407C146.921 197.709 146.468 198.136 146.053 198.687V204.236ZM145.951 197.305C146.434 196.708 146.993 196.229 147.627 195.867C148.261 195.504 148.986 195.323 149.802 195.323C150.466 195.323 151.066 195.451 151.602 195.708C152.139 195.957 152.595 196.331 152.973 196.829C153.35 197.32 153.641 197.932 153.845 198.664C154.049 199.396 154.151 200.238 154.151 201.19C154.151 202.035 154.038 202.824 153.811 203.557C153.585 204.282 153.256 204.912 152.826 205.448C152.403 205.977 151.882 206.396 151.263 206.706C150.651 207.008 149.96 207.159 149.19 207.159C148.488 207.159 147.884 207.042 147.378 206.807C146.88 206.566 146.438 206.234 146.053 205.811V210.885H144.025V195.527H145.237C145.524 195.527 145.702 195.666 145.77 195.946L145.951 197.305ZM162.941 201.835C162.012 201.866 161.219 201.941 160.562 202.062C159.913 202.175 159.381 202.326 158.965 202.515C158.558 202.704 158.259 202.926 158.071 203.183C157.889 203.44 157.799 203.727 157.799 204.044C157.799 204.346 157.848 204.606 157.946 204.825C158.044 205.044 158.176 205.226 158.342 205.369C158.516 205.505 158.716 205.607 158.943 205.675C159.177 205.735 159.426 205.765 159.69 205.765C160.045 205.765 160.37 205.731 160.664 205.664C160.959 205.588 161.234 205.482 161.491 205.346C161.755 205.21 162.005 205.048 162.239 204.859C162.48 204.671 162.714 204.455 162.941 204.214V201.835ZM156.428 197.146C157.063 196.535 157.746 196.078 158.478 195.776C159.211 195.474 160.023 195.323 160.913 195.323C161.555 195.323 162.125 195.429 162.624 195.64C163.122 195.851 163.541 196.146 163.881 196.523C164.221 196.901 164.477 197.358 164.651 197.894C164.825 198.43 164.912 199.019 164.912 199.661V207H164.017C163.82 207 163.669 206.97 163.564 206.909C163.458 206.841 163.375 206.713 163.315 206.524L163.088 205.437C162.786 205.716 162.492 205.966 162.205 206.185C161.918 206.396 161.616 206.577 161.299 206.728C160.981 206.872 160.642 206.981 160.279 207.057C159.924 207.14 159.528 207.181 159.09 207.181C158.645 207.181 158.225 207.121 157.833 207C157.44 206.872 157.097 206.683 156.802 206.434C156.515 206.185 156.285 205.871 156.111 205.494C155.945 205.109 155.862 204.656 155.862 204.135C155.862 203.681 155.987 203.247 156.236 202.832C156.485 202.409 156.889 202.035 157.448 201.711C158.006 201.386 158.735 201.122 159.634 200.918C160.532 200.707 161.635 200.586 162.941 200.556V199.661C162.941 198.77 162.748 198.098 162.363 197.645C161.978 197.184 161.416 196.954 160.676 196.954C160.177 196.954 159.758 197.018 159.418 197.146C159.086 197.267 158.796 197.407 158.546 197.565C158.305 197.716 158.093 197.856 157.912 197.985C157.738 198.105 157.565 198.166 157.391 198.166C157.255 198.166 157.138 198.132 157.04 198.064C156.942 197.988 156.859 197.898 156.791 197.792L156.428 197.146ZM169.897 197.826C170.259 197.041 170.705 196.429 171.233 195.991C171.762 195.546 172.407 195.323 173.17 195.323C173.411 195.323 173.642 195.349 173.861 195.402C174.087 195.455 174.287 195.538 174.461 195.651L174.314 197.158C174.268 197.346 174.155 197.441 173.974 197.441C173.868 197.441 173.713 197.418 173.51 197.373C173.306 197.328 173.075 197.305 172.819 197.305C172.456 197.305 172.132 197.358 171.845 197.464C171.565 197.569 171.312 197.728 171.086 197.939C170.867 198.143 170.667 198.4 170.486 198.709C170.312 199.011 170.153 199.359 170.01 199.751V207H167.983V195.527H169.138C169.357 195.527 169.508 195.568 169.591 195.651C169.674 195.734 169.73 195.878 169.761 196.082L169.897 197.826ZM180.605 195.346C181.443 195.346 182.199 195.485 182.871 195.765C183.543 196.044 184.116 196.44 184.592 196.954C185.068 197.467 185.43 198.09 185.679 198.823C185.936 199.547 186.064 200.359 186.064 201.258C186.064 202.164 185.936 202.979 185.679 203.704C185.43 204.429 185.068 205.048 184.592 205.562C184.116 206.075 183.543 206.471 182.871 206.751C182.199 207.023 181.443 207.159 180.605 207.159C179.76 207.159 178.997 207.023 178.317 206.751C177.645 206.471 177.072 206.075 176.596 205.562C176.12 205.048 175.754 204.429 175.497 203.704C175.248 202.979 175.124 202.164 175.124 201.258C175.124 200.359 175.248 199.547 175.497 198.823C175.754 198.09 176.12 197.467 176.596 196.954C177.072 196.44 177.645 196.044 178.317 195.765C178.997 195.485 179.76 195.346 180.605 195.346ZM180.605 205.584C181.738 205.584 182.584 205.207 183.142 204.452C183.701 203.689 183.98 202.628 183.98 201.269C183.98 199.902 183.701 198.838 183.142 198.075C182.584 197.312 181.738 196.931 180.605 196.931C180.031 196.931 179.529 197.029 179.099 197.226C178.676 197.422 178.321 197.705 178.034 198.075C177.755 198.445 177.544 198.902 177.4 199.446C177.264 199.982 177.196 200.589 177.196 201.269C177.196 202.628 177.476 203.689 178.034 204.452C178.601 205.207 179.458 205.584 180.605 205.584ZM195.304 197.418C195.213 197.584 195.074 197.667 194.885 197.667C194.772 197.667 194.643 197.626 194.5 197.543C194.356 197.46 194.179 197.369 193.967 197.271C193.763 197.165 193.518 197.071 193.231 196.988C192.944 196.897 192.604 196.852 192.212 196.852C191.872 196.852 191.566 196.897 191.294 196.988C191.023 197.071 190.789 197.188 190.592 197.339C190.403 197.49 190.256 197.667 190.15 197.871C190.052 198.068 190.003 198.283 190.003 198.517C190.003 198.811 190.086 199.057 190.252 199.253C190.426 199.449 190.653 199.619 190.932 199.763C191.211 199.906 191.528 200.035 191.883 200.148C192.238 200.253 192.601 200.371 192.971 200.499C193.348 200.62 193.714 200.756 194.069 200.907C194.424 201.058 194.741 201.246 195.021 201.473C195.3 201.699 195.523 201.979 195.689 202.311C195.863 202.636 195.949 203.028 195.949 203.489C195.949 204.017 195.855 204.508 195.666 204.961C195.477 205.407 195.198 205.796 194.828 206.128C194.458 206.453 194.005 206.709 193.469 206.898C192.933 207.087 192.314 207.181 191.612 207.181C190.811 207.181 190.086 207.053 189.437 206.796C188.788 206.532 188.236 206.196 187.783 205.788L188.259 205.018C188.319 204.92 188.391 204.844 188.474 204.791C188.557 204.739 188.663 204.712 188.791 204.712C188.927 204.712 189.071 204.765 189.222 204.871C189.373 204.976 189.554 205.093 189.765 205.222C189.984 205.35 190.249 205.467 190.558 205.573C190.868 205.679 191.253 205.731 191.713 205.731C192.106 205.731 192.45 205.682 192.744 205.584C193.039 205.479 193.284 205.339 193.48 205.165C193.677 204.992 193.82 204.791 193.911 204.565C194.009 204.338 194.058 204.097 194.058 203.84C194.058 203.523 193.971 203.262 193.797 203.059C193.631 202.847 193.409 202.67 193.129 202.526C192.85 202.375 192.529 202.247 192.167 202.141C191.812 202.028 191.445 201.911 191.068 201.79C190.698 201.669 190.332 201.533 189.969 201.382C189.614 201.224 189.297 201.027 189.018 200.793C188.739 200.559 188.512 200.272 188.338 199.933C188.172 199.585 188.089 199.166 188.089 198.675C188.089 198.237 188.18 197.818 188.361 197.418C188.542 197.01 188.806 196.656 189.154 196.354C189.501 196.044 189.928 195.799 190.434 195.617C190.94 195.436 191.517 195.346 192.167 195.346C192.922 195.346 193.597 195.466 194.194 195.708C194.798 195.942 195.319 196.267 195.757 196.682L195.304 197.418Z" fill="#101734"/>
<g clip-path="url(#clip0_581_3870)">
<g clip-path="url(#clip1_581_3870)">
<path d="M167.978 33.3202H142.401V48.007H167.978V33.3202Z" fill="#101734"/>
<path d="M214.869 33.3202H210.606V28.4248C210.606 26.9561 209.753 25.9771 208.475 25.9771H195.686C194.407 25.9771 193.555 26.9561 193.555 28.4248V33.3204H172.241V50.4549C172.241 51.9236 171.388 52.9026 170.109 52.9026H140.269C138.99 52.9026 138.138 51.9236 138.138 50.4549V33.3202H118.955V28.4248C118.955 26.9561 118.103 25.9771 116.824 25.9771H104.035C102.756 25.9771 101.904 27.201 101.904 28.4248V33.3204H91.2468C89.968 33.3204 89.1155 34.5444 89.1155 35.7681V43.1115C89.1155 43.6012 89.3285 44.0905 89.5418 44.5802L91.8865 48.2519C93.5917 50.9446 93.5917 54.861 91.8865 57.5536L89.5418 61.2253C89.3288 61.715 89.1155 62.2043 89.1155 62.694V70.0374C89.1155 71.5061 89.968 72.4851 91.2468 72.4851H99.3463C101.478 72.4851 103.396 73.7091 104.462 75.6671C105.527 77.6252 105.741 80.3178 104.675 82.2762L90.3943 115.321C87.8366 121.686 88.9024 129.029 92.739 134.659C95.9361 138.575 100.412 141.023 105.527 141.023H129.613C133.449 141.023 136.859 138.576 138.564 134.414C140.27 130.253 139.63 125.602 137.073 122.42L134.302 118.993C133.875 118.259 133.875 117.769 133.875 117.035L139.417 96.963H150.714C160.305 96.963 167.978 88.1509 167.978 77.1358V72.4851H180.767C182.046 72.4851 182.898 71.5061 182.898 70.0374H208.475C209.754 70.0374 210.606 69.0584 210.606 67.5897V60.2463H214.869C216.148 60.2463 217.001 59.2673 217.001 57.7986V35.7684C217 34.5441 216.148 33.3202 214.869 33.3202ZM106.167 30.8725H114.692V33.3202H106.167V30.8725ZM104.035 48.0069H129.612C130.891 48.0069 131.744 48.986 131.744 50.4546C131.744 51.9233 130.891 52.9023 129.612 52.9023H104.035C102.756 52.9023 101.904 51.9233 101.904 50.4546C101.904 49.2309 102.756 48.0069 104.035 48.0069ZM104.035 62.6937C102.756 62.6937 101.904 61.7147 101.904 60.246C101.904 58.7773 102.756 57.7983 104.035 57.7983H129.612C130.891 57.7983 131.744 58.7773 131.744 60.246C131.744 61.7147 130.891 62.6937 129.612 62.6937H104.035ZM125.349 89.6196C125.349 92.3122 123.431 94.5153 121.086 94.5153C118.742 94.5153 116.824 92.3122 116.824 89.6196C116.824 86.9269 118.742 84.7239 121.086 84.7239C123.431 84.7239 125.349 86.9269 125.349 89.6196ZM137.498 87.9062L135.793 94.0256L129.825 116.056C129.825 116.3 129.825 116.3 129.825 116.545C129.612 118.504 130.038 120.462 131.104 121.93C131.104 121.93 131.104 122.175 131.317 122.175L134.088 125.847C135.58 127.805 136.006 130.253 134.94 132.701C134.088 135.148 132.17 136.372 129.825 136.372H105.527C101.69 136.372 98.2802 134.659 96.1486 131.477C93.1646 127.56 92.5252 121.93 94.4434 117.279L108.511 84.7239C110.216 81.0522 110.003 76.6461 108.084 73.2191C107.871 72.9744 107.871 72.7295 107.658 72.4848H115.757L98.28 119.482C97.2142 122.42 97.6406 125.847 99.5588 128.295C100.838 130.253 102.969 131.232 105.527 131.232H115.757C118.528 131.232 121.086 129.274 121.939 126.092L137.498 72.4848H141.548L137.498 87.9062ZM116.824 114.097C116.824 116.79 114.906 118.993 112.561 118.993C110.216 118.993 108.298 116.79 108.298 114.097C108.298 111.405 110.216 109.202 112.561 109.202C114.906 109.202 116.824 111.405 116.824 114.097ZM163.715 77.1358C163.715 85.4582 157.96 92.0673 150.713 92.0673H140.696L144.532 78.1148C146.237 82.0312 149.008 84.2342 154.55 86.1926C154.763 86.1926 154.976 86.4372 155.189 86.4372C156.042 86.4372 156.894 85.7029 157.108 84.7239C157.534 83.4999 156.894 82.0312 155.829 81.5418C149.647 79.0941 148.369 77.1358 147.303 72.9744C147.303 72.7298 147.09 72.7298 147.09 72.4848H163.715V77.1358H163.715ZM206.343 65.1417H182.898C182.898 62.449 184.816 60.246 187.16 60.246H206.343V65.1417ZM206.343 33.3202H197.818V30.8725H206.343V33.3202Z" fill="#101734"/>
</g>
</g>
</g>
<defs>
<filter id="filter0_d_581_3870" x="0" y="0" width="316" height="240" filterUnits="userSpaceOnUse" color-interpolation-filters="sRGB">
<feFlood flood-opacity="0" result="BackgroundImageFix"/>
<feColorMatrix in="SourceAlpha" type="matrix" values="0 0 0 0 0 0 0 0 0 0 0 0 0 0 0 0 0 0 127 0" result="hardAlpha"/>
<feOffset dx="10" dy="10"/>
<feComposite in2="hardAlpha" operator="out"/>
<feColorMatrix type="matrix" values="0 0 0 0 0 0 0 0 0 0 0 0 0 0 0 0 0 0 1 0"/>
<feBlend mode="normal" in2="BackgroundImageFix" result="effect1_dropShadow_581_3870"/>
<feBlend mode="normal" in="SourceGraphic" in2="effect1_dropShadow_581_3870" result="shape"/>
</filter>
<clipPath id="clip0_581_3870">
<rect width="128" height="127" fill="white" transform="translate(89 13)"/>
</clipPath>
<clipPath id="clip1_581_3870">
<rect width="128" height="147" fill="white" transform="translate(89 10)"/>
</clipPath>
</defs>
</svg>
