<svg width="316" height="240" viewBox="0 0 316 240" fill="none" xmlns="http://www.w3.org/2000/svg">
<g filter="url(#filter0_d_581_3869)">
<rect width="306" height="230" rx="10" fill="#7887C7"/>
<path d="M116.343 205.21L116.332 207H106.331V190.77H116.332V192.559H108.528V197.951H114.848V199.672H108.528V205.21H116.343ZM125.434 197.418C125.344 197.584 125.204 197.667 125.015 197.667C124.902 197.667 124.774 197.626 124.63 197.543C124.487 197.46 124.309 197.369 124.098 197.271C123.894 197.165 123.649 197.071 123.362 196.988C123.075 196.897 122.735 196.852 122.342 196.852C122.003 196.852 121.697 196.897 121.425 196.988C121.153 197.071 120.919 197.188 120.723 197.339C120.534 197.49 120.387 197.667 120.281 197.871C120.183 198.068 120.134 198.283 120.134 198.517C120.134 198.811 120.217 199.057 120.383 199.253C120.557 199.449 120.783 199.619 121.063 199.763C121.342 199.906 121.659 200.035 122.014 200.148C122.369 200.253 122.731 200.371 123.101 200.499C123.479 200.62 123.845 200.756 124.2 200.907C124.555 201.058 124.872 201.246 125.151 201.473C125.431 201.699 125.653 201.979 125.819 202.311C125.993 202.636 126.08 203.028 126.08 203.489C126.08 204.017 125.986 204.508 125.797 204.961C125.608 205.407 125.329 205.796 124.959 206.128C124.589 206.453 124.136 206.709 123.6 206.898C123.063 207.087 122.444 207.181 121.742 207.181C120.942 207.181 120.217 207.053 119.567 206.796C118.918 206.532 118.367 206.196 117.914 205.788L118.39 205.018C118.45 204.92 118.522 204.844 118.605 204.791C118.688 204.739 118.794 204.712 118.922 204.712C119.058 204.712 119.201 204.765 119.352 204.871C119.503 204.976 119.685 205.093 119.896 205.222C120.115 205.35 120.379 205.467 120.689 205.573C120.998 205.679 121.383 205.731 121.844 205.731C122.237 205.731 122.58 205.682 122.875 205.584C123.169 205.479 123.415 205.339 123.611 205.165C123.807 204.992 123.951 204.791 124.041 204.565C124.139 204.338 124.188 204.097 124.188 203.84C124.188 203.523 124.102 203.262 123.928 203.059C123.762 202.847 123.539 202.67 123.26 202.526C122.98 202.375 122.659 202.247 122.297 202.141C121.942 202.028 121.576 201.911 121.198 201.79C120.828 201.669 120.462 201.533 120.1 201.382C119.745 201.224 119.428 201.027 119.148 200.793C118.869 200.559 118.643 200.272 118.469 199.933C118.303 199.585 118.22 199.166 118.22 198.675C118.22 198.237 118.31 197.818 118.492 197.418C118.673 197.01 118.937 196.656 119.284 196.354C119.632 196.044 120.058 195.799 120.564 195.617C121.07 195.436 121.648 195.346 122.297 195.346C123.052 195.346 123.728 195.466 124.324 195.708C124.928 195.942 125.449 196.267 125.887 196.682L125.434 197.418ZM132.074 207.181C131.168 207.181 130.47 206.928 129.979 206.422C129.495 205.916 129.254 205.188 129.254 204.236V197.214H127.872C127.751 197.214 127.649 197.18 127.566 197.112C127.483 197.037 127.442 196.924 127.442 196.773V195.968L129.322 195.731L129.786 192.186C129.809 192.072 129.858 191.982 129.933 191.914C130.016 191.838 130.122 191.801 130.251 191.801H131.27V195.753H134.588V197.214H131.27V204.101C131.27 204.584 131.387 204.942 131.621 205.177C131.855 205.411 132.157 205.528 132.527 205.528C132.739 205.528 132.92 205.501 133.071 205.448C133.229 205.388 133.365 205.324 133.478 205.256C133.592 205.188 133.686 205.127 133.762 205.075C133.845 205.014 133.916 204.984 133.977 204.984C134.083 204.984 134.177 205.048 134.26 205.177L134.849 206.139C134.502 206.464 134.083 206.721 133.592 206.909C133.101 207.091 132.595 207.181 132.074 207.181ZM138.584 197.826C138.947 197.041 139.392 196.429 139.921 195.991C140.449 195.546 141.095 195.323 141.857 195.323C142.099 195.323 142.329 195.349 142.548 195.402C142.775 195.455 142.975 195.538 143.149 195.651L143.001 197.158C142.956 197.346 142.843 197.441 142.662 197.441C142.556 197.441 142.401 197.418 142.197 197.373C141.993 197.328 141.763 197.305 141.506 197.305C141.144 197.305 140.819 197.358 140.532 197.464C140.253 197.569 140 197.728 139.773 197.939C139.554 198.143 139.354 198.4 139.173 198.709C138.999 199.011 138.841 199.359 138.697 199.751V207H136.67V195.527H137.825C138.044 195.527 138.195 195.568 138.278 195.651C138.361 195.734 138.418 195.878 138.448 196.082L138.584 197.826ZM150.962 201.835C150.034 201.866 149.241 201.941 148.584 202.062C147.934 202.175 147.402 202.326 146.987 202.515C146.579 202.704 146.281 202.926 146.092 203.183C145.911 203.44 145.82 203.727 145.82 204.044C145.82 204.346 145.869 204.606 145.968 204.825C146.066 205.044 146.198 205.226 146.364 205.369C146.538 205.505 146.738 205.607 146.964 205.675C147.198 205.735 147.447 205.765 147.712 205.765C148.067 205.765 148.391 205.731 148.686 205.664C148.98 205.588 149.256 205.482 149.513 205.346C149.777 205.21 150.026 205.048 150.26 204.859C150.502 204.671 150.736 204.455 150.962 204.214V201.835ZM144.45 197.146C145.084 196.535 145.767 196.078 146.5 195.776C147.232 195.474 148.044 195.323 148.935 195.323C149.577 195.323 150.147 195.429 150.645 195.64C151.143 195.851 151.563 196.146 151.902 196.523C152.242 196.901 152.499 197.358 152.672 197.894C152.846 198.43 152.933 199.019 152.933 199.661V207H152.038C151.842 207 151.691 206.97 151.585 206.909C151.479 206.841 151.396 206.713 151.336 206.524L151.11 205.437C150.807 205.716 150.513 205.966 150.226 206.185C149.939 206.396 149.637 206.577 149.32 206.728C149.003 206.872 148.663 206.981 148.301 207.057C147.946 207.14 147.549 207.181 147.111 207.181C146.666 207.181 146.247 207.121 145.854 207C145.462 206.872 145.118 206.683 144.824 206.434C144.537 206.185 144.306 205.871 144.133 205.494C143.967 205.109 143.884 204.656 143.884 204.135C143.884 203.681 144.008 203.247 144.257 202.832C144.506 202.409 144.91 202.035 145.469 201.711C146.028 201.386 146.757 201.122 147.655 200.918C148.554 200.707 149.656 200.586 150.962 200.556V199.661C150.962 198.77 150.77 198.098 150.385 197.645C150 197.184 149.437 196.954 148.697 196.954C148.199 196.954 147.78 197.018 147.44 197.146C147.108 197.267 146.817 197.407 146.568 197.565C146.326 197.716 146.115 197.856 145.934 197.985C145.76 198.105 145.586 198.166 145.413 198.166C145.277 198.166 145.16 198.132 145.061 198.064C144.963 197.988 144.88 197.898 144.812 197.792L144.45 197.146ZM159.371 207.181C158.465 207.181 157.767 206.928 157.276 206.422C156.793 205.916 156.551 205.188 156.551 204.236V197.214H155.17C155.049 197.214 154.947 197.18 154.864 197.112C154.781 197.037 154.739 196.924 154.739 196.773V195.968L156.619 195.731L157.084 192.186C157.106 192.072 157.155 191.982 157.231 191.914C157.314 191.838 157.42 191.801 157.548 191.801H158.567V195.753H161.886V197.214H158.567V204.101C158.567 204.584 158.684 204.942 158.918 205.177C159.153 205.411 159.455 205.528 159.825 205.528C160.036 205.528 160.217 205.501 160.368 205.448C160.527 205.388 160.663 205.324 160.776 205.256C160.889 205.188 160.984 205.127 161.059 205.075C161.142 205.014 161.214 204.984 161.274 204.984C161.38 204.984 161.474 205.048 161.557 205.177L162.146 206.139C161.799 206.464 161.38 206.721 160.889 206.909C160.398 207.091 159.892 207.181 159.371 207.181ZM171.58 200.012C171.58 199.544 171.512 199.117 171.376 198.732C171.248 198.339 171.055 198.003 170.799 197.724C170.55 197.437 170.244 197.218 169.881 197.067C169.519 196.909 169.107 196.829 168.647 196.829C167.68 196.829 166.914 197.112 166.348 197.679C165.789 198.237 165.442 199.015 165.306 200.012H171.58ZM173.211 205.392C172.962 205.694 172.664 205.958 172.316 206.185C171.969 206.403 171.595 206.585 171.195 206.728C170.802 206.872 170.395 206.977 169.972 207.045C169.549 207.121 169.13 207.159 168.715 207.159C167.922 207.159 167.189 207.026 166.517 206.762C165.853 206.49 165.275 206.098 164.785 205.584C164.301 205.063 163.924 204.421 163.652 203.659C163.38 202.896 163.244 202.02 163.244 201.031C163.244 200.231 163.365 199.483 163.607 198.789C163.856 198.094 164.211 197.494 164.671 196.988C165.132 196.474 165.694 196.074 166.359 195.787C167.023 195.493 167.771 195.346 168.601 195.346C169.289 195.346 169.923 195.463 170.504 195.697C171.093 195.923 171.599 196.255 172.022 196.693C172.452 197.124 172.788 197.66 173.03 198.302C173.272 198.936 173.392 199.661 173.392 200.476C173.392 200.793 173.358 201.005 173.29 201.11C173.222 201.216 173.094 201.269 172.905 201.269H165.238C165.26 201.994 165.358 202.624 165.532 203.16C165.713 203.697 165.962 204.146 166.28 204.508C166.597 204.863 166.974 205.131 167.412 205.312C167.85 205.486 168.341 205.573 168.885 205.573C169.391 205.573 169.825 205.516 170.187 205.403C170.557 205.282 170.874 205.154 171.138 205.018C171.403 204.882 171.622 204.757 171.795 204.644C171.977 204.523 172.131 204.463 172.26 204.463C172.426 204.463 172.554 204.527 172.645 204.656L173.211 205.392ZM179.867 201.394C180.274 201.394 180.633 201.337 180.943 201.224C181.252 201.11 181.513 200.952 181.724 200.748C181.936 200.544 182.094 200.303 182.2 200.023C182.306 199.736 182.358 199.423 182.358 199.083C182.358 198.381 182.143 197.822 181.713 197.407C181.29 196.992 180.675 196.784 179.867 196.784C179.051 196.784 178.428 196.992 177.998 197.407C177.575 197.822 177.364 198.381 177.364 199.083C177.364 199.423 177.417 199.736 177.522 200.023C177.636 200.303 177.798 200.544 178.009 200.748C178.221 200.952 178.481 201.11 178.791 201.224C179.1 201.337 179.459 201.394 179.867 201.394ZM183.502 207.623C183.502 207.344 183.423 207.117 183.265 206.943C183.106 206.77 182.891 206.634 182.619 206.536C182.355 206.437 182.045 206.37 181.69 206.332C181.335 206.286 180.958 206.252 180.558 206.23C180.165 206.207 179.765 206.185 179.357 206.162C178.949 206.139 178.557 206.101 178.179 206.049C177.756 206.245 177.409 206.494 177.137 206.796C176.873 207.091 176.741 207.438 176.741 207.838C176.741 208.095 176.805 208.333 176.933 208.552C177.069 208.778 177.273 208.971 177.545 209.129C177.817 209.295 178.157 209.424 178.564 209.514C178.98 209.613 179.467 209.662 180.025 209.662C180.569 209.662 181.056 209.613 181.486 209.514C181.917 209.416 182.279 209.277 182.574 209.095C182.876 208.914 183.106 208.699 183.265 208.45C183.423 208.201 183.502 207.925 183.502 207.623ZM185.552 195.98V196.727C185.552 196.976 185.394 197.135 185.077 197.203L183.774 197.373C184.031 197.871 184.159 198.422 184.159 199.026C184.159 199.585 184.05 200.095 183.831 200.556C183.619 201.009 183.325 201.397 182.947 201.722C182.57 202.047 182.117 202.296 181.588 202.47C181.06 202.643 180.486 202.73 179.867 202.73C179.331 202.73 178.825 202.666 178.349 202.538C178.107 202.689 177.922 202.851 177.794 203.025C177.666 203.191 177.602 203.361 177.602 203.534C177.602 203.806 177.711 204.014 177.93 204.157C178.157 204.293 178.451 204.391 178.813 204.452C179.176 204.512 179.587 204.55 180.048 204.565C180.516 204.58 180.992 204.606 181.475 204.644C181.966 204.674 182.442 204.731 182.902 204.814C183.37 204.897 183.786 205.033 184.148 205.222C184.51 205.411 184.801 205.671 185.02 206.003C185.247 206.336 185.36 206.766 185.36 207.294C185.36 207.785 185.235 208.261 184.986 208.722C184.744 209.182 184.393 209.59 183.933 209.945C183.472 210.307 182.906 210.594 182.234 210.806C181.569 211.025 180.818 211.134 179.98 211.134C179.142 211.134 178.409 211.051 177.783 210.885C177.156 210.719 176.635 210.496 176.22 210.217C175.804 209.937 175.491 209.613 175.28 209.243C175.076 208.88 174.974 208.499 174.974 208.099C174.974 207.532 175.151 207.053 175.506 206.66C175.861 206.268 176.348 205.954 176.967 205.72C176.628 205.569 176.356 205.369 176.152 205.12C175.956 204.863 175.857 204.52 175.857 204.089C175.857 203.923 175.888 203.753 175.948 203.58C176.008 203.398 176.099 203.221 176.22 203.047C176.348 202.866 176.503 202.696 176.684 202.538C176.865 202.379 177.077 202.239 177.318 202.118C176.752 201.801 176.31 201.382 175.993 200.861C175.676 200.333 175.518 199.721 175.518 199.026C175.518 198.468 175.623 197.962 175.835 197.509C176.054 197.048 176.356 196.659 176.741 196.342C177.126 196.018 177.583 195.768 178.111 195.595C178.647 195.421 179.232 195.334 179.867 195.334C180.365 195.334 180.829 195.391 181.26 195.504C181.69 195.61 182.083 195.768 182.438 195.98H185.552ZM189.766 195.527V207H187.75V195.527H189.766ZM190.197 191.925C190.197 192.121 190.155 192.306 190.072 192.48C189.997 192.646 189.891 192.797 189.755 192.933C189.627 193.061 189.472 193.163 189.291 193.239C189.117 193.314 188.932 193.352 188.736 193.352C188.539 193.352 188.354 193.314 188.181 193.239C188.015 193.163 187.867 193.061 187.739 192.933C187.611 192.797 187.509 192.646 187.433 192.48C187.358 192.306 187.32 192.121 187.32 191.925C187.32 191.729 187.358 191.544 187.433 191.37C187.509 191.189 187.611 191.034 187.739 190.906C187.867 190.77 188.015 190.664 188.181 190.589C188.354 190.513 188.539 190.475 188.736 190.475C188.932 190.475 189.117 190.513 189.291 190.589C189.472 190.664 189.627 190.77 189.755 190.906C189.891 191.034 189.997 191.189 190.072 191.37C190.155 191.544 190.197 191.729 190.197 191.925ZM199.297 201.835C198.368 201.866 197.575 201.941 196.918 202.062C196.269 202.175 195.737 202.326 195.321 202.515C194.914 202.704 194.615 202.926 194.427 203.183C194.245 203.44 194.155 203.727 194.155 204.044C194.155 204.346 194.204 204.606 194.302 204.825C194.4 205.044 194.532 205.226 194.699 205.369C194.872 205.505 195.072 205.607 195.299 205.675C195.533 205.735 195.782 205.765 196.046 205.765C196.401 205.765 196.726 205.731 197.02 205.664C197.315 205.588 197.59 205.482 197.847 205.346C198.111 205.21 198.361 205.048 198.595 204.859C198.836 204.671 199.07 204.455 199.297 204.214V201.835ZM192.784 197.146C193.419 196.535 194.102 196.078 194.834 195.776C195.567 195.474 196.379 195.323 197.27 195.323C197.911 195.323 198.481 195.429 198.98 195.64C199.478 195.851 199.897 196.146 200.237 196.523C200.577 196.901 200.833 197.358 201.007 197.894C201.181 198.43 201.268 199.019 201.268 199.661V207H200.373C200.177 207 200.025 206.97 199.92 206.909C199.814 206.841 199.731 206.713 199.671 206.524L199.444 205.437C199.142 205.716 198.848 205.966 198.561 206.185C198.274 206.396 197.972 206.577 197.655 206.728C197.337 206.872 196.998 206.981 196.635 207.057C196.28 207.14 195.884 207.181 195.446 207.181C195.001 207.181 194.581 207.121 194.189 207C193.796 206.872 193.453 206.683 193.158 206.434C192.871 206.185 192.641 205.871 192.467 205.494C192.301 205.109 192.218 204.656 192.218 204.135C192.218 203.681 192.343 203.247 192.592 202.832C192.841 202.409 193.245 202.035 193.804 201.711C194.362 201.386 195.091 201.122 195.99 200.918C196.888 200.707 197.991 200.586 199.297 200.556V199.661C199.297 198.77 199.104 198.098 198.719 197.645C198.334 197.184 197.772 196.954 197.032 196.954C196.533 196.954 196.114 197.018 195.774 197.146C195.442 197.267 195.152 197.407 194.902 197.565C194.661 197.716 194.449 197.856 194.268 197.985C194.094 198.105 193.921 198.166 193.747 198.166C193.611 198.166 193.494 198.132 193.396 198.064C193.298 197.988 193.215 197.898 193.147 197.792L192.784 197.146Z" fill="#101734"/>
<g clip-path="url(#clip0_581_3869)">
<g clip-path="url(#clip1_581_3869)">
<path d="M107.5 64.5938H105C103.939 64.5938 102.922 65.0119 102.172 65.7562C101.421 66.5005 101 67.5099 101 68.5625V72.5312C101 73.5838 101.421 74.5933 102.172 75.3376C102.922 76.0819 103.939 76.5 105 76.5H108.985C108.95 87.2039 107.612 97.8645 105 108.25H137C134.388 97.8645 133.05 87.2039 133.015 76.5H137C138.061 76.5 139.078 76.0819 139.828 75.3376C140.579 74.5933 141 73.5838 141 72.5312V68.5625C141 67.5099 140.579 66.5005 139.828 65.7562C139.078 65.0119 138.061 64.5938 137 64.5938H134.5L142.972 42.1753C143.2 41.5744 143.277 40.9279 143.197 40.2911C143.117 39.6543 142.883 39.0462 142.514 38.5189C142.145 37.9916 141.653 37.561 141.08 37.2638C140.507 36.9666 139.869 36.8117 139.222 36.8125H125V28.875H131C131.53 28.875 132.039 28.6659 132.414 28.2938C132.789 27.9216 133 27.4169 133 26.8906V22.9219C133 22.3956 132.789 21.8909 132.414 21.5187C132.039 21.1466 131.53 20.9375 131 20.9375H125V14.9844C125 14.4581 124.789 13.9534 124.414 13.5812C124.039 13.2091 123.53 13 123 13H119C118.47 13 117.961 13.2091 117.586 13.5812C117.211 13.9534 117 14.4581 117 14.9844V20.9375H111C110.47 20.9375 109.961 21.1466 109.586 21.5187C109.211 21.8909 109 22.3956 109 22.9219V26.8906C109 27.4169 109.211 27.9216 109.586 28.2938C109.961 28.6659 110.47 28.875 111 28.875H117V36.8125H102.773C102.126 36.8117 101.488 36.9666 100.915 37.2638C100.342 37.561 99.8498 37.9916 99.4812 38.5189C99.1125 39.0462 98.8781 39.6543 98.7983 40.2911C98.7184 40.9279 98.7953 41.5744 99.0225 42.1753L107.5 64.5938ZM150.79 126.997L145 124.125V120.156C145 119.104 144.579 118.094 143.828 117.35C143.078 116.606 142.061 116.188 141 116.188H101C99.9391 116.188 98.9217 116.606 98.1716 117.35C97.4214 118.094 97 119.104 97 120.156V124.125L91.2125 126.997C90.5479 127.327 89.9888 127.833 89.598 128.46C89.2072 129.087 89.0002 129.81 89 130.547V136.031C89 137.084 89.4214 138.093 90.1716 138.838C90.9217 139.582 91.9391 140 93 140H149C150.061 140 151.078 139.582 151.828 138.838C152.579 138.093 153 137.084 153 136.031V130.547C153 129.81 152.793 129.088 152.403 128.461C152.013 127.834 151.454 127.327 150.79 126.997ZM173.982 87.8605L173.16 108.25H204.84L204.018 87.8581L210.168 82.7012C211.056 81.9552 211.77 81.0258 212.259 79.9779C212.748 78.93 213.001 77.7888 213 76.6339V62.1133C213 61.7186 212.842 61.34 212.561 61.0609C212.279 60.7818 211.898 60.625 211.5 60.625H204.905C204.507 60.625 204.126 60.7818 203.844 61.0609C203.563 61.34 203.405 61.7186 203.405 62.1133V68.5625H197.228V62.1133C197.228 61.7186 197.069 61.34 196.788 61.0609C196.507 60.7818 196.125 60.625 195.728 60.625H182.275C181.877 60.625 181.496 60.7818 181.214 61.0609C180.933 61.34 180.775 61.7186 180.775 62.1133V68.5625H174.598V62.1133C174.598 61.7186 174.439 61.34 174.158 61.0609C173.877 60.7818 173.495 60.625 173.098 60.625H166.5C166.102 60.625 165.721 60.7818 165.439 61.0609C165.158 61.34 165 61.7186 165 62.1133V76.6488C165.002 77.8018 165.257 78.9404 165.747 79.9857C166.238 81.0309 166.952 81.9575 167.84 82.7012L173.982 87.8605ZM185 88.4062C185 87.3537 185.421 86.3442 186.172 85.5999C186.922 84.8556 187.939 84.4375 189 84.4375C190.061 84.4375 191.078 84.8556 191.828 85.5999C192.579 86.3442 193 87.3537 193 88.4062V96.3438H185V88.4062ZM214.79 126.997L209 124.125V120.156C209 119.104 208.579 118.094 207.828 117.35C207.078 116.606 206.061 116.188 205 116.188H173C171.939 116.188 170.922 116.606 170.172 117.35C169.421 118.094 169 119.104 169 120.156V124.125L163.213 126.997C162.548 127.327 161.989 127.833 161.598 128.46C161.207 129.087 161 129.81 161 130.547V136.031C161 137.084 161.421 138.093 162.172 138.838C162.922 139.582 163.939 140 165 140H213C214.061 140 215.078 139.582 215.828 138.838C216.579 138.093 217 137.084 217 136.031V130.547C217 129.81 216.793 129.088 216.403 128.461C216.013 127.834 215.454 127.327 214.79 126.997Z" fill="#101734"/>
</g>
</g>
</g>
<defs>
<filter id="filter0_d_581_3869" x="0" y="0" width="316" height="240" filterUnits="userSpaceOnUse" color-interpolation-filters="sRGB">
<feFlood flood-opacity="0" result="BackgroundImageFix"/>
<feColorMatrix in="SourceAlpha" type="matrix" values="0 0 0 0 0 0 0 0 0 0 0 0 0 0 0 0 0 0 127 0" result="hardAlpha"/>
<feOffset dx="10" dy="10"/>
<feComposite in2="hardAlpha" operator="out"/>
<feColorMatrix type="matrix" values="0 0 0 0 0 0 0 0 0 0 0 0 0 0 0 0 0 0 1 0"/>
<feBlend mode="normal" in2="BackgroundImageFix" result="effect1_dropShadow_581_3869"/>
<feBlend mode="normal" in="SourceGraphic" in2="effect1_dropShadow_581_3869" result="shape"/>
</filter>
<clipPath id="clip0_581_3869">
<rect width="128" height="127" fill="white" transform="translate(89 13)"/>
</clipPath>
<clipPath id="clip1_581_3869">
<rect width="128" height="127" fill="white" transform="translate(89 13)"/>
</clipPath>
</defs>
</svg>
