<svg width="316" height="240" viewBox="0 0 316 240" fill="none" xmlns="http://www.w3.org/2000/svg">
<g filter="url(#filter0_d_581_3987)">
<rect width="306" height="230" rx="10" fill="#7887C7"/>
<path d="M101.088 199.185C101.715 199.185 102.266 199.102 102.741 198.936C103.225 198.77 103.629 198.539 103.953 198.245C104.286 197.943 104.535 197.584 104.701 197.169C104.867 196.754 104.95 196.297 104.95 195.799C104.95 194.764 104.629 193.956 103.987 193.375C103.353 192.793 102.387 192.503 101.088 192.503H98.4828V199.185H101.088ZM101.088 190.77C102.115 190.77 103.006 190.891 103.761 191.132C104.523 191.366 105.154 191.702 105.652 192.14C106.151 192.578 106.521 193.107 106.762 193.726C107.011 194.345 107.136 195.036 107.136 195.799C107.136 196.554 107.004 197.245 106.739 197.871C106.475 198.498 106.086 199.038 105.573 199.491C105.067 199.944 104.437 200.299 103.681 200.556C102.934 200.805 102.069 200.929 101.088 200.929H98.4828V207H96.2969V190.77H101.088ZM111.443 190.317V207H109.427V190.317H111.443ZM120.931 201.835C120.002 201.866 119.209 201.941 118.552 202.062C117.903 202.175 117.37 202.326 116.955 202.515C116.547 202.704 116.249 202.926 116.06 203.183C115.879 203.44 115.789 203.727 115.789 204.044C115.789 204.346 115.838 204.606 115.936 204.825C116.034 205.044 116.166 205.226 116.332 205.369C116.506 205.505 116.706 205.607 116.933 205.675C117.167 205.735 117.416 205.765 117.68 205.765C118.035 205.765 118.36 205.731 118.654 205.664C118.949 205.588 119.224 205.482 119.481 205.346C119.745 205.21 119.994 205.048 120.228 204.859C120.47 204.671 120.704 204.455 120.931 204.214V201.835ZM114.418 197.146C115.052 196.535 115.736 196.078 116.468 195.776C117.201 195.474 118.012 195.323 118.903 195.323C119.545 195.323 120.115 195.429 120.613 195.64C121.112 195.851 121.531 196.146 121.871 196.523C122.21 196.901 122.467 197.358 122.641 197.894C122.814 198.43 122.901 199.019 122.901 199.661V207H122.007C121.81 207 121.659 206.97 121.554 206.909C121.448 206.841 121.365 206.713 121.304 206.524L121.078 205.437C120.776 205.716 120.481 205.966 120.194 206.185C119.907 206.396 119.605 206.577 119.288 206.728C118.971 206.872 118.631 206.981 118.269 207.057C117.914 207.14 117.518 207.181 117.08 207.181C116.634 207.181 116.215 207.121 115.823 207C115.43 206.872 115.086 206.683 114.792 206.434C114.505 206.185 114.275 205.871 114.101 205.494C113.935 205.109 113.852 204.656 113.852 204.135C113.852 203.681 113.976 203.247 114.226 202.832C114.475 202.409 114.879 202.035 115.437 201.711C115.996 201.386 116.725 201.122 117.623 200.918C118.522 200.707 119.624 200.586 120.931 200.556V199.661C120.931 198.77 120.738 198.098 120.353 197.645C119.968 197.184 119.405 196.954 118.665 196.954C118.167 196.954 117.748 197.018 117.408 197.146C117.076 197.267 116.785 197.407 116.536 197.565C116.294 197.716 116.083 197.856 115.902 197.985C115.728 198.105 115.555 198.166 115.381 198.166C115.245 198.166 115.128 198.132 115.03 198.064C114.932 197.988 114.849 197.898 114.781 197.792L114.418 197.146ZM129.34 207.181C128.434 207.181 127.735 206.928 127.244 206.422C126.761 205.916 126.52 205.188 126.52 204.236V197.214H125.138C125.017 197.214 124.915 197.18 124.832 197.112C124.749 197.037 124.707 196.924 124.707 196.773V195.968L126.588 195.731L127.052 192.186C127.075 192.072 127.124 191.982 127.199 191.914C127.282 191.838 127.388 191.801 127.516 191.801H128.536V195.753H131.854V197.214H128.536V204.101C128.536 204.584 128.653 204.942 128.887 205.177C129.121 205.411 129.423 205.528 129.793 205.528C130.004 205.528 130.185 205.501 130.336 205.448C130.495 205.388 130.631 205.324 130.744 205.256C130.857 205.188 130.952 205.127 131.027 205.075C131.11 205.014 131.182 204.984 131.243 204.984C131.348 204.984 131.443 205.048 131.526 205.177L132.115 206.139C131.767 206.464 131.348 206.721 130.857 206.909C130.367 207.091 129.861 207.181 129.34 207.181ZM140.154 201.835C139.225 201.866 138.432 201.941 137.775 202.062C137.126 202.175 136.594 202.326 136.178 202.515C135.771 202.704 135.472 202.926 135.284 203.183C135.102 203.44 135.012 203.727 135.012 204.044C135.012 204.346 135.061 204.606 135.159 204.825C135.257 205.044 135.389 205.226 135.555 205.369C135.729 205.505 135.929 205.607 136.156 205.675C136.39 205.735 136.639 205.765 136.903 205.765C137.258 205.765 137.583 205.731 137.877 205.664C138.172 205.588 138.447 205.482 138.704 205.346C138.968 205.21 139.218 205.048 139.452 204.859C139.693 204.671 139.927 204.455 140.154 204.214V201.835ZM133.641 197.146C134.276 196.535 134.959 196.078 135.691 195.776C136.424 195.474 137.236 195.323 138.126 195.323C138.768 195.323 139.338 195.429 139.837 195.64C140.335 195.851 140.754 196.146 141.094 196.523C141.434 196.901 141.69 197.358 141.864 197.894C142.038 198.43 142.125 199.019 142.125 199.661V207H141.23C141.033 207 140.882 206.97 140.777 206.909C140.671 206.841 140.588 206.713 140.528 206.524L140.301 205.437C139.999 205.716 139.705 205.966 139.418 206.185C139.131 206.396 138.829 206.577 138.512 206.728C138.194 206.872 137.855 206.981 137.492 207.057C137.137 207.14 136.741 207.181 136.303 207.181C135.858 207.181 135.438 207.121 135.046 207C134.653 206.872 134.31 206.683 134.015 206.434C133.728 206.185 133.498 205.871 133.324 205.494C133.158 205.109 133.075 204.656 133.075 204.135C133.075 203.681 133.2 203.247 133.449 202.832C133.698 202.409 134.102 202.035 134.661 201.711C135.219 201.386 135.948 201.122 136.847 200.918C137.745 200.707 138.848 200.586 140.154 200.556V199.661C140.154 198.77 139.961 198.098 139.576 197.645C139.191 197.184 138.629 196.954 137.889 196.954C137.39 196.954 136.971 197.018 136.631 197.146C136.299 197.267 136.009 197.407 135.759 197.565C135.518 197.716 135.306 197.856 135.125 197.985C134.951 198.105 134.778 198.166 134.604 198.166C134.468 198.166 134.351 198.132 134.253 198.064C134.155 197.988 134.072 197.898 134.004 197.792L133.641 197.146ZM145.766 207V197.248L144.498 197.101C144.339 197.063 144.207 197.007 144.101 196.931C144.003 196.848 143.954 196.731 143.954 196.58V195.753H145.766V194.643C145.766 193.986 145.857 193.405 146.038 192.899C146.227 192.386 146.491 191.955 146.831 191.608C147.178 191.253 147.593 190.985 148.077 190.804C148.56 190.623 149.103 190.532 149.707 190.532C150.221 190.532 150.693 190.608 151.123 190.759L151.078 191.767C151.063 191.948 150.961 192.046 150.772 192.061C150.591 192.076 150.346 192.084 150.036 192.084C149.689 192.084 149.371 192.129 149.085 192.22C148.805 192.31 148.564 192.457 148.36 192.661C148.156 192.865 147.997 193.133 147.884 193.465C147.778 193.798 147.725 194.209 147.725 194.7V195.753H151.033V197.214H147.793V207H145.766ZM157.42 195.346C158.258 195.346 159.013 195.485 159.685 195.765C160.357 196.044 160.931 196.44 161.407 196.954C161.883 197.467 162.245 198.09 162.494 198.823C162.751 199.547 162.879 200.359 162.879 201.258C162.879 202.164 162.751 202.979 162.494 203.704C162.245 204.429 161.883 205.048 161.407 205.562C160.931 206.075 160.357 206.471 159.685 206.751C159.013 207.023 158.258 207.159 157.42 207.159C156.574 207.159 155.812 207.023 155.132 206.751C154.46 206.471 153.886 206.075 153.411 205.562C152.935 205.048 152.569 204.429 152.312 203.704C152.063 202.979 151.938 202.164 151.938 201.258C151.938 200.359 152.063 199.547 152.312 198.823C152.569 198.09 152.935 197.467 153.411 196.954C153.886 196.44 154.46 196.044 155.132 195.765C155.812 195.485 156.574 195.346 157.42 195.346ZM157.42 205.584C158.553 205.584 159.398 205.207 159.957 204.452C160.516 203.689 160.795 202.628 160.795 201.269C160.795 199.902 160.516 198.838 159.957 198.075C159.398 197.312 158.553 196.931 157.42 196.931C156.846 196.931 156.344 197.029 155.914 197.226C155.491 197.422 155.136 197.705 154.849 198.075C154.57 198.445 154.358 198.902 154.215 199.446C154.079 199.982 154.011 200.589 154.011 201.269C154.011 202.628 154.29 203.689 154.849 204.452C155.415 205.207 156.272 205.584 157.42 205.584ZM167.35 197.826C167.713 197.041 168.158 196.429 168.687 195.991C169.215 195.546 169.861 195.323 170.624 195.323C170.865 195.323 171.096 195.349 171.314 195.402C171.541 195.455 171.741 195.538 171.915 195.651L171.768 197.158C171.722 197.346 171.609 197.441 171.428 197.441C171.322 197.441 171.167 197.418 170.963 197.373C170.76 197.328 170.529 197.305 170.273 197.305C169.91 197.305 169.585 197.358 169.298 197.464C169.019 197.569 168.766 197.728 168.54 197.939C168.321 198.143 168.121 198.4 167.939 198.709C167.766 199.011 167.607 199.359 167.464 199.751V207H165.436V195.527H166.592C166.811 195.527 166.962 195.568 167.045 195.651C167.128 195.734 167.184 195.878 167.214 196.082L167.35 197.826ZM173.687 207V195.527H174.899C175.186 195.527 175.364 195.666 175.432 195.946L175.579 197.124C176.002 196.603 176.477 196.176 177.006 195.844C177.535 195.512 178.146 195.346 178.841 195.346C179.611 195.346 180.234 195.561 180.71 195.991C181.193 196.422 181.54 197.003 181.752 197.735C181.918 197.32 182.129 196.961 182.386 196.659C182.65 196.357 182.945 196.108 183.269 195.912C183.594 195.716 183.938 195.572 184.3 195.481C184.67 195.391 185.044 195.346 185.421 195.346C186.025 195.346 186.561 195.444 187.03 195.64C187.505 195.829 187.905 196.108 188.23 196.478C188.562 196.848 188.815 197.305 188.989 197.849C189.163 198.385 189.249 199 189.249 199.695V207H187.222V199.695C187.222 198.796 187.026 198.117 186.633 197.656C186.24 197.188 185.674 196.954 184.934 196.954C184.602 196.954 184.285 197.014 183.983 197.135C183.688 197.248 183.428 197.418 183.201 197.645C182.975 197.871 182.794 198.158 182.658 198.505C182.529 198.845 182.465 199.242 182.465 199.695V207H180.438V199.695C180.438 198.774 180.253 198.086 179.883 197.633C179.513 197.18 178.973 196.954 178.263 196.954C177.765 196.954 177.304 197.09 176.881 197.362C176.459 197.626 176.07 197.988 175.715 198.449V207H173.687ZM198.531 201.835C197.603 201.866 196.81 201.941 196.153 202.062C195.504 202.175 194.971 202.326 194.556 202.515C194.148 202.704 193.85 202.926 193.661 203.183C193.48 203.44 193.389 203.727 193.389 204.044C193.389 204.346 193.438 204.606 193.537 204.825C193.635 205.044 193.767 205.226 193.933 205.369C194.107 205.505 194.307 205.607 194.533 205.675C194.767 205.735 195.017 205.765 195.281 205.765C195.636 205.765 195.96 205.731 196.255 205.664C196.549 205.588 196.825 205.482 197.082 205.346C197.346 205.21 197.595 205.048 197.829 204.859C198.071 204.671 198.305 204.455 198.531 204.214V201.835ZM192.019 197.146C192.653 196.535 193.337 196.078 194.069 195.776C194.801 195.474 195.613 195.323 196.504 195.323C197.146 195.323 197.716 195.429 198.214 195.64C198.713 195.851 199.132 196.146 199.471 196.523C199.811 196.901 200.068 197.358 200.242 197.894C200.415 198.43 200.502 199.019 200.502 199.661V207H199.607C199.411 207 199.26 206.97 199.154 206.909C199.049 206.841 198.966 206.713 198.905 206.524L198.679 205.437C198.377 205.716 198.082 205.966 197.795 206.185C197.508 206.396 197.206 206.577 196.889 206.728C196.572 206.872 196.232 206.981 195.87 207.057C195.515 207.14 195.119 207.181 194.681 207.181C194.235 207.181 193.816 207.121 193.423 207C193.031 206.872 192.687 206.683 192.393 206.434C192.106 206.185 191.875 205.871 191.702 205.494C191.536 205.109 191.453 204.656 191.453 204.135C191.453 203.681 191.577 203.247 191.826 202.832C192.076 202.409 192.48 202.035 193.038 201.711C193.597 201.386 194.326 201.122 195.224 200.918C196.123 200.707 197.225 200.586 198.531 200.556V199.661C198.531 198.77 198.339 198.098 197.954 197.645C197.569 197.184 197.006 196.954 196.266 196.954C195.768 196.954 195.349 197.018 195.009 197.146C194.677 197.267 194.386 197.407 194.137 197.565C193.895 197.716 193.684 197.856 193.503 197.985C193.329 198.105 193.155 198.166 192.982 198.166C192.846 198.166 192.729 198.132 192.631 198.064C192.532 197.988 192.449 197.898 192.381 197.792L192.019 197.146ZM210.255 197.418C210.165 197.584 210.025 197.667 209.836 197.667C209.723 197.667 209.595 197.626 209.451 197.543C209.308 197.46 209.13 197.369 208.919 197.271C208.715 197.165 208.47 197.071 208.183 196.988C207.896 196.897 207.556 196.852 207.163 196.852C206.824 196.852 206.518 196.897 206.246 196.988C205.974 197.071 205.74 197.188 205.544 197.339C205.355 197.49 205.208 197.667 205.102 197.871C205.004 198.068 204.955 198.283 204.955 198.517C204.955 198.811 205.038 199.057 205.204 199.253C205.378 199.449 205.604 199.619 205.884 199.763C206.163 199.906 206.48 200.035 206.835 200.148C207.19 200.253 207.552 200.371 207.922 200.499C208.3 200.62 208.666 200.756 209.021 200.907C209.376 201.058 209.693 201.246 209.972 201.473C210.252 201.699 210.474 201.979 210.64 202.311C210.814 202.636 210.901 203.028 210.901 203.489C210.901 204.017 210.807 204.508 210.618 204.961C210.429 205.407 210.15 205.796 209.78 206.128C209.41 206.453 208.957 206.709 208.421 206.898C207.885 207.087 207.265 207.181 206.563 207.181C205.763 207.181 205.038 207.053 204.389 206.796C203.739 206.532 203.188 206.196 202.735 205.788L203.211 205.018C203.271 204.92 203.343 204.844 203.426 204.791C203.509 204.739 203.615 204.712 203.743 204.712C203.879 204.712 204.022 204.765 204.173 204.871C204.324 204.976 204.506 205.093 204.717 205.222C204.936 205.35 205.2 205.467 205.51 205.573C205.819 205.679 206.204 205.731 206.665 205.731C207.058 205.731 207.401 205.682 207.696 205.584C207.99 205.479 208.236 205.339 208.432 205.165C208.628 204.992 208.772 204.791 208.862 204.565C208.96 204.338 209.01 204.097 209.01 203.84C209.01 203.523 208.923 203.262 208.749 203.059C208.583 202.847 208.36 202.67 208.081 202.526C207.801 202.375 207.481 202.247 207.118 202.141C206.763 202.028 206.397 201.911 206.019 201.79C205.65 201.669 205.283 201.533 204.921 201.382C204.566 201.224 204.249 201.027 203.969 200.793C203.69 200.559 203.464 200.272 203.29 199.933C203.124 199.585 203.041 199.166 203.041 198.675C203.041 198.237 203.131 197.818 203.313 197.418C203.494 197.01 203.758 196.656 204.105 196.354C204.453 196.044 204.879 195.799 205.385 195.617C205.891 195.436 206.469 195.346 207.118 195.346C207.873 195.346 208.549 195.466 209.145 195.708C209.75 195.942 210.271 196.267 210.708 196.682L210.255 197.418Z" fill="#101734"/>
<path d="M168.5 46.2548L153.125 54.4128L137.685 46.2548L153.125 38.0968L168.5 46.2548ZM191.92 58.6381L176.48 66.7961L191.92 74.9541L207.295 66.7961L191.92 58.6381ZM118.323 77.0656L133.763 85.2236L149.138 77.0656L133.763 68.9076L118.323 77.0656ZM153.202 58.6541L137.763 66.8121L153.202 74.9701L168.577 66.8121L153.202 58.6541ZM96.75 86.1811L112.25 94.3368V78.1122L96.75 69.9656V86.1902V86.1811ZM190 80.2397L174.5 88.3954V104.606L190 96.4574V80.2397ZM133.722 48.3846L118.282 56.5426L133.722 64.7006L149.097 56.5426L133.722 48.3846ZM116.25 96.4506L131.75 104.606V88.3954L116.25 80.2397V96.4643V96.4506ZM172.603 68.9258L157.162 77.0839L172.603 85.2419L187.978 77.0839L172.603 68.9258ZM151.25 98.6786L135.75 90.5206V106.745L151.25 114.903V98.6786ZM170.5 90.5274L155.25 98.6786V114.889L170.5 106.741V90.5274ZM172.518 48.3663L157.077 56.5243L172.518 64.6823L187.893 56.5243L172.518 48.3663ZM114.368 58.6381L98.925 66.7961L114.365 74.9541L129.74 66.7961L114.368 58.6381ZM209.25 70.0022L194 78.151V94.3619L209.25 86.2131V70.0022ZM137.722 87.3533L153.162 95.5114L168.537 87.3533L153.162 79.1953L137.722 87.3533Z" fill="#101734"/>
</g>
<defs>
<filter id="filter0_d_581_3987" x="0" y="0" width="316" height="240" filterUnits="userSpaceOnUse" color-interpolation-filters="sRGB">
<feFlood flood-opacity="0" result="BackgroundImageFix"/>
<feColorMatrix in="SourceAlpha" type="matrix" values="0 0 0 0 0 0 0 0 0 0 0 0 0 0 0 0 0 0 127 0" result="hardAlpha"/>
<feOffset dx="10" dy="10"/>
<feComposite in2="hardAlpha" operator="out"/>
<feColorMatrix type="matrix" values="0 0 0 0 0 0 0 0 0 0 0 0 0 0 0 0 0 0 1 0"/>
<feBlend mode="normal" in2="BackgroundImageFix" result="effect1_dropShadow_581_3987"/>
<feBlend mode="normal" in="SourceGraphic" in2="effect1_dropShadow_581_3987" result="shape"/>
</filter>
</defs>
</svg>
