<svg width="80" height="80" viewBox="0 0 80 80" fill="none" xmlns="http://www.w3.org/2000/svg">
<g clip-path="url(#clip0_812_12739)">
<rect width="80" height="80" rx="5" fill="#103843"/>
<path d="M76.3636 0H3.63636C1.62812 0 0 1.62812 0 3.63636V76.3636C0 78.3719 1.62812 80 3.63636 80H76.3636C78.3719 80 80 78.3719 80 76.3636V3.63636C80 1.62812 78.3719 0 76.3636 0ZM52.2681 56.8228C53.6882 58.2427 53.6882 60.5452 52.2681 61.9653C51.5583 62.6752 50.6276 63.0303 49.697 63.0303C48.7663 63.0303 47.8356 62.6754 47.1258 61.9651L27.7319 42.5716C27.0499 41.8897 26.6667 40.9648 26.6667 40.0005C26.6667 39.0361 27.0497 38.111 27.7319 37.4291L47.1258 18.0347C48.5457 16.6145 50.8482 16.6145 52.2684 18.0347C53.6885 19.4545 53.6885 21.7571 52.2684 23.1772L35.4458 40.0005L52.2681 56.8228Z" fill="#101734"/>
</g>
<defs>
<clipPath id="clip0_812_12739">
<rect width="80" height="80" fill="white"/>
</clipPath>
</defs>
</svg>
