<svg width="34" height="26" viewBox="0 0 34 26" fill="none" xmlns="http://www.w3.org/2000/svg">
<g clip-path="url(#clip0_703_1052)">
<path d="M29.3981 0.154816L28.4801 4.43773H0L1.93323 13.4863C2.14478 14.4732 3.38785 15.2807 4.69566 15.2807H26.1559L25.4827 18.4215H2.31445V20.1347H27.3856L31.3011 1.86804H34V0.154873H29.3981V0.154816Z" fill="#273570"/>
<path d="M4.92813 25.8452C6.37163 25.8452 7.54181 24.9503 7.54181 23.8465C7.54181 22.7426 6.37163 21.8478 4.92813 21.8478C3.48464 21.8478 2.31445 22.7426 2.31445 23.8465C2.31445 24.9503 3.48464 25.8452 4.92813 25.8452Z" fill="#273570"/>
<path d="M24.0155 25.8452C25.459 25.8452 26.6292 24.9503 26.6292 23.8465C26.6292 22.7426 25.459 21.8478 24.0155 21.8478C22.572 21.8478 21.4018 22.7426 21.4018 23.8465C21.4018 24.9503 22.572 25.8452 24.0155 25.8452Z" fill="#273570"/>
<path d="M25.2092 1.0114H16.5658V2.72457H25.2092V1.0114Z" fill="#273570"/>
<path d="M11.3384 1.0114H2.69501V2.72457H11.3384V1.0114Z" fill="#273570"/>
<ellipse cx="30.9487" cy="2.9355" rx="3.05128" ry="2.93548" fill="#D99F09"/>
</g>
<defs>
<clipPath id="clip0_703_1052">
<rect width="34" height="26" fill="white"/>
</clipPath>
</defs>
</svg>
