<svg width="34" height="34" viewBox="0 0 34 34" fill="none" xmlns="http://www.w3.org/2000/svg">
<g clip-path="url(#clip0_1014_3484)">
<path d="M29.3981 0.202393L28.4801 5.80313H0L1.93323 17.6359C2.14478 18.9265 3.38785 19.9824 4.69566 19.9824H26.1559L25.4827 24.0896H2.31445V26.3299H27.3856L31.3011 2.44276H34V0.202467H29.3981V0.202393Z" fill="#101734"/>
<path d="M4.92813 33.7975C6.37163 33.7975 7.54181 32.6274 7.54181 31.1839C7.54181 29.7404 6.37163 28.5702 4.92813 28.5702C3.48464 28.5702 2.31445 29.7404 2.31445 31.1839C2.31445 32.6274 3.48464 33.7975 4.92813 33.7975Z" fill="#101734"/>
<path d="M24.0154 33.7975C25.4589 33.7975 26.6291 32.6274 26.6291 31.1839C26.6291 29.7404 25.4589 28.5702 24.0154 28.5702C22.5719 28.5702 21.4017 29.7404 21.4017 31.1839C21.4017 32.6274 22.5719 33.7975 24.0154 33.7975Z" fill="#101734"/>
<path d="M25.2092 1.32263H16.5658V3.56293H25.2092V1.32263Z" fill="#101734"/>
<path d="M11.3384 1.32263H2.69495V3.56293H11.3384V1.32263Z" fill="#101734"/>
<ellipse cx="30.9487" cy="3.83871" rx="3.05128" ry="3.83871" fill="#D99F09"/>
</g>
<defs>
<clipPath id="clip0_1014_3484">
<rect width="34" height="34" fill="white"/>
</clipPath>
</defs>
</svg>
