<svg width="39" height="31" viewBox="0 0 39 31" fill="none" xmlns="http://www.w3.org/2000/svg">
<g clip-path="url(#clip0_596_3626)">
<g clip-path="url(#clip1_596_3626)">
<path d="M5.65283 30.8154C7.3086 30.8154 8.65087 29.7485 8.65087 28.4324C8.65087 27.1162 7.3086 26.0493 5.65283 26.0493C3.99705 26.0493 2.65479 27.1162 2.65479 28.4324C2.65479 29.7485 3.99705 30.8154 5.65283 30.8154Z" fill="#4D5EA6"/>
<path d="M2.65479 21.9641V24.0067H18.3199C17.8133 23.3758 17.4054 22.6903 17.1126 21.9641H2.65479Z" fill="#4D5EA6"/>
<path d="M27.6727 12.5095C22.9764 12.5095 19.1556 15.5465 19.1556 19.2794C19.1556 23.0123 22.9763 26.0492 27.6727 26.0492C32.369 26.0492 36.1897 23.0123 36.1897 19.2794C36.1897 15.5465 32.369 12.5095 27.6727 12.5095ZM32.9407 20.3008H28.9576V23.4668H26.3879V20.3008H22.4047V18.2581H26.3879V15.0921H28.9576V18.2581H32.9407V20.3008Z" fill="#4D5EA6"/>
<path d="M33.7214 0.18457L32.6683 5.29113H0L2.21752 16.0799C2.46019 17.2565 3.88606 18.2193 5.3862 18.2193H16.6664C17.3272 13.8582 22.0108 10.4669 27.6726 10.4669C29.9757 10.4669 32.1169 11.0282 33.8914 11.9875L35.9041 2.22726H38.9999V0.184638H33.7214V0.18457Z" fill="#4D5EA6"/>
<path d="M27.6727 28.092C26.6322 28.092 25.6249 27.9772 24.6693 27.7632C24.5912 27.9755 24.5491 28.2 24.5491 28.4324C24.5491 29.7485 25.8913 30.8155 27.5471 30.8155C29.2029 30.8155 30.5452 29.7485 30.5452 28.4324C30.5452 28.2183 30.5091 28.011 30.4424 27.8136C29.5567 27.9953 28.6286 28.092 27.6727 28.092Z" fill="#4D5EA6"/>
</g>
</g>
<defs>
<clipPath id="clip0_596_3626">
<rect width="39" height="31" fill="white"/>
</clipPath>
<clipPath id="clip1_596_3626">
<rect width="39" height="31" fill="white"/>
</clipPath>
</defs>
</svg>
