<svg width="50" height="50" viewBox="0 0 50 50" fill="none" xmlns="http://www.w3.org/2000/svg">
<path d="M41.6667 35.3717C39.5567 35.3717 37.6533 36.1128 36.21 37.3057L16.4167 26.8737C16.57 26.3074 16.6667 25.717 16.6667 25.1145C16.6667 24.512 16.57 23.9246 16.4167 23.3582L36 13.0287C37.5332 14.3342 39.5601 15.0615 41.6667 15.0621C46.2633 15.0621 50 11.6851 50 7.53103C50 3.37691 46.2633 0 41.6667 0C37.07 0 33.3333 3.37691 33.3333 7.53103C33.3333 8.13351 33.43 8.72394 33.5833 9.28726L14 19.6168C12.4659 18.3126 10.4396 17.5855 8.33333 17.5834C3.73667 17.5834 0 20.9604 0 25.1145C0 29.2686 3.73667 32.6455 8.33333 32.6455C10.4399 32.645 12.4668 31.9177 14 30.6121L33.7933 41.0441C33.6476 41.5825 33.5726 42.1346 33.57 42.6889C33.5707 44.1352 34.0458 45.5489 34.9354 46.7513C35.8249 47.9536 37.089 48.8906 38.5677 49.4438C40.0464 49.997 41.6734 50.1416 43.2431 49.8593C44.8127 49.577 46.2545 48.8805 47.3862 47.8577C48.5179 46.835 49.2886 45.532 49.601 44.1135C49.9134 42.695 49.7534 41.2246 49.1412 39.8883C48.5291 38.5519 47.4923 37.4096 46.1618 36.6056C44.8314 35.8017 43.2671 35.3723 41.6667 35.3717V35.3717Z" fill="#101734"/>
</svg>
