<svg width="51" height="44" viewBox="0 0 51 44" fill="none" xmlns="http://www.w3.org/2000/svg">
<ellipse cx="25.5" cy="22" rx="25.5" ry="22" fill="#273570"/>
<g clip-path="url(#clip0_554_3288)">
<path d="M22.3561 19.7144H21.3533V21.4254H22.3561C22.9292 21.4254 23.3988 21.0401 23.3988 20.5699C23.3988 20.0997 22.9292 19.7144 22.3561 19.7144Z" fill="#01CF3F"/>
<path d="M39.2773 17.3045V10.6955H31.2227L25.5 6L19.7773 10.6955H11.7227V17.3241L6 22L11.7227 26.6955V33.3241H19.8012L25.5 38L31.2227 33.3045H39.3012V26.6955L45 22L39.2773 17.3045ZM17.8114 21.4253C18.1935 21.4253 18.5118 21.68 18.5118 22C18.5118 22.32 18.2014 22.5747 17.8114 22.5747H15.758V24.8604C15.758 25.1739 15.4476 25.4351 15.0576 25.4351C14.6676 25.4351 14.3571 25.1804 14.3571 24.8604V19.1527C14.3571 18.8392 14.6676 18.578 15.0576 18.578H17.8035C18.1855 18.578 18.5039 18.8327 18.5039 19.1527C18.5039 19.4661 18.1935 19.7273 17.8035 19.7273H15.75V21.4384H17.8114V21.4253ZM24.4096 25.298C24.2106 25.3698 23.6933 25.3829 23.4704 25.0433L21.9422 22.5682H21.3453V24.8539C21.3453 25.1673 21.0349 25.4286 20.6449 25.4286C20.2629 25.4286 19.9445 25.1739 19.9445 24.8539V19.1461C19.9445 18.8327 20.2549 18.5714 20.6449 18.5714H22.3482C23.6933 18.5714 24.7837 19.4661 24.7837 20.5698C24.7837 21.3665 24.2106 22.0588 23.3829 22.3788L24.712 24.5273C24.8871 24.8082 24.7598 25.1608 24.4096 25.298ZM30.0606 21.4253C30.4427 21.4253 30.761 21.68 30.761 22C30.761 22.32 30.4506 22.5747 30.0606 22.5747H28.0071V24.2857H30.0606C30.4427 24.2857 30.761 24.5404 30.761 24.8604C30.761 25.1739 30.4506 25.4351 30.0606 25.4351H27.3147C26.9327 25.4351 26.6143 25.1804 26.6143 24.8604V19.1527C26.6143 18.8392 26.9247 18.578 27.3147 18.578H30.0606C30.4427 18.578 30.761 18.8327 30.761 19.1527C30.761 19.4661 30.4506 19.7273 30.0606 19.7273H28.0071V21.4384H30.0606V21.4253ZM35.9345 21.4253C36.3165 21.4253 36.6349 21.68 36.6349 22C36.6349 22.32 36.3245 22.5747 35.9345 22.5747H33.881V24.2857H35.9345C36.3165 24.2857 36.6349 24.5404 36.6349 24.8604C36.6349 25.1739 36.3245 25.4351 35.9345 25.4351H33.1886C32.8065 25.4351 32.4882 25.1804 32.4882 24.8604V19.1527C32.4882 18.8392 32.7986 18.578 33.1886 18.578H35.9345C36.3165 18.578 36.6349 18.8327 36.6349 19.1527C36.6349 19.4661 36.3245 19.7273 35.9345 19.7273H33.881V21.4384H35.9345V21.4253Z" fill="#01CF3F"/>
</g>
<defs>
<clipPath id="clip0_554_3288">
<rect width="39" height="32" fill="white" transform="translate(6 6)"/>
</clipPath>
</defs>
</svg>
