<svg width="28" height="43" viewBox="0 0 28 43" fill="none" xmlns="http://www.w3.org/2000/svg">
<path d="M15.44 9.50106C15.4041 9.4686 15.3729 9.43643 15.3306 9.4057C14.8606 9.06826 14.848 9.16792 15.3624 8.78877C15.7435 8.50918 16.2056 8.2903 16.6247 8.04851C17.7333 7.4079 18.463 6.54994 18.9562 5.53267C20.0627 3.2487 16.802 1.67081 15.1657 0.319255C13.9833 -0.658881 12.1219 0.832998 13.3028 1.80875C14.2152 2.56399 15.3907 3.17644 16.1847 4.01597C17.0745 4.95602 15.719 5.99306 14.7903 6.51634C13.3546 7.32514 12.1134 8.3994 12.4003 9.55127C5.95707 10.0326 0 12.8562 0 17.8337V31.8059C0 37.9785 6.27988 43 14 43C21.7196 43 28 37.9786 28 31.8059V17.8328C28.0005 12.3986 21.6771 9.76681 15.44 9.50106ZM2.63573 17.8328C2.63573 14.138 7.65183 11.9989 12.8471 11.6434V24.5304C8.10799 24.3397 4.26017 23.4764 2.63573 23.0549V17.8328ZM25.3649 31.8054C25.3649 36.8168 20.2666 40.8927 14.0006 40.8927C7.73444 40.8927 2.63585 36.8168 2.63585 31.8054V25.2701C4.98924 25.8388 9.41881 26.7014 14.6548 26.7014C18.008 26.7014 21.69 26.3426 25.365 25.3315V31.8054H25.3649ZM25.3649 23.0904C22.0322 24.1094 18.6288 24.5079 15.4824 24.5619V11.6124C20.5644 11.856 25.3649 13.8049 25.3649 17.8337V23.0904ZM11.7122 12.7366V23.4251C9.66438 23.7141 3.64392 22.3661 3.64392 22.3661C2.75571 14.8732 6.26317 13.5553 11.7122 12.7366Z" fill="#101734"/>
</svg>
