<svg width="40" height="32" viewBox="0 0 40 32" fill="none" xmlns="http://www.w3.org/2000/svg">
<path d="M39.0591 12.5785L34.1793 9.31525V4.09639C34.1793 3.5087 33.5965 3.0305 32.8802 3.0305H29.8097C29.0935 3.0305 28.5107 3.5087 28.5107 4.09639V5.52438L21.9903 1.16404C21.5186 0.848735 20.897 0.674995 20.2399 0.674995C19.5854 0.674995 18.9667 0.847669 18.4976 1.16133L1.42898 12.5784C0.653447 13.0969 0.699977 13.5486 0.796697 13.7716C0.89318 13.9942 1.20389 14.3676 2.20014 14.3676H4.53736V29.3818C4.53736 30.4533 5.59691 31.3249 6.89927 31.3249H14.2802C15.5716 31.3249 16.5831 30.4713 16.5831 29.3818V23.2248C16.5831 22.6971 17.1741 22.2165 17.8231 22.2165H22.7831C23.4017 22.2165 23.905 22.6689 23.905 23.2248V29.3818C23.905 30.4351 25.0137 31.3249 26.3259 31.3249H33.5888C34.8911 31.3249 35.9507 30.4532 35.9507 29.3818V14.3676H38.2879C39.2842 14.3676 39.5947 13.9942 39.6913 13.7716C39.7881 13.5486 39.8346 13.0969 39.0591 12.5785Z" fill="#273570"/>
</svg>
