<svg width="43" height="43" viewBox="0 0 43 43" fill="none" xmlns="http://www.w3.org/2000/svg">
<path d="M34.6037 6.09659H8.39714C7.13635 6.09659 6.11114 7.10418 6.11114 8.34299V34.6562C6.11114 35.8947 7.13635 36.9024 8.39714 36.9024H34.6037C35.8635 36.9024 36.8887 35.8947 36.8887 34.6562V8.34356C36.8887 7.10487 35.8635 6.09659 34.6037 6.09659ZM22.474 25.8849H18.0796V20.403H13.3215V25.8849H8.92661V11.6983C8.92661 10.8421 9.36855 10.0923 10.2531 9.45006C11.1366 8.80781 12.165 8.48668 13.337 8.48668H18.0498C19.2116 8.48668 20.2398 8.80781 21.1338 9.45006C22.0274 10.0923 22.4741 10.8428 22.4741 11.6983V25.8849H22.474ZM13.3215 11.6983H18.0796V17.1916H13.3215V11.6983ZM38.8909 0H4.10918C1.84046 0 0 1.80835 0 4.03845V38.9616C0 41.192 1.84046 43 4.10907 43H38.8908C41.1595 43 43 41.192 43 38.9616V4.03788C43.0001 1.80835 41.1597 0 38.8909 0ZM38.5089 34.6562C38.5089 36.772 36.7568 38.495 34.6037 38.495H8.39714C6.24377 38.495 4.49096 36.7727 4.49096 34.6562V8.34356C4.49096 6.22753 6.24319 4.50464 8.39714 4.50464H34.6037C36.7561 4.50464 38.5089 6.22696 38.5089 8.34356V34.6562Z" fill="#101734"/>
</svg>
