<svg width="23" height="23" viewBox="0 0 23 23" fill="none" xmlns="http://www.w3.org/2000/svg">
<g opacity="0.75">
<path d="M12.5455 10.5594V4.36113C13.7623 4.7927 14.6365 5.95479 14.6365 7.31775C14.6365 7.89514 15.1046 8.36324 15.682 8.36324C16.2594 8.36324 16.7275 7.89514 16.7275 7.31775C16.7275 4.79333 14.9287 2.68118 12.5455 2.19551V1.04548C12.5455 0.468098 12.0774 0 11.5001 0C10.9227 0 10.4546 0.468098 10.4546 1.04548V2.19551C8.07143 2.68118 6.27264 4.79333 6.27264 7.31775C6.27264 9.84218 8.07143 11.9543 10.4546 12.44V18.6382C9.2377 18.2067 8.36361 17.0446 8.36361 15.6816C8.36361 15.1042 7.89551 14.6361 7.31813 14.6361C6.74074 14.6361 6.27264 15.1042 6.27264 15.6816C6.27264 18.206 8.07143 20.3182 10.4546 20.8039V21.9545C10.4546 22.5319 10.9227 23 11.5001 23C12.0774 23 12.5455 22.5319 12.5455 21.9545V20.8039C14.9287 20.3182 16.7275 18.206 16.7275 15.6816C16.7275 13.1572 14.9286 11.0451 12.5455 10.5594ZM8.36361 7.31775C8.36361 5.95479 9.2377 4.7927 10.4546 4.36113V10.2744C9.2377 9.8428 8.36361 8.68072 8.36361 7.31775ZM12.5455 18.6382V12.725C13.7623 13.1566 14.6365 14.3187 14.6365 15.6816C14.6365 17.0446 13.7623 18.2067 12.5455 18.6382Z" fill="#01CF3F"/>
</g>
</svg>
