<svg width="43" height="43" viewBox="0 0 43 43" fill="none" xmlns="http://www.w3.org/2000/svg">
<path d="M34.6022 6.09741H8.39656C7.13565 6.09741 6.10975 7.10511 6.10975 8.3438V34.6565C6.10975 35.8961 7.13496 36.9044 8.39656 36.9044H34.6023C35.8628 36.9044 36.8887 35.8967 36.8887 34.6565V8.3438C36.888 7.10511 35.8627 6.09741 34.6022 6.09741ZM21.4994 25.9478H8.84523V24.4974L15.9081 11.7503H9.45214V8.54983H21.4553V10.2995L14.5744 22.7365H21.4994V25.9478ZM38.8904 0.000244141H4.10826C1.83965 0.000244141 0 1.8086 0 4.03812V38.961C0 41.1923 1.83976 43.0004 4.10837 43.0004H38.8911C41.1597 43.0004 42.9993 41.1923 42.9993 38.961V4.03812C42.9991 1.8086 41.1595 0.000244141 38.8904 0.000244141ZM38.5082 34.6565C38.5082 36.7728 36.7561 38.4957 34.6023 38.4957H8.39656C6.24296 38.4957 4.49014 36.7734 4.49014 34.6565V8.3438C4.49014 6.22777 6.24238 4.50488 8.39656 4.50488H34.6023C36.7554 4.50488 38.5082 6.2272 38.5082 8.3438V34.6565Z" fill="#101734"/>
</svg>
