<svg width="36" height="33" viewBox="0 0 36 33" fill="none" xmlns="http://www.w3.org/2000/svg">
<path d="M32.5517 0.276855H3.7054C2.19531 0.276855 0.975098 1.48514 0.975098 2.97959V30.0217C0.975098 31.5117 2.19531 32.7234 3.7054 32.7234H32.5517C34.0549 32.7234 35.2786 31.5128 35.2786 30.0217V2.97959C35.2774 1.48514 34.0538 0.276855 32.5517 0.276855ZM24.0331 9.91019C23.3239 9.4991 22.7614 9.17432 22.0544 9.17432C21.3624 9.17432 20.7712 9.34579 20.4687 9.63424C20.1663 9.92041 20.0162 10.4746 20.0162 11.2934V12.505H23.7158L22.9149 15.8755H20.0162V27.0749H15.369V15.8755H13.2002V12.505H15.3713V11.2184C15.3713 9.86363 15.5352 9.05281 15.8583 8.38394C16.1802 7.71734 16.8047 6.97465 17.6731 6.55448C18.5404 6.13544 19.8237 5.92422 21.1516 5.92422C22.5127 5.92422 23.576 6.37392 24.8798 6.73617L24.0331 9.91019Z" fill="#576082"/>
</svg>
