<svg width="40" height="32" viewBox="0 0 40 32" fill="none" xmlns="http://www.w3.org/2000/svg">
<path d="M15.494 3.21366C14.3273 2.94016 12.494 2.66666 11.1606 2.66666C9.82733 2.66666 7.99401 2.94016 6.82734 3.21366C5.66068 3.35042 4.82735 4.03418 4.66067 4.99143C4.32735 5.9487 3.99402 7.45296 3.99402 8.54696C3.99402 9.64098 4.32735 11.1452 4.49401 12.1025C4.66067 13.0598 5.66068 13.7435 6.66068 13.8803C7.82733 14.0171 9.66065 14.2905 10.994 14.2905C12.3273 14.2905 14.1606 14.0171 15.3273 13.8803C16.494 13.7435 17.3273 12.923 17.494 12.1025C17.6606 11.1452 17.9939 9.64098 17.9939 8.54696C17.9939 7.45296 17.6606 5.9487 17.494 4.99143C17.494 4.03418 16.6606 3.35042 15.494 3.21366Z" fill="#273570"/>
<path d="M15.4939 18.2564C14.3272 18.1196 12.4939 17.8461 11.1605 17.8461C9.82723 17.8461 7.99391 18.1196 6.82724 18.2564C5.66059 18.3932 4.82726 19.2136 4.66058 20.0341C4.49392 20.9915 4.16058 22.4957 4.16058 23.5897C4.16058 24.6837 4.49392 26.188 4.66058 27.1452C4.82726 28.1025 5.82725 28.7863 6.82724 28.9231C7.99391 29.0597 9.82723 29.3333 11.1605 29.3333C12.4939 29.3333 14.3272 29.0597 15.4939 28.9231C16.6605 28.7863 17.4939 27.9657 17.6606 27.1452C17.8271 26.188 18.1606 24.6837 18.1606 23.5897C18.1606 22.4957 17.8271 20.9915 17.6606 20.0341C17.4939 19.0769 16.6605 18.3932 15.4939 18.2564Z" fill="#273570"/>
<path d="M25.1605 13.8805C26.3272 14.0173 28.1605 14.2908 29.4938 14.2908C30.8272 14.2908 32.6605 14.0173 33.8271 13.8805C34.9938 13.7437 35.8271 12.9233 35.9937 12.1028C36.1604 11.1455 36.4937 9.64125 36.4937 8.54724C36.4937 7.45323 36.1604 5.94896 35.9937 4.99169C35.8271 4.03444 34.8271 3.35068 33.8271 3.21393C32.6605 3.07717 30.8272 2.80368 29.4938 2.80368C28.1605 2.80368 26.3272 3.07717 25.1605 3.21393C23.9939 3.35068 23.1604 4.17119 22.9938 4.99169C22.8271 5.94896 22.4938 7.45323 22.4938 8.54724C22.4938 9.64125 22.8271 11.1455 22.9938 12.1028C23.1604 13.06 23.9939 13.7437 25.1605 13.8805Z" fill="#273570"/>
<path d="M33.8271 18.2564C32.6605 18.1196 30.8272 17.8461 29.4938 17.8461C28.1605 17.8461 26.3272 18.1196 25.1605 18.2564C23.9939 18.3932 23.1604 19.2136 22.9938 20.0341C22.8271 20.9915 22.4938 22.4957 22.4938 23.5897C22.4938 24.6837 22.8271 26.188 22.9938 27.1452C23.1604 28.1025 24.1604 28.7863 25.1605 28.9231C26.3272 29.0597 28.1605 29.3333 29.4938 29.3333C30.8272 29.3333 32.6605 29.0597 33.8271 28.9231C34.9938 28.7863 35.8271 27.9657 35.9937 27.1452C36.1604 26.188 36.4937 24.6837 36.4937 23.5897C36.4937 22.4957 36.1604 20.9915 35.9937 20.0341C35.8271 19.0769 34.9938 18.3932 33.8271 18.2564Z" fill="#273570"/>
</svg>
