<svg width="28" height="26" viewBox="0 0 28 26" fill="none" xmlns="http://www.w3.org/2000/svg">
<g opacity="0.7" clip-path="url(#clip0_703_1030)">
<path d="M15.9891 20.0562C16.1307 19.9252 16.2493 19.7811 16.3532 19.6309L27.206 9.55337C28.2642 8.56982 28.2652 6.97534 27.206 5.99132C26.1468 5.0087 24.4301 5.00777 23.3699 5.99132L14.0244 14.6703L4.62909 5.94748C3.56988 4.96439 1.85324 4.96393 0.793531 5.94748C0.26468 6.43996 -0.00100163 7.084 2.8375e-06 7.72804C-0.00100163 8.37255 0.26468 9.01706 0.794536 9.50767L11.6945 19.6305C11.7985 19.7811 11.918 19.9247 12.0606 20.0562C12.602 20.559 13.3142 20.801 14.0244 20.7894C14.7335 20.8015 15.4477 20.559 15.9891 20.0562Z" fill="black"/>
</g>
<defs>
<clipPath id="clip0_703_1030">
<rect width="28" height="26" fill="white"/>
</clipPath>
</defs>
</svg>
