<svg width="40" height="30" viewBox="0 0 40 30" fill="none" xmlns="http://www.w3.org/2000/svg">
<path d="M39.6573 11.401C39.4486 10.8907 38.8938 10.5189 38.2259 10.4418L26.8995 9.13377L21.8341 0.974914C21.5354 0.49386 20.919 0.189255 20.2441 0.189255C19.5692 0.189255 18.9528 0.49386 18.6542 0.974914L13.5891 9.13367L2.26233 10.4417C1.59448 10.5189 1.03952 10.8907 0.831014 11.4009C0.622504 11.9112 0.79638 12.4713 1.27971 12.8457L9.47576 19.1954L7.54019 28.1631C7.42613 28.6919 7.69953 29.2262 8.24551 29.5416C8.55437 29.72 8.92021 29.8107 9.28782 29.8107C9.56997 29.8107 9.8533 29.7573 10.1128 29.6489L20.244 25.4153L30.3752 29.6489C30.6362 29.7579 30.922 29.8099 31.2051 29.8107C32.1832 29.8096 32.9756 29.1791 32.9756 28.4014C32.9756 28.2932 32.9603 28.1876 32.9312 28.0865L31.0124 19.1955L39.2084 12.8457C39.6919 12.4713 39.8658 11.9112 39.6573 11.401Z" fill="#273570"/>
</svg>
