<svg width="40" height="32" viewBox="0 0 40 32" fill="none" xmlns="http://www.w3.org/2000/svg">
<path d="M17.1001 13.7143H16.0973V15.4253H17.1001C17.6732 15.4253 18.1428 15.04 18.1428 14.5698C18.1428 14.0996 17.6732 13.7143 17.1001 13.7143Z" fill="#273570"/>
<path d="M34.0214 11.3045V4.69551H25.9667L20.244 0L14.5214 4.69551H6.46667V11.3241L0.744019 16L6.46667 20.6955V27.3241H14.5452L20.244 32L25.9667 27.3045H34.0452V20.6955L39.744 16L34.0214 11.3045ZM12.5554 15.4253C12.9375 15.4253 13.2559 15.68 13.2559 16C13.2559 16.32 12.9454 16.5747 12.5554 16.5747H10.502V18.8604C10.502 19.1739 10.1916 19.4351 9.80157 19.4351C9.41157 19.4351 9.10116 19.1804 9.10116 18.8604V13.1527C9.10116 12.8392 9.41157 12.578 9.80157 12.578H12.5475C12.9295 12.578 13.2479 12.8327 13.2479 13.1527C13.2479 13.4661 12.9375 13.7273 12.5475 13.7273H10.494V15.4384H12.5554V15.4253ZM19.1536 19.298C18.9546 19.3698 18.4373 19.3829 18.2144 19.0433L16.6863 16.5682H16.0893V18.8539C16.0893 19.1673 15.7789 19.4286 15.3889 19.4286C15.0069 19.4286 14.6885 19.1739 14.6885 18.8539V13.1461C14.6885 12.8327 14.9989 12.5714 15.3889 12.5714H17.0922C18.4373 12.5714 19.5277 13.4661 19.5277 14.5698C19.5277 15.3665 18.9546 16.0588 18.1269 16.3788L19.4561 18.5273C19.6312 18.8082 19.5038 19.1608 19.1536 19.298ZM24.8046 15.4253C25.1867 15.4253 25.505 15.68 25.505 16C25.505 16.32 25.1946 16.5747 24.8046 16.5747H22.7512V18.2857H24.8046C25.1867 18.2857 25.505 18.5404 25.505 18.8604C25.505 19.1739 25.1946 19.4351 24.8046 19.4351H22.0587C21.6767 19.4351 21.3583 19.1804 21.3583 18.8604V13.1527C21.3583 12.8392 21.6687 12.578 22.0587 12.578H24.8046C25.1867 12.578 25.505 12.8327 25.505 13.1527C25.505 13.4661 25.1946 13.7273 24.8046 13.7273H22.7512V15.4384H24.8046V15.4253ZM30.6785 15.4253C31.0605 15.4253 31.3789 15.68 31.3789 16C31.3789 16.32 31.0685 16.5747 30.6785 16.5747H28.625V18.2857H30.6785C31.0605 18.2857 31.3789 18.5404 31.3789 18.8604C31.3789 19.1739 31.0685 19.4351 30.6785 19.4351H27.9326C27.5505 19.4351 27.2322 19.1804 27.2322 18.8604V13.1527C27.2322 12.8392 27.5426 12.578 27.9326 12.578H30.6785C31.0605 12.578 31.3789 12.8327 31.3789 13.1527C31.3789 13.4661 31.0685 13.7273 30.6785 13.7273H28.625V15.4384H30.6785V15.4253Z" fill="#273570"/>
</svg>
