<svg width="28" height="43" viewBox="0 0 28 43" fill="none" xmlns="http://www.w3.org/2000/svg">
<path d="M15.4399 9.50101C15.4039 9.46853 15.3729 9.43636 15.3304 9.40564C14.8605 9.06826 14.8479 9.16787 15.3623 8.78873C15.7433 8.5091 16.2058 8.2903 16.6248 8.0484C17.7332 7.40778 18.4629 6.54981 18.9561 5.53263C20.0628 3.24875 16.8018 1.67087 15.1654 0.319202C13.9831 -0.658793 12.1216 0.832894 13.3027 1.80883C14.2152 2.56411 15.3905 3.17647 16.1848 4.0161C17.0742 4.95604 15.7188 5.99312 14.7902 6.5164C13.3546 7.32519 12.1135 8.39939 12.4003 9.55133C5.9572 10.0326 0 12.8562 0 17.8338V31.8062C0 37.9786 6.27985 43 13.9999 43C21.7195 43 28 37.9786 28 31.8062V17.8327C28.0004 12.3985 21.6771 9.76673 15.4399 9.50101ZM2.63571 17.8327C2.63571 14.138 7.6518 11.9986 12.8471 11.6433V24.5302C8.10792 24.3394 4.26016 23.4762 2.63571 23.0548V17.8327ZM25.3649 31.8052C25.3649 36.8167 20.2664 40.8925 14.0003 40.8925C7.73433 40.8925 2.63571 36.8167 2.63571 31.8052V25.27C4.98901 25.8387 9.41874 26.7014 14.6546 26.7014C18.0078 26.7014 21.6898 26.3426 25.3651 25.3314V31.8052H25.3649ZM25.3649 23.0902C22.0322 24.1093 18.6287 24.5076 15.4825 24.5617V11.6122C20.5642 11.8558 25.3649 13.8047 25.3649 17.8335V23.0902ZM24.4735 22.2925C24.4735 22.2925 18.4528 23.6404 16.4051 23.3515V12.6631C21.8549 13.4818 25.362 14.7995 24.4735 22.2925Z" fill="#101734"/>
</svg>
