<svg width="35" height="34" viewBox="0 0 35 34" fill="none" xmlns="http://www.w3.org/2000/svg">
<path d="M25.6996 25.5047C24.0225 25.5047 22.658 24.1792 22.658 22.55V17.6431C22.658 16.0138 24.0225 14.6884 25.6996 14.6884H33.6251C33.6731 14.6884 33.7208 14.6898 33.7683 14.6919V9.8038C33.7683 8.54555 32.7182 7.52554 31.423 7.52554H2.34534C1.05001 7.52547 0 8.54547 0 9.80372V30.3893C0 31.6475 1.05001 32.6676 2.34534 32.6676H31.423C32.7182 32.6676 33.7683 31.6476 33.7683 30.3893V25.5012C33.7208 25.5033 33.6731 25.5047 33.6251 25.5047H25.6996Z" fill="#63A3B5"/>
<path d="M33.6251 16.3074H25.6997C24.9403 16.3074 24.3247 16.9054 24.3247 17.6431V22.55C24.3247 23.2876 24.9403 23.8857 25.6997 23.8857H33.6251C34.3844 23.8857 35 23.2877 35 22.55V17.6431C35 16.9053 34.3844 16.3074 33.6251 16.3074ZM28.4306 22.0243C27.3346 22.0243 26.4461 21.1612 26.4461 20.0965C26.4461 19.0317 27.3346 18.1686 28.4306 18.1686C29.5266 18.1686 30.4151 19.0317 30.4151 20.0965C30.4151 21.1612 29.5266 22.0243 28.4306 22.0243Z" fill="#63A3B5"/>
<path d="M27.3393 3.35224C26.8146 1.80948 25.1018 0.972029 23.5138 1.48174L11.5991 5.30557H28.0036L27.3393 3.35224Z" fill="#63A3B5"/>
</svg>
