<svg width="35" height="34" viewBox="0 0 35 34" fill="none" xmlns="http://www.w3.org/2000/svg">
<g opacity="0.75">
<path fill-rule="evenodd" clip-rule="evenodd" d="M8.75 11.3333C8.75 9.07899 9.67187 6.91698 11.3128 5.32292C12.9538 3.72886 15.1794 2.83333 17.5 2.83333C19.8206 2.83333 22.0462 3.72886 23.6872 5.32292C25.3281 6.91698 26.25 9.07899 26.25 11.3333V15.4657C26.25 16.4617 26.5825 17.4307 27.1979 18.2282L30.1875 22.1C30.4312 22.4157 30.5797 22.7911 30.6162 23.1842C30.6526 23.5772 30.5757 23.9723 30.3941 24.3253C30.2124 24.6783 29.9331 24.9752 29.5875 25.1826C29.242 25.3901 28.8437 25.5 28.4375 25.5H6.5625C6.15626 25.5 5.75804 25.3901 5.41246 25.1826C5.06689 24.9752 4.78762 24.6783 4.60594 24.3253C4.42426 23.9723 4.34736 23.5772 4.38384 23.1842C4.42032 22.7911 4.56875 22.4157 4.8125 22.1L7.80208 18.2282C8.41739 17.4313 8.75 16.4619 8.75 15.4657V11.3333ZM17.5 30.4583C16.4007 30.4581 15.3308 30.1134 14.4493 29.4753C13.5678 28.8372 12.9218 27.9399 12.6073 26.9167H22.3927C22.0782 27.9399 21.4322 28.8372 20.5507 29.4753C19.6692 30.1134 18.5993 30.4581 17.5 30.4583Z" fill="#101734"/>
<circle cx="23.5" cy="6.5" r="3.5" fill="#D99F09"/>
</g>
</svg>
