<svg width="35" height="29" viewBox="0 0 35 29" fill="none" xmlns="http://www.w3.org/2000/svg">
<path d="M4.73318 0.500977H30.2296C32.6519 0.500977 34.6321 2.11788 34.6321 4.09506V24.9063C34.6321 26.8829 32.6519 28.4987 30.2296 28.4987H4.73318C2.3109 28.4987 0.328613 26.8829 0.328613 24.9063V4.09506C0.328613 2.11788 2.3109 0.500977 4.73318 0.500977ZM25.3182 3.61056C24.4677 3.61056 23.774 4.17906 23.774 4.8729V7.88887C23.774 8.58299 24.4677 9.15018 25.3182 9.15018H29.1949C30.044 9.15018 30.7392 8.58299 30.7392 7.88887V4.8729C30.7392 4.17906 30.044 3.61056 29.1949 3.61056H25.3182ZM30.754 12.3409H27.7357C28.0219 13.1039 28.1771 13.9085 28.1771 14.745C28.1771 19.4007 23.4014 23.1768 17.5126 23.1768C11.6253 23.1768 6.84948 19.4007 6.84948 14.745C6.84948 13.9085 7.00613 13.1039 7.29096 12.3409H4.14202V24.1692C4.14202 24.7817 4.75479 25.28 5.50455 25.28H29.392C30.1425 25.28 30.754 24.7817 30.754 24.1692V12.3409ZM17.5127 8.99114C13.7096 8.99114 10.6246 11.4298 10.6246 14.4407C10.6246 17.4485 13.7096 19.889 17.5127 19.889C21.3179 19.889 24.403 17.4485 24.403 14.4407C24.403 11.4297 21.3179 8.99114 17.5127 8.99114Z" fill="#576082"/>
</svg>
