<svg width="34" height="29" viewBox="0 0 34 29" fill="none" xmlns="http://www.w3.org/2000/svg">
<path d="M33.2297 3.7941C32.7062 4.03101 32.168 4.23095 31.6181 4.39327C32.2692 3.64198 32.7656 2.75798 33.0686 1.79063C33.1365 1.57379 33.0661 1.33645 32.8915 1.19464C32.717 1.05272 32.4746 1.03572 32.2825 1.15187C31.1146 1.85863 29.8545 2.36654 28.5333 2.66355C27.2024 1.33667 25.3948 0.581543 23.5261 0.581543C19.5816 0.581543 16.3724 3.85574 16.3724 7.88025C16.3724 8.19721 16.3921 8.51243 16.431 8.82325C11.5362 8.38476 6.98565 5.93007 3.86078 2.01908C3.74942 1.87968 3.57785 1.80456 3.40221 1.81892C3.22645 1.83296 3.06854 1.93409 2.97975 2.0895C2.34596 3.1991 2.0109 4.46818 2.0109 5.75941C2.0109 7.51809 2.62631 9.18672 3.71341 10.4906C3.38286 10.3738 3.06209 10.2278 2.75595 10.0544C2.59159 9.96105 2.39101 9.96247 2.22772 10.058C2.06433 10.1535 1.96189 10.3292 1.95759 10.5213C1.95683 10.5536 1.95683 10.586 1.95683 10.6188C1.95683 13.2439 3.34158 15.6074 5.45869 16.8955C5.27681 16.877 5.09504 16.8501 4.91444 16.8149C4.72826 16.7786 4.53682 16.8452 4.41126 16.9901C4.28549 17.1348 4.24389 17.3366 4.30183 17.5209C5.08547 20.0172 7.10304 21.8533 9.54209 22.4131C7.51915 23.7058 5.20576 24.383 2.77723 24.383C2.2705 24.383 1.76087 24.3526 1.2621 24.2924C1.01432 24.2623 0.777401 24.4116 0.693018 24.652C0.608634 24.8925 0.69807 25.1607 0.908867 25.2986C4.02869 27.3395 7.6361 28.4183 11.3409 28.4183C18.6241 28.4183 23.1803 24.9141 25.7198 21.9745C28.8866 18.3089 30.7029 13.4571 30.7029 8.66323C30.7029 8.46296 30.6999 8.26072 30.6938 8.05913C31.9432 7.09869 33.0189 5.93632 33.8943 4.60034C34.0272 4.39744 34.0128 4.12928 33.8588 3.9425C33.705 3.75561 33.4486 3.69518 33.2297 3.7941Z" fill="#101734"/>
</svg>
