<svg width="39" height="30" viewBox="0 0 39 30" fill="none" xmlns="http://www.w3.org/2000/svg">
<g clip-path="url(#clip0_774_1035)">
<path d="M3.9 6H35.1C37.2538 6 39 4.6568 39 3C39 1.3432 37.2538 0 35.1 0H3.9C1.74616 0 0 1.3432 0 3C0 4.6568 1.74616 6 3.9 6Z" fill="black"/>
<path d="M35.1 12H3.9C1.74616 12 0 13.3432 0 15C0 16.6568 1.74616 18 3.9 18H35.1C37.2538 18 39 16.6568 39 15C39 13.3432 37.2538 12 35.1 12Z" fill="black"/>
<path d="M35.1 24H3.9C1.74616 24 0 25.3432 0 27C0 28.6568 1.74616 30 3.9 30H35.1C37.2538 30 39 28.6568 39 27C39 25.3432 37.2538 24 35.1 24Z" fill="black"/>
</g>
<defs>
<clipPath id="clip0_774_1035">
<rect width="39" height="30" fill="white"/>
</clipPath>
</defs>
</svg>
