<svg width="40" height="32" viewBox="0 0 40 32" fill="none" xmlns="http://www.w3.org/2000/svg">
<path d="M17.1003 13.7143H16.0974V15.4253H17.1003C17.6733 15.4253 18.1429 15.04 18.1429 14.5698C18.1429 14.0996 17.6733 13.7143 17.1003 13.7143Z" fill="#1D233B"/>
<path d="M34.0215 11.3045V4.69551H25.9668L20.2441 0L14.5215 4.69551H6.46679V11.3241L0.744141 16L6.46679 20.6955V27.3241H14.5454L20.2441 32L25.9668 27.3045H34.0454V20.6955L39.7441 16L34.0215 11.3045ZM12.5556 15.4253C12.9376 15.4253 13.256 15.68 13.256 16C13.256 16.32 12.9456 16.5747 12.5556 16.5747H10.5021V18.8604C10.5021 19.1739 10.1917 19.4351 9.80169 19.4351C9.41169 19.4351 9.10128 19.1804 9.10128 18.8604V13.1527C9.10128 12.8392 9.41169 12.578 9.80169 12.578H12.5476C12.9297 12.578 13.248 12.8327 13.248 13.1527C13.248 13.4661 12.9376 13.7273 12.5476 13.7273H10.4941V15.4384H12.5556V15.4253ZM19.1537 19.298C18.9548 19.3698 18.4374 19.3829 18.2145 19.0433L16.6864 16.5682H16.0894V18.8539C16.0894 19.1673 15.779 19.4286 15.389 19.4286C15.007 19.4286 14.6886 19.1739 14.6886 18.8539V13.1461C14.6886 12.8327 14.999 12.5714 15.389 12.5714H17.0923C18.4374 12.5714 19.5278 13.4661 19.5278 14.5698C19.5278 15.3665 18.9548 16.0588 18.127 16.3788L19.4562 18.5273C19.6313 18.8082 19.5039 19.1608 19.1537 19.298ZM24.8048 15.4253C25.1868 15.4253 25.5052 15.68 25.5052 16C25.5052 16.32 25.1947 16.5747 24.8048 16.5747H22.7513V18.2857H24.8048C25.1868 18.2857 25.5052 18.5404 25.5052 18.8604C25.5052 19.1739 25.1947 19.4351 24.8048 19.4351H22.0588C21.6768 19.4351 21.3584 19.1804 21.3584 18.8604V13.1527C21.3584 12.8392 21.6688 12.578 22.0588 12.578H24.8048C25.1868 12.578 25.5052 12.8327 25.5052 13.1527C25.5052 13.4661 25.1947 13.7273 24.8048 13.7273H22.7513V15.4384H24.8048V15.4253ZM30.6786 15.4253C31.0607 15.4253 31.379 15.68 31.379 16C31.379 16.32 31.0686 16.5747 30.6786 16.5747H28.6252V18.2857H30.6786C31.0607 18.2857 31.379 18.5404 31.379 18.8604C31.379 19.1739 31.0686 19.4351 30.6786 19.4351H27.9327C27.5507 19.4351 27.2323 19.1804 27.2323 18.8604V13.1527C27.2323 12.8392 27.5427 12.578 27.9327 12.578H30.6786C31.0607 12.578 31.379 12.8327 31.379 13.1527C31.379 13.4661 31.0686 13.7273 30.6786 13.7273H28.6252V15.4384H30.6786V15.4253Z" fill="#1D233B"/>
</svg>
