<svg width="39" height="32" viewBox="0 0 39 32" fill="none" xmlns="http://www.w3.org/2000/svg">
<path d="M37.7805 18.3084L35.9944 16.9614C35.6665 16.7141 35.4799 16.3654 35.4799 15.9999C35.4799 15.6345 35.6665 15.2858 35.9944 15.0385L37.7805 13.6915C38.2011 13.3743 38.3822 12.8966 38.2551 12.4396C38.128 11.9826 37.7121 11.6166 37.1655 11.4806L34.844 10.9028C34.4178 10.7968 34.0653 10.549 33.8721 10.2198C33.6789 9.89056 33.6627 9.50994 33.8273 9.17044L34.7243 7.321C34.9355 6.8855 34.846 6.3905 34.4899 6.02413C34.1338 5.65769 33.5655 5.47594 33.001 5.548L30.604 5.85394C30.1639 5.91013 29.7154 5.81238 29.3672 5.58456C29.019 5.35675 28.803 5.01956 28.7719 4.65513L28.602 2.6695C28.562 2.20194 28.2196 1.78781 27.705 1.5845C27.1903 1.38113 26.5823 1.41969 26.1117 1.68556L24.1138 2.81463C23.7471 3.02194 23.2912 3.09356 22.8571 3.01231C22.423 2.931 22.0501 2.70419 21.8292 2.38681L20.626 0.658313C20.3428 0.251188 19.8153 0 19.2441 0C18.6729 0 18.1454 0.251188 17.8621 0.65825L16.659 2.38669C16.4381 2.704 16.0654 2.93088 15.6312 3.01219C15.1971 3.0935 14.7412 3.02181 14.3744 2.8145L12.3765 1.68544C11.906 1.41963 11.298 1.38106 10.7833 1.58438C10.2686 1.78775 9.92628 2.20188 9.88629 2.66938L9.71635 4.655C9.6852 5.01956 9.46925 5.35663 9.12107 5.58444C8.77289 5.81225 8.32431 5.91 7.88427 5.85381L5.48722 5.54788C4.92271 5.47581 4.35454 5.6575 3.99836 6.024C3.64218 6.3905 3.55275 6.88544 3.76398 7.32088L4.6609 9.17031C4.82559 9.50981 4.80936 9.89044 4.61611 10.2197C4.42287 10.5489 4.07042 10.7967 3.64424 10.9027L1.32275 11.4804C0.776138 11.6164 0.360239 11.9825 0.233108 12.4394C0.105977 12.8964 0.287114 13.3743 0.707735 13.6914L2.49381 15.0384C2.82173 15.2856 3.00835 15.6344 3.00835 15.9998C3.00835 16.3653 2.82173 16.7139 2.49381 16.9613L0.707659 18.3083C0.287038 18.6255 0.105977 19.1033 0.233032 19.5603C0.360087 20.0173 0.775985 20.3833 1.32267 20.5193L3.64416 21.097C4.07034 21.2031 4.42287 21.4508 4.61604 21.78C4.80929 22.1093 4.82551 22.4899 4.66083 22.8294L3.7639 24.6788C3.55268 25.1143 3.64218 25.6093 3.99828 25.9757C4.35439 26.3421 4.92271 26.5239 5.48714 26.4518L7.88419 26.1459C8.32424 26.0897 8.77281 26.1874 9.12099 26.4153C9.46918 26.6431 9.68512 26.9803 9.71628 27.3447L9.88622 29.3303C9.92621 29.7979 10.2685 30.212 10.7832 30.4153C11.2979 30.6187 11.9059 30.5801 12.3764 30.3143L14.3743 29.1852C14.7411 28.9779 15.197 28.9063 15.6311 28.9876C16.0654 29.0689 16.4381 29.2957 16.659 29.6131L17.8619 31.3416C18.1452 31.7486 18.6726 31.9998 19.2439 31.9998C19.8151 31.9998 20.3426 31.7486 20.6259 31.3416L21.8289 29.6131C22.0498 29.2958 22.4225 29.0689 22.8568 28.9876C23.2909 28.9062 23.7468 28.9779 24.1135 29.1852L26.1114 30.3143C26.582 30.5801 27.19 30.6186 27.7046 30.4153C28.2193 30.2119 28.5617 29.7978 28.6016 29.3303L28.7716 27.3447C28.8027 26.9801 29.0187 26.6431 29.3669 26.4153C29.7151 26.1874 30.1636 26.0897 30.6037 26.1459L33.0007 26.4518C33.5652 26.5239 34.1334 26.3422 34.4896 25.9757C34.8458 25.6092 34.9352 25.1143 34.724 24.6788L33.827 22.8294C33.6624 22.4899 33.6786 22.1093 33.8718 21.78C34.0651 21.4508 34.4176 21.203 34.8437 21.097L37.1652 20.5193C37.7119 20.3833 38.1277 20.0172 38.2548 19.5603C38.3823 19.1034 38.2011 18.6256 37.7805 18.3084ZM14.0759 18.563H14.0758C14.0758 18.8349 13.672 18.9709 13.2679 18.9709C12.895 18.9709 12.5636 18.9114 12.3669 18.6139L10.399 15.6736V18.5629C10.399 18.8349 9.99514 18.9708 9.5912 18.9708C9.18726 18.9708 8.78325 18.8349 8.78325 18.5629V13.1666C8.78325 12.8862 9.18719 12.7588 9.5912 12.7588C10.1712 12.7588 10.3887 12.8012 10.7823 13.4216L12.4602 16.0475V13.1582C12.4602 12.8778 12.8641 12.7588 13.268 12.7588C13.672 12.7588 14.076 12.8777 14.076 13.1582V18.563H14.0759ZM18.3635 15.3508V15.3508C18.6742 15.3508 18.8503 15.5972 18.8503 15.8691C18.8503 16.0986 18.7052 16.3705 18.3635 16.3705H16.8099V17.8152H19.5856C19.8963 17.8152 20.0724 18.0871 20.0724 18.4015C20.0724 18.6734 19.9274 18.9709 19.5856 18.9709H15.8985C15.5463 18.9709 15.1942 18.8349 15.1942 18.563V13.1667C15.1942 12.8948 15.5463 12.7588 15.8985 12.7588H19.5856C19.9274 12.7588 20.0724 13.0562 20.0724 13.3282C20.0724 13.6426 19.8963 13.9146 19.5856 13.9146H16.8099V15.3509H18.3635V15.3508ZM29.694 13.3961L27.6329 18.58C27.5086 18.8775 27.0426 19.0219 26.566 19.0219C26.0999 19.0219 25.6028 18.8774 25.52 18.58L24.9814 16.5659L24.4428 18.58C24.3599 18.8775 23.8628 19.0219 23.3967 19.0219C22.9203 19.0219 22.4439 18.8774 22.33 18.58L20.2689 13.3961C20.2586 13.3706 20.2482 13.3282 20.2482 13.2856C20.2482 12.9967 20.8282 12.7588 21.2943 12.7588C21.5429 12.7588 21.75 12.8268 21.8121 13.0052L23.3864 17.3648L24.2046 14.4924C24.2668 14.2629 24.6293 14.1439 24.9814 14.1439C25.3336 14.1439 25.696 14.2629 25.7582 14.4924L26.5764 17.3648L28.1506 13.0052C28.2128 12.8268 28.42 12.7588 28.6685 12.7588C29.1346 12.7588 29.7146 12.9967 29.7146 13.2856C29.7147 13.3282 29.7042 13.3707 29.694 13.3961Z" fill="#1D233B"/>
</svg>
