<svg width="35" height="34" viewBox="0 0 35 34" fill="none" xmlns="http://www.w3.org/2000/svg">
<path d="M32.2178 0.776733H2.78574C1.24499 0.776733 0 1.98502 0 3.47947V30.5216C0 32.0115 1.24499 33.2232 2.78574 33.2232H32.2178C33.7515 33.2232 35 32.0127 35 30.5216V3.47947C34.9988 1.98502 33.7503 0.776733 32.2178 0.776733ZM23.5262 10.4101C22.8026 9.99898 22.2286 9.6742 21.5073 9.6742C20.8013 9.6742 20.1981 9.84567 19.8894 10.1341C19.5808 10.4203 19.4277 10.9745 19.4277 11.7932V13.0049H23.2024L22.3853 16.3754H19.4277V27.5747H14.6862V16.3754H12.4733V13.0049H14.6885V11.7183C14.6885 10.3635 14.8557 9.55269 15.1854 8.88381C15.5139 8.21721 16.151 7.47453 17.0371 7.05436C17.922 6.63532 19.2313 6.4241 20.5862 6.4241C21.975 6.4241 23.0598 6.87379 24.3901 7.23605L23.5262 10.4101Z" fill="#1D233B"/>
</svg>
