<svg width="40" height="32" viewBox="0 0 40 32" fill="none" xmlns="http://www.w3.org/2000/svg">
<path d="M39.379 12.865C37.9145 6.57439 31.7321 1.50164 24.0655 0.300012C10.3509 -1.84943 -1.50986 7.88251 1.10976 19.1355C2.57432 25.426 8.75674 30.4988 16.4233 31.7004C30.1378 33.8498 41.9986 24.1179 39.379 12.865ZM29.2803 23.4143C28.8042 23.8049 28.1806 24.0002 27.5569 24.0002C26.9332 24.0002 26.3096 23.8049 25.8335 23.4143L18.521 17.4143C18.0639 17.0393 17.8069 16.5315 17.8069 16.0002V8.0002C17.8069 6.8947 18.8983 6.0002 20.2444 6.0002C21.5905 6.0002 22.6819 6.89476 22.6819 8.0002V15.1721L29.2803 20.5861C30.2324 21.3674 30.2324 22.633 29.2803 23.4143Z" fill="#1D233B"/>
</svg>
