<svg width="40" height="32" viewBox="0 0 40 32" fill="none" xmlns="http://www.w3.org/2000/svg">
<path d="M15.4941 3.21366C14.3274 2.94016 12.4941 2.66666 11.1608 2.66666C9.82745 2.66666 7.99413 2.94016 6.82746 3.21366C5.66081 3.35042 4.82747 4.03418 4.6608 4.99143C4.32748 5.9487 3.99414 7.45296 3.99414 8.54696C3.99414 9.64098 4.32748 11.1452 4.49414 12.1025C4.6608 13.0598 5.66081 13.7435 6.6608 13.8803C7.82745 14.0171 9.66078 14.2905 10.9941 14.2905C12.3274 14.2905 14.1608 14.0171 15.3274 13.8803C16.4941 13.7435 17.3274 12.923 17.4942 12.1025C17.6607 11.1452 17.994 9.64098 17.994 8.54696C17.994 7.45296 17.6607 5.9487 17.4942 4.99143C17.4942 4.03418 16.6607 3.35042 15.4941 3.21366Z" fill="#1D233B"/>
<path d="M15.4939 18.2564C14.3273 18.1196 12.4939 17.8461 11.1606 17.8461C9.8273 17.8461 7.99397 18.1196 6.8273 18.2564C5.66065 18.3932 4.82732 19.2136 4.66064 20.0341C4.49398 20.9915 4.16064 22.4957 4.16064 23.5897C4.16064 24.6837 4.49398 26.188 4.66064 27.1452C4.82732 28.1025 5.82731 28.7863 6.8273 28.9231C7.99397 29.0597 9.8273 29.3333 11.1606 29.3333C12.4939 29.3333 14.3273 29.0597 15.4939 28.9231C16.6606 28.7863 17.4939 27.9657 17.6606 27.1452C17.8272 26.188 18.1607 24.6837 18.1607 23.5897C18.1607 22.4957 17.8272 20.9915 17.6606 20.0341C17.4939 19.0769 16.6606 18.3932 15.4939 18.2564Z" fill="#1D233B"/>
<path d="M25.1605 13.8805C26.3273 14.0173 28.1606 14.2908 29.4939 14.2908C30.8272 14.2908 32.6605 14.0173 33.8271 13.8805C34.9939 13.7437 35.8272 12.9233 35.9937 12.1028C36.1605 11.1455 36.4938 9.64125 36.4938 8.54724C36.4938 7.45323 36.1605 5.94896 35.9937 4.99169C35.8272 4.03444 34.8272 3.35068 33.8271 3.21393C32.6605 3.07717 30.8272 2.80368 29.4939 2.80368C28.1606 2.80368 26.3273 3.07717 25.1605 3.21393C23.9939 3.35068 23.1605 4.17119 22.9939 4.99169C22.8272 5.94896 22.4939 7.45323 22.4939 8.54724C22.4939 9.64125 22.8272 11.1455 22.9939 12.1028C23.1605 13.06 23.9939 13.7437 25.1605 13.8805Z" fill="#1D233B"/>
<path d="M33.8271 18.2564C32.6605 18.1196 30.8272 17.8461 29.4939 17.8461C28.1606 17.8461 26.3273 18.1196 25.1605 18.2564C23.9939 18.3932 23.1605 19.2136 22.9939 20.0341C22.8272 20.9915 22.4939 22.4957 22.4939 23.5897C22.4939 24.6837 22.8272 26.188 22.9939 27.1452C23.1605 28.1025 24.1605 28.7863 25.1605 28.9231C26.3273 29.0597 28.1606 29.3333 29.4939 29.3333C30.8272 29.3333 32.6605 29.0597 33.8271 28.9231C34.9939 28.7863 35.8272 27.9657 35.9937 27.1452C36.1605 26.188 36.4938 24.6837 36.4938 23.5897C36.4938 22.4957 36.1605 20.9915 35.9937 20.0341C35.8272 19.0769 34.9939 18.3932 33.8271 18.2564Z" fill="#1D233B"/>
</svg>
