<svg width="316" height="240" viewBox="0 0 316 240" fill="none" xmlns="http://www.w3.org/2000/svg">
<g filter="url(#filter0_d_581_3986)">
<rect width="306" height="230" rx="10" fill="#7887C7"/>
<path d="M119.032 200.975L116.483 194.372C116.408 194.175 116.328 193.949 116.245 193.692C116.162 193.428 116.083 193.148 116.007 192.854C115.849 193.465 115.687 193.975 115.52 194.383L112.972 200.975H119.032ZM123.607 207H121.908C121.712 207 121.553 206.951 121.433 206.853C121.312 206.755 121.221 206.63 121.161 206.479L119.643 202.56H112.361L110.843 206.479C110.798 206.615 110.711 206.736 110.582 206.841C110.454 206.947 110.295 207 110.107 207H108.408L114.898 190.77H117.117L123.607 207ZM134.191 195.527L129.513 207H127.701L123.023 195.527H124.666C124.832 195.527 124.968 195.568 125.073 195.651C125.179 195.734 125.251 195.833 125.288 195.946L128.199 203.33C128.29 203.61 128.369 203.882 128.437 204.146C128.505 204.41 128.569 204.674 128.63 204.939C128.69 204.674 128.754 204.41 128.822 204.146C128.89 203.882 128.973 203.61 129.071 203.33L132.016 195.946C132.061 195.825 132.137 195.727 132.243 195.651C132.348 195.568 132.473 195.527 132.616 195.527H134.191ZM143.409 200.012C143.409 199.544 143.341 199.117 143.205 198.732C143.077 198.339 142.884 198.003 142.627 197.724C142.378 197.437 142.073 197.218 141.71 197.067C141.348 196.909 140.936 196.829 140.476 196.829C139.509 196.829 138.743 197.112 138.176 197.679C137.618 198.237 137.27 199.015 137.134 200.012H143.409ZM145.04 205.392C144.791 205.694 144.492 205.958 144.145 206.185C143.798 206.403 143.424 206.585 143.024 206.728C142.631 206.872 142.224 206.977 141.801 207.045C141.378 207.121 140.959 207.159 140.543 207.159C139.751 207.159 139.018 207.026 138.346 206.762C137.682 206.49 137.104 206.098 136.613 205.584C136.13 205.063 135.753 204.421 135.481 203.659C135.209 202.896 135.073 202.02 135.073 201.031C135.073 200.231 135.194 199.483 135.435 198.789C135.685 198.094 136.04 197.494 136.5 196.988C136.961 196.474 137.523 196.074 138.188 195.787C138.852 195.493 139.6 195.346 140.43 195.346C141.117 195.346 141.752 195.463 142.333 195.697C142.922 195.923 143.428 196.255 143.851 196.693C144.281 197.124 144.617 197.66 144.859 198.302C145.1 198.936 145.221 199.661 145.221 200.476C145.221 200.793 145.187 201.005 145.119 201.11C145.051 201.216 144.923 201.269 144.734 201.269H137.066C137.089 201.994 137.187 202.624 137.361 203.16C137.542 203.697 137.791 204.146 138.108 204.508C138.426 204.863 138.803 205.131 139.241 205.312C139.679 205.486 140.17 205.573 140.713 205.573C141.219 205.573 141.653 205.516 142.016 205.403C142.386 205.282 142.703 205.154 142.967 205.018C143.232 204.882 143.451 204.757 143.624 204.644C143.805 204.523 143.96 204.463 144.089 204.463C144.255 204.463 144.383 204.527 144.474 204.656L145.04 205.392ZM149.6 197.192C149.849 196.912 150.114 196.659 150.393 196.433C150.672 196.206 150.967 196.014 151.276 195.855C151.594 195.689 151.926 195.565 152.273 195.481C152.628 195.391 153.009 195.346 153.417 195.346C154.044 195.346 154.595 195.451 155.071 195.663C155.554 195.867 155.954 196.161 156.271 196.546C156.596 196.924 156.841 197.38 157.007 197.917C157.174 198.453 157.257 199.045 157.257 199.695V207H155.229V199.695C155.229 198.826 155.029 198.154 154.629 197.679C154.236 197.195 153.636 196.954 152.828 196.954C152.232 196.954 151.673 197.097 151.152 197.384C150.638 197.671 150.163 198.06 149.725 198.551V207H147.697V195.527H148.909C149.196 195.527 149.374 195.666 149.442 195.946L149.6 197.192ZM163.696 207.181C162.79 207.181 162.092 206.928 161.601 206.422C161.118 205.916 160.876 205.188 160.876 204.236V197.214H159.494C159.373 197.214 159.271 197.18 159.188 197.112C159.105 197.037 159.064 196.924 159.064 196.773V195.968L160.944 195.731L161.408 192.186C161.431 192.072 161.48 191.982 161.556 191.914C161.639 191.838 161.744 191.801 161.873 191.801H162.892V195.753H166.211V197.214H162.892V204.101C162.892 204.584 163.009 204.942 163.243 205.177C163.477 205.411 163.779 205.528 164.149 205.528C164.361 205.528 164.542 205.501 164.693 205.448C164.851 205.388 164.987 205.324 165.101 205.256C165.214 205.188 165.308 205.127 165.384 205.075C165.467 205.014 165.539 204.984 165.599 204.984C165.705 204.984 165.799 205.048 165.882 205.177L166.471 206.139C166.124 206.464 165.705 206.721 165.214 206.909C164.723 207.091 164.217 207.181 163.696 207.181ZM177.727 195.527V207H176.526C176.239 207 176.058 206.86 175.983 206.581L175.824 205.346C175.326 205.898 174.767 206.343 174.148 206.683C173.529 207.015 172.819 207.181 172.018 207.181C171.392 207.181 170.837 207.079 170.354 206.875C169.878 206.664 169.478 206.37 169.153 205.992C168.828 205.614 168.583 205.158 168.417 204.622C168.258 204.085 168.179 203.493 168.179 202.843V195.527H170.195V202.843C170.195 203.712 170.391 204.384 170.784 204.859C171.184 205.335 171.792 205.573 172.607 205.573C173.204 205.573 173.759 205.433 174.272 205.154C174.793 204.867 175.273 204.474 175.711 203.976V195.527H177.727ZM182.837 197.826C183.2 197.041 183.645 196.429 184.174 195.991C184.702 195.546 185.348 195.323 186.111 195.323C186.352 195.323 186.583 195.349 186.802 195.402C187.028 195.455 187.228 195.538 187.402 195.651L187.255 197.158C187.209 197.346 187.096 197.441 186.915 197.441C186.809 197.441 186.654 197.418 186.45 197.373C186.247 197.328 186.016 197.305 185.76 197.305C185.397 197.305 185.072 197.358 184.786 197.464C184.506 197.569 184.253 197.728 184.027 197.939C183.808 198.143 183.608 198.4 183.426 198.709C183.253 199.011 183.094 199.359 182.951 199.751V207H180.923V195.527H182.079C182.298 195.527 182.449 195.568 182.532 195.651C182.615 195.734 182.671 195.878 182.702 196.082L182.837 197.826ZM195.216 201.835C194.287 201.866 193.494 201.941 192.837 202.062C192.188 202.175 191.655 202.326 191.24 202.515C190.832 202.704 190.534 202.926 190.345 203.183C190.164 203.44 190.074 203.727 190.074 204.044C190.074 204.346 190.123 204.606 190.221 204.825C190.319 205.044 190.451 205.226 190.617 205.369C190.791 205.505 190.991 205.607 191.217 205.675C191.452 205.735 191.701 205.765 191.965 205.765C192.32 205.765 192.645 205.731 192.939 205.664C193.233 205.588 193.509 205.482 193.766 205.346C194.03 205.21 194.279 205.048 194.513 204.859C194.755 204.671 194.989 204.455 195.216 204.214V201.835ZM188.703 197.146C189.337 196.535 190.021 196.078 190.753 195.776C191.485 195.474 192.297 195.323 193.188 195.323C193.83 195.323 194.4 195.429 194.898 195.64C195.397 195.851 195.816 196.146 196.156 196.523C196.495 196.901 196.752 197.358 196.926 197.894C197.099 198.43 197.186 199.019 197.186 199.661V207H196.291C196.095 207 195.944 206.97 195.838 206.909C195.733 206.841 195.65 206.713 195.589 206.524L195.363 205.437C195.061 205.716 194.766 205.966 194.479 206.185C194.192 206.396 193.89 206.577 193.573 206.728C193.256 206.872 192.916 206.981 192.554 207.057C192.199 207.14 191.803 207.181 191.365 207.181C190.919 207.181 190.5 207.121 190.107 207C189.715 206.872 189.371 206.683 189.077 206.434C188.79 206.185 188.56 205.871 188.386 205.494C188.22 205.109 188.137 204.656 188.137 204.135C188.137 203.681 188.261 203.247 188.511 202.832C188.76 202.409 189.164 202.035 189.722 201.711C190.281 201.386 191.01 201.122 191.908 200.918C192.807 200.707 193.909 200.586 195.216 200.556V199.661C195.216 198.77 195.023 198.098 194.638 197.645C194.253 197.184 193.69 196.954 192.95 196.954C192.452 196.954 192.033 197.018 191.693 197.146C191.361 197.267 191.07 197.407 190.821 197.565C190.579 197.716 190.368 197.856 190.187 197.985C190.013 198.105 189.839 198.166 189.666 198.166C189.53 198.166 189.413 198.132 189.315 198.064C189.217 197.988 189.133 197.898 189.065 197.792L188.703 197.146Z" fill="#101734"/>
<path d="M201.552 25.7672C193.786 25.7672 187.357 30.5878 186.28 36.8362H177.276V44.2155C177.276 45.2339 176.289 46.0603 175.069 46.0603C173.849 46.0603 172.862 45.2339 172.862 44.2155V36.8362H168.448V47.9052C168.448 48.9235 167.462 49.75 166.241 49.75C165.021 49.75 164.034 48.9235 164.034 47.9052V36.8362H119.72C118.643 30.5878 112.214 25.7672 104.448 25.7672C95.9319 25.7672 89 31.56 89 38.681V114.319C89 121.44 95.9319 127.233 104.448 127.233H126.517V116.164C126.517 115.145 127.504 114.319 128.724 114.319C129.945 114.319 130.931 115.145 130.931 116.164V127.233H135.345V121.698C135.345 120.68 136.331 119.853 137.552 119.853C138.772 119.853 139.759 120.68 139.759 121.698V127.233H201.552C210.068 127.233 217 121.44 217 114.319V38.681C217 31.56 210.068 25.7672 201.552 25.7672ZM115.483 105.289C112.678 102.894 108.767 101.405 104.448 101.405C100.129 101.405 96.2188 102.894 93.4138 105.289V38.681C93.4138 33.5948 98.3639 29.4569 104.448 29.4569C110.533 29.4569 115.483 33.5948 115.483 38.681V105.289ZM130.284 69.5026L127.164 66.894L132.224 62.6638L127.164 58.4336L130.284 55.825L135.345 60.0552L140.405 55.825L143.526 58.4336L138.465 62.6638L143.526 66.894L140.405 69.5026L135.345 65.2724L130.284 69.5026ZM136.179 78.2729C135.239 78.2729 134.372 77.7692 134.074 76.9815C133.454 75.3322 133.138 73.6184 133.138 71.8879C133.138 70.8696 134.124 70.0431 135.345 70.0431C136.565 70.0431 137.552 70.8696 137.552 71.8879C137.552 73.242 137.797 74.5832 138.284 75.8746C138.651 76.8468 138.004 77.8818 136.841 78.188C136.62 78.2452 136.398 78.2729 136.179 78.2729ZM147.072 86.6613C146.657 87.2387 145.927 87.5579 145.179 87.5579C144.793 87.5579 144.4 87.473 144.044 87.2941C141.692 86.1134 139.642 84.6449 137.956 82.9292C137.181 82.1415 137.318 80.9792 138.26 80.3317C139.209 79.6842 140.597 79.8004 141.365 80.5863C142.731 81.9754 144.395 83.1672 146.315 84.1302C147.361 84.6541 147.701 85.7887 147.072 86.6613ZM164.95 89.7422C164.652 90.5299 163.785 91.0335 162.845 91.0335C162.624 91.0335 162.404 91.0059 162.183 90.9487C160.638 90.5428 159.034 90.3362 157.414 90.3362C155.394 90.3362 153.384 90.1462 151.435 89.7735C150.248 89.5466 149.506 88.556 149.778 87.5634C150.052 86.5691 151.23 85.9418 152.422 86.178C154.046 86.4897 155.723 86.6465 157.414 86.6465C159.484 86.6465 161.534 86.9104 163.507 87.4288C164.67 87.735 165.317 88.77 164.95 89.7422ZM172.061 97.662C170.911 96.0589 169.483 94.666 167.822 93.5241C166.879 92.8765 166.745 91.7143 167.517 90.9266C168.292 90.1425 169.68 90.0263 170.622 90.6738C172.679 92.0869 174.436 93.799 175.844 95.7637C176.47 96.6381 176.133 97.7709 175.087 98.2948C174.731 98.4737 174.338 98.5586 173.952 98.5586C173.204 98.5586 172.474 98.2394 172.061 97.662ZM177.276 108.784C176.055 108.784 175.069 107.958 175.069 106.94C175.069 105.523 174.881 104.121 174.508 102.768C174.235 101.774 174.976 100.785 176.166 100.557C177.353 100.331 178.536 100.948 178.81 101.94C179.255 103.564 179.483 105.246 179.483 106.94C179.483 107.958 178.496 108.784 177.276 108.784ZM212.586 105.289C209.781 102.894 205.871 101.405 201.552 101.405C197.233 101.405 193.322 102.894 190.517 105.289V38.681C190.517 33.5948 195.467 29.4569 201.552 29.4569C207.636 29.4569 212.586 33.5948 212.586 38.681V105.289Z" fill="#101734"/>
</g>
<defs>
<filter id="filter0_d_581_3986" x="0" y="0" width="316" height="240" filterUnits="userSpaceOnUse" color-interpolation-filters="sRGB">
<feFlood flood-opacity="0" result="BackgroundImageFix"/>
<feColorMatrix in="SourceAlpha" type="matrix" values="0 0 0 0 0 0 0 0 0 0 0 0 0 0 0 0 0 0 127 0" result="hardAlpha"/>
<feOffset dx="10" dy="10"/>
<feComposite in2="hardAlpha" operator="out"/>
<feColorMatrix type="matrix" values="0 0 0 0 0 0 0 0 0 0 0 0 0 0 0 0 0 0 1 0"/>
<feBlend mode="normal" in2="BackgroundImageFix" result="effect1_dropShadow_581_3986"/>
<feBlend mode="normal" in="SourceGraphic" in2="effect1_dropShadow_581_3986" result="shape"/>
</filter>
</defs>
</svg>
