<svg width="316" height="240" viewBox="0 0 316 240" fill="none" xmlns="http://www.w3.org/2000/svg">
<g filter="url(#filter0_d_581_3874)">
<rect width="306" height="230" rx="10" fill="#7887C7"/>
<path d="M125.964 205.256C126.591 205.256 127.131 205.184 127.584 205.041C128.037 204.897 128.407 204.697 128.694 204.44C128.988 204.176 129.204 203.866 129.34 203.512C129.475 203.149 129.543 202.753 129.543 202.322C129.543 201.484 129.245 200.824 128.649 200.34C128.052 199.85 127.157 199.604 125.964 199.604H122.453V205.256H125.964ZM122.453 192.503V198.041H125.353C125.972 198.041 126.508 197.973 126.961 197.837C127.422 197.701 127.799 197.513 128.094 197.271C128.396 197.029 128.618 196.739 128.762 196.399C128.905 196.052 128.977 195.674 128.977 195.266C128.977 194.307 128.69 193.609 128.116 193.171C127.542 192.725 126.651 192.503 125.443 192.503H122.453ZM125.443 190.77C126.44 190.77 127.297 190.868 128.014 191.064C128.739 191.261 129.332 191.54 129.793 191.902C130.261 192.265 130.604 192.71 130.823 193.239C131.042 193.76 131.152 194.349 131.152 195.006C131.152 195.406 131.087 195.791 130.959 196.161C130.838 196.523 130.653 196.863 130.404 197.18C130.155 197.497 129.838 197.784 129.453 198.041C129.075 198.29 128.63 198.494 128.116 198.653C129.309 198.879 130.204 199.306 130.801 199.933C131.405 200.552 131.707 201.367 131.707 202.379C131.707 203.066 131.578 203.693 131.322 204.259C131.072 204.825 130.702 205.312 130.212 205.72C129.728 206.128 129.132 206.445 128.422 206.672C127.712 206.891 126.904 207 125.998 207H120.267V190.77H125.443ZM141.938 200.012C141.938 199.544 141.87 199.117 141.734 198.732C141.606 198.339 141.413 198.003 141.156 197.724C140.907 197.437 140.601 197.218 140.239 197.067C139.877 196.909 139.465 196.829 139.004 196.829C138.038 196.829 137.272 197.112 136.705 197.679C136.147 198.237 135.799 199.015 135.663 200.012H141.938ZM143.569 205.392C143.32 205.694 143.021 205.958 142.674 206.185C142.327 206.403 141.953 206.585 141.553 206.728C141.16 206.872 140.752 206.977 140.33 207.045C139.907 207.121 139.488 207.159 139.072 207.159C138.28 207.159 137.547 207.026 136.875 206.762C136.211 206.49 135.633 206.098 135.142 205.584C134.659 205.063 134.282 204.421 134.01 203.659C133.738 202.896 133.602 202.02 133.602 201.031C133.602 200.231 133.723 199.483 133.964 198.789C134.214 198.094 134.568 197.494 135.029 196.988C135.49 196.474 136.052 196.074 136.717 195.787C137.381 195.493 138.129 195.346 138.959 195.346C139.646 195.346 140.281 195.463 140.862 195.697C141.451 195.923 141.957 196.255 142.38 196.693C142.81 197.124 143.146 197.66 143.388 198.302C143.629 198.936 143.75 199.661 143.75 200.476C143.75 200.793 143.716 201.005 143.648 201.11C143.58 201.216 143.452 201.269 143.263 201.269H135.595C135.618 201.994 135.716 202.624 135.89 203.16C136.071 203.697 136.32 204.146 136.637 204.508C136.954 204.863 137.332 205.131 137.77 205.312C138.208 205.486 138.699 205.573 139.242 205.573C139.748 205.573 140.182 205.516 140.545 205.403C140.915 205.282 141.232 205.154 141.496 205.018C141.76 204.882 141.979 204.757 142.153 204.644C142.334 204.523 142.489 204.463 142.617 204.463C142.784 204.463 142.912 204.527 143.003 204.656L143.569 205.392ZM148.31 190.317V207H146.294V190.317H148.31ZM153.664 190.317V207H151.648V190.317H153.664ZM164.612 200.012C164.612 199.544 164.544 199.117 164.408 198.732C164.28 198.339 164.087 198.003 163.831 197.724C163.581 197.437 163.276 197.218 162.913 197.067C162.551 196.909 162.139 196.829 161.679 196.829C160.712 196.829 159.946 197.112 159.379 197.679C158.821 198.237 158.473 199.015 158.337 200.012H164.612ZM166.243 205.392C165.994 205.694 165.696 205.958 165.348 206.185C165.001 206.403 164.627 206.585 164.227 206.728C163.834 206.872 163.427 206.977 163.004 207.045C162.581 207.121 162.162 207.159 161.747 207.159C160.954 207.159 160.221 207.026 159.549 206.762C158.885 206.49 158.307 206.098 157.816 205.584C157.333 205.063 156.956 204.421 156.684 203.659C156.412 202.896 156.276 202.02 156.276 201.031C156.276 200.231 156.397 199.483 156.639 198.789C156.888 198.094 157.243 197.494 157.703 196.988C158.164 196.474 158.726 196.074 159.391 195.787C160.055 195.493 160.803 195.346 161.633 195.346C162.32 195.346 162.955 195.463 163.536 195.697C164.125 195.923 164.631 196.255 165.054 196.693C165.484 197.124 165.82 197.66 166.062 198.302C166.303 198.936 166.424 199.661 166.424 200.476C166.424 200.793 166.39 201.005 166.322 201.11C166.254 201.216 166.126 201.269 165.937 201.269H158.269C158.292 201.994 158.39 202.624 158.564 203.16C158.745 203.697 158.994 204.146 159.311 204.508C159.629 204.863 160.006 205.131 160.444 205.312C160.882 205.486 161.373 205.573 161.916 205.573C162.422 205.573 162.857 205.516 163.219 205.403C163.589 205.282 163.906 205.154 164.17 205.018C164.435 204.882 164.654 204.757 164.827 204.644C165.008 204.523 165.163 204.463 165.292 204.463C165.458 204.463 165.586 204.527 165.677 204.656L166.243 205.392ZM176.817 196.388C176.817 196.531 176.791 196.671 176.738 196.807C176.693 196.943 176.629 197.06 176.546 197.158L170.328 205.426H176.602V207H167.96V206.162C167.96 206.064 167.983 205.95 168.028 205.822C168.074 205.686 168.142 205.558 168.232 205.437L174.484 197.112H168.312V195.527H176.817V196.388ZM185.361 201.835C184.432 201.866 183.639 201.941 182.982 202.062C182.333 202.175 181.8 202.326 181.385 202.515C180.977 202.704 180.679 202.926 180.49 203.183C180.309 203.44 180.219 203.727 180.219 204.044C180.219 204.346 180.268 204.606 180.366 204.825C180.464 205.044 180.596 205.226 180.762 205.369C180.936 205.505 181.136 205.607 181.362 205.675C181.597 205.735 181.846 205.765 182.11 205.765C182.465 205.765 182.79 205.731 183.084 205.664C183.379 205.588 183.654 205.482 183.911 205.346C184.175 205.21 184.424 205.048 184.658 204.859C184.9 204.671 185.134 204.455 185.361 204.214V201.835ZM178.848 197.146C179.482 196.535 180.166 196.078 180.898 195.776C181.631 195.474 182.442 195.323 183.333 195.323C183.975 195.323 184.545 195.429 185.043 195.64C185.542 195.851 185.961 196.146 186.301 196.523C186.64 196.901 186.897 197.358 187.071 197.894C187.244 198.43 187.331 199.019 187.331 199.661V207H186.437C186.24 207 186.089 206.97 185.983 206.909C185.878 206.841 185.795 206.713 185.734 206.524L185.508 205.437C185.206 205.716 184.911 205.966 184.624 206.185C184.337 206.396 184.035 206.577 183.718 206.728C183.401 206.872 183.061 206.981 182.699 207.057C182.344 207.14 181.948 207.181 181.51 207.181C181.064 207.181 180.645 207.121 180.253 207C179.86 206.872 179.516 206.683 179.222 206.434C178.935 206.185 178.705 205.871 178.531 205.494C178.365 205.109 178.282 204.656 178.282 204.135C178.282 203.681 178.406 203.247 178.656 202.832C178.905 202.409 179.309 202.035 179.867 201.711C180.426 201.386 181.155 201.122 182.053 200.918C182.952 200.707 184.054 200.586 185.361 200.556V199.661C185.361 198.77 185.168 198.098 184.783 197.645C184.398 197.184 183.835 196.954 183.095 196.954C182.597 196.954 182.178 197.018 181.838 197.146C181.506 197.267 181.215 197.407 180.966 197.565C180.724 197.716 180.513 197.856 180.332 197.985C180.158 198.105 179.984 198.166 179.811 198.166C179.675 198.166 179.558 198.132 179.46 198.064C179.362 197.988 179.279 197.898 179.211 197.792L178.848 197.146Z" fill="#101734"/>
<g clip-path="url(#clip0_581_3874)">
<path d="M200.719 56.7237C200.321 51.7243 199.138 46.9412 197.295 42.4938L147.526 91.8742L142.149 86.5392L193.649 35.4408C191.935 32.7118 189.95 30.1661 187.73 27.8431L152.013 63.2813L146.636 57.9463L182.071 22.7887C180.844 21.8548 179.57 20.9789 178.253 20.1643L112.351 85.551C120.811 99.013 135.867 107.992 153 107.992C178.116 107.992 198.775 88.7007 200.719 64.2681H204.535C203.642 76.5412 198.396 87.9595 189.538 96.7478C179.779 106.431 166.803 111.764 153.001 111.764C139.199 111.764 126.222 106.431 116.463 96.7481C113.843 94.1493 111.543 91.3191 109.574 88.306C108.129 86.0945 106.865 83.7841 105.788 81.3925C103.372 76.0238 101.9 70.248 101.465 64.2683H105.281C105.679 69.2677 106.862 74.0508 108.705 78.4983L171.144 16.5471C165.546 14.2633 159.419 13 153 13C127.884 13 107.226 32.2911 105.281 56.7237H93.7238V60.4963C93.7238 76.2061 99.8895 90.975 111.085 102.083C121.38 112.298 134.796 118.288 149.198 119.187V132.455H120.555V140H185.445V132.455H156.802V119.187C171.205 118.288 184.62 112.298 194.915 102.083C206.11 90.9748 212.276 76.2053 212.276 60.496V56.7235H200.719V56.7237Z" fill="#101734"/>
</g>
</g>
<defs>
<filter id="filter0_d_581_3874" x="0" y="0" width="316" height="240" filterUnits="userSpaceOnUse" color-interpolation-filters="sRGB">
<feFlood flood-opacity="0" result="BackgroundImageFix"/>
<feColorMatrix in="SourceAlpha" type="matrix" values="0 0 0 0 0 0 0 0 0 0 0 0 0 0 0 0 0 0 127 0" result="hardAlpha"/>
<feOffset dx="10" dy="10"/>
<feComposite in2="hardAlpha" operator="out"/>
<feColorMatrix type="matrix" values="0 0 0 0 0 0 0 0 0 0 0 0 0 0 0 0 0 0 1 0"/>
<feBlend mode="normal" in2="BackgroundImageFix" result="effect1_dropShadow_581_3874"/>
<feBlend mode="normal" in="SourceGraphic" in2="effect1_dropShadow_581_3874" result="shape"/>
</filter>
<clipPath id="clip0_581_3874">
<rect width="128" height="127" fill="white" transform="translate(89 13)"/>
</clipPath>
</defs>
</svg>
