<svg width="316" height="240" viewBox="0 0 316 240" fill="none" xmlns="http://www.w3.org/2000/svg">
<g filter="url(#filter0_d_581_3980)">
<rect width="306" height="230" rx="10" fill="#7887C7"/>
<path d="M124.702 203.648C124.823 203.648 124.929 203.697 125.019 203.795L125.891 204.735C125.227 205.505 124.419 206.105 123.467 206.536C122.524 206.966 121.38 207.181 120.036 207.181C118.873 207.181 117.816 206.981 116.864 206.581C115.913 206.173 115.101 205.607 114.429 204.882C113.757 204.15 113.236 203.274 112.866 202.254C112.496 201.235 112.311 200.114 112.311 198.891C112.311 197.667 112.504 196.546 112.889 195.527C113.274 194.507 113.814 193.632 114.509 192.899C115.211 192.167 116.049 191.6 117.023 191.2C117.997 190.792 119.073 190.589 120.251 190.589C121.406 190.589 122.425 190.774 123.309 191.144C124.192 191.514 124.97 192.016 125.642 192.65L124.917 193.658C124.872 193.733 124.811 193.798 124.736 193.851C124.668 193.896 124.574 193.918 124.453 193.918C124.317 193.918 124.151 193.847 123.954 193.703C123.758 193.552 123.501 193.386 123.184 193.205C122.867 193.024 122.471 192.861 121.995 192.718C121.519 192.567 120.934 192.491 120.24 192.491C119.401 192.491 118.635 192.639 117.94 192.933C117.246 193.22 116.645 193.639 116.14 194.19C115.641 194.741 115.252 195.414 114.973 196.206C114.694 196.999 114.554 197.894 114.554 198.891C114.554 199.902 114.697 200.805 114.984 201.597C115.279 202.39 115.675 203.062 116.174 203.614C116.679 204.157 117.272 204.572 117.952 204.859C118.639 205.146 119.379 205.29 120.172 205.29C120.655 205.29 121.089 205.263 121.474 205.21C121.867 205.15 122.225 205.059 122.55 204.939C122.882 204.818 123.188 204.667 123.467 204.486C123.754 204.297 124.038 204.074 124.317 203.817C124.445 203.704 124.574 203.648 124.702 203.648ZM134.181 201.835C133.252 201.866 132.46 201.941 131.803 202.062C131.153 202.175 130.621 202.326 130.206 202.515C129.798 202.704 129.5 202.926 129.311 203.183C129.13 203.44 129.039 203.727 129.039 204.044C129.039 204.346 129.088 204.606 129.186 204.825C129.285 205.044 129.417 205.226 129.583 205.369C129.756 205.505 129.957 205.607 130.183 205.675C130.417 205.735 130.666 205.765 130.931 205.765C131.285 205.765 131.61 205.731 131.905 205.664C132.199 205.588 132.475 205.482 132.731 205.346C132.996 205.21 133.245 205.048 133.479 204.859C133.721 204.671 133.955 204.455 134.181 204.214V201.835ZM127.669 197.146C128.303 196.535 128.986 196.078 129.719 195.776C130.451 195.474 131.263 195.323 132.154 195.323C132.796 195.323 133.366 195.429 133.864 195.64C134.362 195.851 134.781 196.146 135.121 196.523C135.461 196.901 135.718 197.358 135.891 197.894C136.065 198.43 136.152 199.019 136.152 199.661V207H135.257C135.061 207 134.91 206.97 134.804 206.909C134.698 206.841 134.615 206.713 134.555 206.524L134.328 205.437C134.026 205.716 133.732 205.966 133.445 206.185C133.158 206.396 132.856 206.577 132.539 206.728C132.222 206.872 131.882 206.981 131.52 207.057C131.165 207.14 130.768 207.181 130.33 207.181C129.885 207.181 129.466 207.121 129.073 207C128.68 206.872 128.337 206.683 128.042 206.434C127.756 206.185 127.525 205.871 127.352 205.494C127.185 205.109 127.102 204.656 127.102 204.135C127.102 203.681 127.227 203.247 127.476 202.832C127.725 202.409 128.129 202.035 128.688 201.711C129.247 201.386 129.975 201.122 130.874 200.918C131.772 200.707 132.875 200.586 134.181 200.556V199.661C134.181 198.77 133.989 198.098 133.604 197.645C133.218 197.184 132.656 196.954 131.916 196.954C131.418 196.954 130.999 197.018 130.659 197.146C130.327 197.267 130.036 197.407 129.787 197.565C129.545 197.716 129.334 197.856 129.152 197.985C128.979 198.105 128.805 198.166 128.631 198.166C128.495 198.166 128.378 198.132 128.28 198.064C128.182 197.988 128.099 197.898 128.031 197.792L127.669 197.146ZM141.137 197.826C141.499 197.041 141.945 196.429 142.473 195.991C143.002 195.546 143.647 195.323 144.41 195.323C144.652 195.323 144.882 195.349 145.101 195.402C145.328 195.455 145.528 195.538 145.701 195.651L145.554 197.158C145.509 197.346 145.395 197.441 145.214 197.441C145.109 197.441 144.954 197.418 144.75 197.373C144.546 197.328 144.316 197.305 144.059 197.305C143.697 197.305 143.372 197.358 143.085 197.464C142.806 197.569 142.553 197.728 142.326 197.939C142.107 198.143 141.907 198.4 141.726 198.709C141.552 199.011 141.394 199.359 141.25 199.751V207H139.223V195.527H140.378C140.597 195.527 140.748 195.568 140.831 195.651C140.914 195.734 140.971 195.878 141.001 196.082L141.137 197.826ZM149.388 197.826C149.75 197.041 150.196 196.429 150.725 195.991C151.253 195.546 151.899 195.323 152.661 195.323C152.903 195.323 153.133 195.349 153.352 195.402C153.579 195.455 153.779 195.538 153.952 195.651L153.805 197.158C153.76 197.346 153.647 197.441 153.465 197.441C153.36 197.441 153.205 197.418 153.001 197.373C152.797 197.328 152.567 197.305 152.31 197.305C151.948 197.305 151.623 197.358 151.336 197.464C151.057 197.569 150.804 197.728 150.577 197.939C150.358 198.143 150.158 198.4 149.977 198.709C149.803 199.011 149.645 199.359 149.501 199.751V207H147.474V195.527H148.629C148.848 195.527 148.999 195.568 149.082 195.651C149.165 195.734 149.222 195.878 149.252 196.082L149.388 197.826ZM162.94 200.012C162.94 199.544 162.872 199.117 162.736 198.732C162.607 198.339 162.415 198.003 162.158 197.724C161.909 197.437 161.603 197.218 161.241 197.067C160.878 196.909 160.467 196.829 160.006 196.829C159.04 196.829 158.273 197.112 157.707 197.679C157.148 198.237 156.801 199.015 156.665 200.012H162.94ZM164.571 205.392C164.321 205.694 164.023 205.958 163.676 206.185C163.328 206.403 162.955 206.585 162.555 206.728C162.162 206.872 161.754 206.977 161.331 207.045C160.909 207.121 160.489 207.159 160.074 207.159C159.281 207.159 158.549 207.026 157.877 206.762C157.212 206.49 156.635 206.098 156.144 205.584C155.661 205.063 155.283 204.421 155.011 203.659C154.74 202.896 154.604 202.02 154.604 201.031C154.604 200.231 154.725 199.483 154.966 198.789C155.215 198.094 155.57 197.494 156.031 196.988C156.491 196.474 157.054 196.074 157.718 195.787C158.383 195.493 159.13 195.346 159.961 195.346C160.648 195.346 161.282 195.463 161.864 195.697C162.453 195.923 162.959 196.255 163.381 196.693C163.812 197.124 164.148 197.66 164.389 198.302C164.631 198.936 164.752 199.661 164.752 200.476C164.752 200.793 164.718 201.005 164.65 201.11C164.582 201.216 164.454 201.269 164.265 201.269H156.597C156.62 201.994 156.718 202.624 156.892 203.16C157.073 203.697 157.322 204.146 157.639 204.508C157.956 204.863 158.334 205.131 158.772 205.312C159.21 205.486 159.7 205.573 160.244 205.573C160.75 205.573 161.184 205.516 161.547 205.403C161.917 205.282 162.234 205.154 162.498 205.018C162.762 204.882 162.981 204.757 163.155 204.644C163.336 204.523 163.491 204.463 163.619 204.463C163.785 204.463 163.914 204.527 164.004 204.656L164.571 205.392ZM169.142 197.826C169.505 197.041 169.95 196.429 170.479 195.991C171.007 195.546 171.653 195.323 172.415 195.323C172.657 195.323 172.887 195.349 173.106 195.402C173.333 195.455 173.533 195.538 173.707 195.651L173.559 197.158C173.514 197.346 173.401 197.441 173.22 197.441C173.114 197.441 172.959 197.418 172.755 197.373C172.551 197.328 172.321 197.305 172.064 197.305C171.702 197.305 171.377 197.358 171.09 197.464C170.811 197.569 170.558 197.728 170.331 197.939C170.112 198.143 169.912 198.4 169.731 198.709C169.557 199.011 169.399 199.359 169.255 199.751V207H167.228V195.527H168.383C168.602 195.527 168.753 195.568 168.836 195.651C168.919 195.734 168.976 195.878 169.006 196.082L169.142 197.826ZM181.52 201.835C180.592 201.866 179.799 201.941 179.142 202.062C178.492 202.175 177.96 202.326 177.545 202.515C177.137 202.704 176.839 202.926 176.65 203.183C176.469 203.44 176.378 203.727 176.378 204.044C176.378 204.346 176.427 204.606 176.526 204.825C176.624 205.044 176.756 205.226 176.922 205.369C177.096 205.505 177.296 205.607 177.522 205.675C177.756 205.735 178.005 205.765 178.27 205.765C178.625 205.765 178.949 205.731 179.244 205.664C179.538 205.588 179.814 205.482 180.071 205.346C180.335 205.21 180.584 205.048 180.818 204.859C181.06 204.671 181.294 204.455 181.52 204.214V201.835ZM175.008 197.146C175.642 196.535 176.325 196.078 177.058 195.776C177.79 195.474 178.602 195.323 179.493 195.323C180.135 195.323 180.705 195.429 181.203 195.64C181.702 195.851 182.121 196.146 182.46 196.523C182.8 196.901 183.057 197.358 183.231 197.894C183.404 198.43 183.491 199.019 183.491 199.661V207H182.596C182.4 207 182.249 206.97 182.143 206.909C182.038 206.841 181.954 206.713 181.894 206.524L181.668 205.437C181.365 205.716 181.071 205.966 180.784 206.185C180.497 206.396 180.195 206.577 179.878 206.728C179.561 206.872 179.221 206.981 178.859 207.057C178.504 207.14 178.107 207.181 177.669 207.181C177.224 207.181 176.805 207.121 176.412 207C176.02 206.872 175.676 206.683 175.382 206.434C175.095 206.185 174.864 205.871 174.691 205.494C174.525 205.109 174.442 204.656 174.442 204.135C174.442 203.681 174.566 203.247 174.815 202.832C175.064 202.409 175.468 202.035 176.027 201.711C176.586 201.386 177.315 201.122 178.213 200.918C179.112 200.707 180.214 200.586 181.52 200.556V199.661C181.52 198.77 181.328 198.098 180.943 197.645C180.558 197.184 179.995 196.954 179.255 196.954C178.757 196.954 178.338 197.018 177.998 197.146C177.666 197.267 177.375 197.407 177.126 197.565C176.884 197.716 176.673 197.856 176.492 197.985C176.318 198.105 176.144 198.166 175.971 198.166C175.835 198.166 175.718 198.132 175.619 198.064C175.521 197.988 175.438 197.898 175.37 197.792L175.008 197.146ZM193.244 197.418C193.154 197.584 193.014 197.667 192.825 197.667C192.712 197.667 192.584 197.626 192.44 197.543C192.297 197.46 192.119 197.369 191.908 197.271C191.704 197.165 191.459 197.071 191.172 196.988C190.885 196.897 190.545 196.852 190.152 196.852C189.813 196.852 189.507 196.897 189.235 196.988C188.963 197.071 188.729 197.188 188.533 197.339C188.344 197.49 188.197 197.667 188.091 197.871C187.993 198.068 187.944 198.283 187.944 198.517C187.944 198.811 188.027 199.057 188.193 199.253C188.367 199.449 188.593 199.619 188.872 199.763C189.152 199.906 189.469 200.035 189.824 200.148C190.179 200.253 190.541 200.371 190.911 200.499C191.289 200.62 191.655 200.756 192.01 200.907C192.365 201.058 192.682 201.246 192.961 201.473C193.241 201.699 193.463 201.979 193.629 202.311C193.803 202.636 193.89 203.028 193.89 203.489C193.89 204.017 193.795 204.508 193.607 204.961C193.418 205.407 193.139 205.796 192.769 206.128C192.399 206.453 191.946 206.709 191.409 206.898C190.873 207.087 190.254 207.181 189.552 207.181C188.752 207.181 188.027 207.053 187.377 206.796C186.728 206.532 186.177 206.196 185.724 205.788L186.2 205.018C186.26 204.92 186.332 204.844 186.415 204.791C186.498 204.739 186.603 204.712 186.732 204.712C186.868 204.712 187.011 204.765 187.162 204.871C187.313 204.976 187.494 205.093 187.706 205.222C187.925 205.35 188.189 205.467 188.499 205.573C188.808 205.679 189.193 205.731 189.654 205.731C190.047 205.731 190.39 205.682 190.685 205.584C190.979 205.479 191.224 205.339 191.421 205.165C191.617 204.992 191.761 204.791 191.851 204.565C191.949 204.338 191.998 204.097 191.998 203.84C191.998 203.523 191.912 203.262 191.738 203.059C191.572 202.847 191.349 202.67 191.07 202.526C190.79 202.375 190.469 202.247 190.107 202.141C189.752 202.028 189.386 201.911 189.008 201.79C188.638 201.669 188.272 201.533 187.91 201.382C187.555 201.224 187.238 201.027 186.958 200.793C186.679 200.559 186.452 200.272 186.279 199.933C186.113 199.585 186.03 199.166 186.03 198.675C186.03 198.237 186.12 197.818 186.301 197.418C186.483 197.01 186.747 196.656 187.094 196.354C187.442 196.044 187.868 195.799 188.374 195.617C188.88 195.436 189.458 195.346 190.107 195.346C190.862 195.346 191.538 195.466 192.134 195.708C192.738 195.942 193.259 196.267 193.697 196.682L193.244 197.418Z" fill="#101734"/>
<g clip-path="url(#clip0_581_3980)">
<path d="M161.64 18.1315C141.071 22.0292 122.555 33.4385 97.7897 21.9276C98.1132 23.0937 98.4267 24.2634 98.7435 25.4295H92.8455L92.3703 23.6786H89L119.292 134.865H122.662L109.148 85.2531H115.046C115.413 86.6189 115.79 87.9776 116.158 89.3434C140.919 100.847 159.439 89.4379 179.998 85.5403C173.884 63.0718 167.76 40.5999 161.64 18.1315ZM122.015 30.4198C128.992 30.2587 135.604 28.7634 142.139 26.9774C143.895 33.3964 145.641 39.819 147.394 46.238C140.862 48.024 134.246 49.5194 127.263 49.6804C125.514 43.2579 123.761 36.8388 122.015 30.4198ZM108.433 82.6266L93.5634 28.056H99.4614C104.422 46.245 109.373 64.4376 114.331 82.6266H108.433ZM113.175 65.9995C111.463 59.724 109.747 53.452 108.045 47.1766C114.941 49.8065 121.361 50.696 127.502 50.5524C129.211 56.8279 130.923 63.0998 132.628 69.3753C126.494 69.5189 120.071 68.6294 113.175 65.9995ZM158.6 87.3858C152.068 89.1753 145.456 90.6671 138.472 90.8247C136.723 84.4021 134.974 77.9831 133.221 71.564C140.195 71.4029 146.81 69.9076 153.352 68.1216C155.101 74.5477 156.854 80.9632 158.6 87.3858ZM170.018 61.2508C164.191 62.5641 158.512 64.3641 152.759 65.9329C151.047 59.6574 149.335 53.3855 147.633 47.11C153.383 45.5376 159.075 43.7412 164.889 42.4279C166.594 48.7034 168.306 54.9754 170.018 61.2508ZM167.282 29.0715C167.605 30.2377 167.919 31.4073 168.235 32.5735C170.888 32.1603 173.574 31.8906 176.317 31.8276C178.07 38.2466 179.812 44.6692 181.565 51.0882C178.825 51.1512 176.135 51.4209 173.49 51.8341C175.481 59.1287 177.47 66.4267 179.458 73.7212C182.104 73.308 184.797 73.0383 187.534 72.9753C189.29 79.3944 191.035 85.8169 192.791 92.236C185.815 92.3935 179.199 93.8924 172.657 95.6714C172.249 94.1585 171.838 92.6597 171.43 91.1504C164.629 93.0029 157.922 95.1776 150.98 96.4908C151.711 99.1733 152.442 101.845 153.167 104.521C173.729 100.623 192.252 89.2138 217 100.718C210.886 78.2492 204.756 55.7773 198.635 33.3054C187.109 27.9579 176.944 27.5622 167.282 29.0715ZM206.397 74.1625C199.501 71.5325 193.084 70.643 186.944 70.7866C185.232 64.5111 183.52 58.2392 181.818 51.9637C187.952 51.8201 194.379 52.7096 201.268 55.3396C202.973 61.615 204.688 67.887 206.397 74.1625Z" fill="#101734"/>
</g>
</g>
<defs>
<filter id="filter0_d_581_3980" x="0" y="0" width="316" height="240" filterUnits="userSpaceOnUse" color-interpolation-filters="sRGB">
<feFlood flood-opacity="0" result="BackgroundImageFix"/>
<feColorMatrix in="SourceAlpha" type="matrix" values="0 0 0 0 0 0 0 0 0 0 0 0 0 0 0 0 0 0 127 0" result="hardAlpha"/>
<feOffset dx="10" dy="10"/>
<feComposite in2="hardAlpha" operator="out"/>
<feColorMatrix type="matrix" values="0 0 0 0 0 0 0 0 0 0 0 0 0 0 0 0 0 0 1 0"/>
<feBlend mode="normal" in2="BackgroundImageFix" result="effect1_dropShadow_581_3980"/>
<feBlend mode="normal" in="SourceGraphic" in2="effect1_dropShadow_581_3980" result="shape"/>
</filter>
<clipPath id="clip0_581_3980">
<rect width="128" height="127" fill="white" transform="translate(89 13)"/>
</clipPath>
</defs>
</svg>
