<svg width="316" height="240" viewBox="0 0 316 240" fill="none" xmlns="http://www.w3.org/2000/svg">
<g filter="url(#filter0_d_581_3988)">
<rect width="306" height="230" rx="10" fill="#7887C7"/>
<path d="M134.557 203.648C134.678 203.648 134.783 203.697 134.874 203.795L135.746 204.735C135.082 205.505 134.274 206.105 133.322 206.536C132.379 206.966 131.235 207.181 129.891 207.181C128.728 207.181 127.671 206.981 126.719 206.581C125.768 206.173 124.956 205.607 124.284 204.882C123.612 204.15 123.091 203.274 122.721 202.254C122.351 201.235 122.166 200.114 122.166 198.891C122.166 197.667 122.359 196.546 122.744 195.527C123.129 194.507 123.669 193.632 124.364 192.899C125.066 192.167 125.904 191.6 126.878 191.2C127.852 190.792 128.928 190.589 130.106 190.589C131.261 190.589 132.28 190.774 133.164 191.144C134.047 191.514 134.825 192.016 135.497 192.65L134.772 193.658C134.727 193.733 134.666 193.798 134.591 193.851C134.523 193.896 134.429 193.918 134.308 193.918C134.172 193.918 134.006 193.847 133.809 193.703C133.613 193.552 133.356 193.386 133.039 193.205C132.722 193.024 132.326 192.861 131.85 192.718C131.374 192.567 130.789 192.491 130.094 192.491C129.256 192.491 128.49 192.639 127.795 192.933C127.101 193.22 126.5 193.639 125.994 194.19C125.496 194.741 125.107 195.414 124.828 196.206C124.549 196.999 124.409 197.894 124.409 198.891C124.409 199.902 124.552 200.805 124.839 201.597C125.134 202.39 125.53 203.062 126.028 203.614C126.534 204.157 127.127 204.572 127.807 204.859C128.494 205.146 129.234 205.29 130.027 205.29C130.51 205.29 130.944 205.263 131.329 205.21C131.722 205.15 132.08 205.059 132.405 204.939C132.737 204.818 133.043 204.667 133.322 204.486C133.609 204.297 133.892 204.074 134.172 203.817C134.3 203.704 134.429 203.648 134.557 203.648ZM144.036 201.835C143.107 201.866 142.315 201.941 141.658 202.062C141.008 202.175 140.476 202.326 140.061 202.515C139.653 202.704 139.355 202.926 139.166 203.183C138.985 203.44 138.894 203.727 138.894 204.044C138.894 204.346 138.943 204.606 139.041 204.825C139.139 205.044 139.272 205.226 139.438 205.369C139.611 205.505 139.811 205.607 140.038 205.675C140.272 205.735 140.521 205.765 140.786 205.765C141.14 205.765 141.465 205.731 141.76 205.664C142.054 205.588 142.33 205.482 142.586 205.346C142.851 205.21 143.1 205.048 143.334 204.859C143.575 204.671 143.81 204.455 144.036 204.214V201.835ZM137.524 197.146C138.158 196.535 138.841 196.078 139.574 195.776C140.306 195.474 141.118 195.323 142.009 195.323C142.651 195.323 143.221 195.429 143.719 195.64C144.217 195.851 144.636 196.146 144.976 196.523C145.316 196.901 145.573 197.358 145.746 197.894C145.92 198.43 146.007 199.019 146.007 199.661V207H145.112C144.916 207 144.765 206.97 144.659 206.909C144.553 206.841 144.47 206.713 144.41 206.524L144.183 205.437C143.881 205.716 143.587 205.966 143.3 206.185C143.013 206.396 142.711 206.577 142.394 206.728C142.077 206.872 141.737 206.981 141.374 207.057C141.02 207.14 140.623 207.181 140.185 207.181C139.74 207.181 139.321 207.121 138.928 207C138.535 206.872 138.192 206.683 137.897 206.434C137.61 206.185 137.38 205.871 137.207 205.494C137.04 205.109 136.957 204.656 136.957 204.135C136.957 203.681 137.082 203.247 137.331 202.832C137.58 202.409 137.984 202.035 138.543 201.711C139.102 201.386 139.83 201.122 140.729 200.918C141.627 200.707 142.73 200.586 144.036 200.556V199.661C144.036 198.77 143.844 198.098 143.458 197.645C143.073 197.184 142.511 196.954 141.771 196.954C141.273 196.954 140.853 197.018 140.514 197.146C140.181 197.267 139.891 197.407 139.642 197.565C139.4 197.716 139.189 197.856 139.007 197.985C138.834 198.105 138.66 198.166 138.486 198.166C138.35 198.166 138.233 198.132 138.135 198.064C138.037 197.988 137.954 197.898 137.886 197.792L137.524 197.146ZM150.992 197.826C151.354 197.041 151.8 196.429 152.328 195.991C152.857 195.546 153.502 195.323 154.265 195.323C154.507 195.323 154.737 195.349 154.956 195.402C155.182 195.455 155.383 195.538 155.556 195.651L155.409 197.158C155.364 197.346 155.25 197.441 155.069 197.441C154.963 197.441 154.809 197.418 154.605 197.373C154.401 197.328 154.171 197.305 153.914 197.305C153.552 197.305 153.227 197.358 152.94 197.464C152.661 197.569 152.408 197.728 152.181 197.939C151.962 198.143 151.762 198.4 151.581 198.709C151.407 199.011 151.249 199.359 151.105 199.751V207H149.078V195.527H150.233C150.452 195.527 150.603 195.568 150.686 195.651C150.769 195.734 150.826 195.878 150.856 196.082L150.992 197.826ZM160.851 207.181C159.945 207.181 159.247 206.928 158.756 206.422C158.273 205.916 158.031 205.188 158.031 204.236V197.214H156.649C156.529 197.214 156.427 197.18 156.344 197.112C156.26 197.037 156.219 196.924 156.219 196.773V195.968L158.099 195.731L158.563 192.186C158.586 192.072 158.635 191.982 158.711 191.914C158.794 191.838 158.899 191.801 159.028 191.801H160.047V195.753H163.366V197.214H160.047V204.101C160.047 204.584 160.164 204.942 160.398 205.177C160.632 205.411 160.934 205.528 161.304 205.528C161.516 205.528 161.697 205.501 161.848 205.448C162.007 205.388 162.142 205.324 162.256 205.256C162.369 205.188 162.463 205.127 162.539 205.075C162.622 205.014 162.694 204.984 162.754 204.984C162.86 204.984 162.954 205.048 163.037 205.177L163.626 206.139C163.279 206.464 162.86 206.721 162.369 206.909C161.878 207.091 161.372 207.181 160.851 207.181ZM171.665 201.835C170.737 201.866 169.944 201.941 169.287 202.062C168.638 202.175 168.105 202.326 167.69 202.515C167.282 202.704 166.984 202.926 166.795 203.183C166.614 203.44 166.523 203.727 166.523 204.044C166.523 204.346 166.572 204.606 166.671 204.825C166.769 205.044 166.901 205.226 167.067 205.369C167.241 205.505 167.441 205.607 167.667 205.675C167.901 205.735 168.151 205.765 168.415 205.765C168.77 205.765 169.094 205.731 169.389 205.664C169.683 205.588 169.959 205.482 170.216 205.346C170.48 205.21 170.729 205.048 170.963 204.859C171.205 204.671 171.439 204.455 171.665 204.214V201.835ZM165.153 197.146C165.787 196.535 166.47 196.078 167.203 195.776C167.935 195.474 168.747 195.323 169.638 195.323C170.28 195.323 170.85 195.429 171.348 195.64C171.847 195.851 172.266 196.146 172.605 196.523C172.945 196.901 173.202 197.358 173.376 197.894C173.549 198.43 173.636 199.019 173.636 199.661V207H172.741C172.545 207 172.394 206.97 172.288 206.909C172.183 206.841 172.099 206.713 172.039 206.524L171.813 205.437C171.511 205.716 171.216 205.966 170.929 206.185C170.642 206.396 170.34 206.577 170.023 206.728C169.706 206.872 169.366 206.981 169.004 207.057C168.649 207.14 168.252 207.181 167.814 207.181C167.369 207.181 166.95 207.121 166.557 207C166.165 206.872 165.821 206.683 165.527 206.434C165.24 206.185 165.009 205.871 164.836 205.494C164.67 205.109 164.587 204.656 164.587 204.135C164.587 203.681 164.711 203.247 164.96 202.832C165.21 202.409 165.613 202.035 166.172 201.711C166.731 201.386 167.46 201.122 168.358 200.918C169.257 200.707 170.359 200.586 171.665 200.556V199.661C171.665 198.77 171.473 198.098 171.088 197.645C170.703 197.184 170.14 196.954 169.4 196.954C168.902 196.954 168.483 197.018 168.143 197.146C167.811 197.267 167.52 197.407 167.271 197.565C167.029 197.716 166.818 197.856 166.637 197.985C166.463 198.105 166.289 198.166 166.116 198.166C165.98 198.166 165.863 198.132 165.764 198.064C165.666 197.988 165.583 197.898 165.515 197.792L165.153 197.146ZM183.389 197.418C183.299 197.584 183.159 197.667 182.97 197.667C182.857 197.667 182.729 197.626 182.585 197.543C182.442 197.46 182.264 197.369 182.053 197.271C181.849 197.165 181.604 197.071 181.317 196.988C181.03 196.897 180.69 196.852 180.297 196.852C179.958 196.852 179.652 196.897 179.38 196.988C179.108 197.071 178.874 197.188 178.678 197.339C178.489 197.49 178.342 197.667 178.236 197.871C178.138 198.068 178.089 198.283 178.089 198.517C178.089 198.811 178.172 199.057 178.338 199.253C178.512 199.449 178.738 199.619 179.018 199.763C179.297 199.906 179.614 200.035 179.969 200.148C180.324 200.253 180.686 200.371 181.056 200.499C181.434 200.62 181.8 200.756 182.155 200.907C182.51 201.058 182.827 201.246 183.106 201.473C183.386 201.699 183.608 201.979 183.774 202.311C183.948 202.636 184.035 203.028 184.035 203.489C184.035 204.017 183.941 204.508 183.752 204.961C183.563 205.407 183.284 205.796 182.914 206.128C182.544 206.453 182.091 206.709 181.555 206.898C181.018 207.087 180.399 207.181 179.697 207.181C178.897 207.181 178.172 207.053 177.522 206.796C176.873 206.532 176.322 206.196 175.869 205.788L176.345 205.018C176.405 204.92 176.477 204.844 176.56 204.791C176.643 204.739 176.749 204.712 176.877 204.712C177.013 204.712 177.156 204.765 177.307 204.871C177.458 204.976 177.64 205.093 177.851 205.222C178.07 205.35 178.334 205.467 178.644 205.573C178.953 205.679 179.338 205.731 179.799 205.731C180.192 205.731 180.535 205.682 180.83 205.584C181.124 205.479 181.37 205.339 181.566 205.165C181.762 204.992 181.906 204.791 181.996 204.565C182.094 204.338 182.143 204.097 182.143 203.84C182.143 203.523 182.057 203.262 181.883 203.059C181.717 202.847 181.494 202.67 181.215 202.526C180.935 202.375 180.614 202.247 180.252 202.141C179.897 202.028 179.531 201.911 179.153 201.79C178.783 201.669 178.417 201.533 178.055 201.382C177.7 201.224 177.383 201.027 177.103 200.793C176.824 200.559 176.598 200.272 176.424 199.933C176.258 199.585 176.175 199.166 176.175 198.675C176.175 198.237 176.265 197.818 176.447 197.418C176.628 197.01 176.892 196.656 177.239 196.354C177.587 196.044 178.013 195.799 178.519 195.617C179.025 195.436 179.603 195.346 180.252 195.346C181.007 195.346 181.683 195.466 182.279 195.708C182.883 195.942 183.404 196.267 183.842 196.682L183.389 197.418Z" fill="#101734"/>
<path d="M200.541 43.5073L178.654 38.6313V46.7149L198.16 51.0595C200.638 51.6143 202.115 53.7593 201.46 55.8378L182.465 116.275C181.806 118.35 179.257 119.604 176.779 119.053L161.799 115.717C161.228 115.763 160.676 115.861 160.086 115.861H127.174C127.926 116.158 128.706 116.424 129.537 116.607L174.411 126.605C181.848 128.266 189.47 124.531 191.438 118.272L210.438 57.8421C212.401 51.587 207.973 45.1639 200.541 43.5073Z" fill="#101734"/>
<path d="M160.086 26H109.024C101.337 26 95.0981 31.251 95.0981 37.721V100.233C95.0981 106.703 101.337 111.954 109.024 111.954H160.086C167.773 111.954 174.012 106.703 174.012 100.233V37.721C174.012 31.251 167.773 26 160.086 26ZM164.728 100.233C164.728 102.386 162.644 104.14 160.086 104.14H109.024C106.466 104.14 104.382 102.386 104.382 100.233V37.721C104.382 35.5683 106.466 33.814 109.024 33.814H160.086C162.644 33.814 164.728 35.5683 164.728 37.721V100.233ZM154.929 70.5946C154.929 76.0058 150.626 79.4439 144.48 79.4556C141.3 79.4556 138.083 77.6467 136.259 76.1464C136.259 76.1464 137.967 82.8 141.082 87.8323C141.486 88.4847 127.806 88.5004 128.172 87.8401C131.204 82.3859 132.902 76.1464 132.902 76.1464C131.074 77.5764 127.564 79.4752 124.626 79.4791C118.494 79.483 114.163 76.0526 114.154 70.6493C114.144 61.5928 134.448 49.7194 134.448 49.7194H134.56C134.56 49.7194 154.91 61.5459 154.929 70.5946ZM155.184 38.2524C155.105 38.0883 155.035 37.9554 154.943 37.8617C154.85 37.7679 154.659 37.721 154.372 37.721H151.73C151.447 37.721 151.257 37.7679 151.164 37.8539C151.067 37.9359 150.983 38.0648 150.913 38.2289L146.875 48.9849C146.796 49.1881 146.791 49.3092 146.847 49.3639C146.903 49.4186 147.014 49.442 147.167 49.442H149.488C149.693 49.442 149.841 49.3991 149.957 49.3326C150.064 49.2623 150.157 49.1412 150.226 48.9497L150.978 46.797H155.147L155.839 48.8951C155.908 49.0787 155.978 49.2232 156.061 49.3053C156.14 49.3951 156.307 49.442 156.544 49.442H159.144C159.297 49.442 159.39 49.3991 159.418 49.3326C159.445 49.2662 159.445 49.1646 159.394 49.0201L155.184 38.2524ZM151.689 44.6677L152.315 42.6985L153.007 40.5575H153.104L153.782 42.7142L154.409 44.6677H151.689ZM119.408 88.5121C119.167 88.5121 119.004 88.559 118.925 88.6449C118.842 88.7309 118.772 88.8754 118.703 89.0591L118.011 91.1571H113.838L113.086 89.0044C113.016 88.8129 112.928 88.6918 112.817 88.6215C112.705 88.5551 112.557 88.5121 112.352 88.5121H110.031C109.878 88.5121 109.767 88.5394 109.716 88.5941C109.665 88.6488 109.665 88.7699 109.744 88.9731L113.782 99.7291C113.852 99.8932 113.935 100.018 114.033 100.104C114.126 100.186 114.316 100.233 114.594 100.233H117.231C117.524 100.233 117.714 100.186 117.807 100.092C117.9 100.003 117.969 99.8658 118.048 99.7018L122.254 88.934C122.305 88.7895 122.305 88.6879 122.277 88.6215C122.249 88.5551 122.161 88.5121 122.008 88.5121H119.408ZM116.651 95.24L115.973 97.3966H115.876L115.184 95.2556L114.557 93.2864H117.278L116.651 95.24Z" fill="#101734"/>
<path d="M192.079 54.361C192.06 54.1851 192.023 54.0445 191.972 53.9351C191.907 53.8218 191.735 53.7358 191.457 53.6772L188.908 53.099C188.643 53.0365 188.444 53.0365 188.328 53.099C188.202 53.1654 188.082 53.267 187.97 53.4076L180.738 62.9017C180.594 63.0853 180.557 63.1947 180.594 63.265C180.627 63.3275 180.72 63.3744 180.873 63.4096L183.115 63.9214C183.31 63.9644 183.468 63.9605 183.598 63.9136C183.723 63.8745 183.853 63.7768 183.978 63.6088L185.371 61.6944L189.395 62.6086L189.419 64.7888C189.419 64.9802 189.451 65.1365 189.502 65.2342C189.558 65.3396 189.697 65.4178 189.934 65.4725L192.441 66.0429C192.589 66.0781 192.691 66.0624 192.738 65.996C192.784 65.9374 192.812 65.8397 192.812 65.6913L192.079 54.361ZM186.717 59.7917L187.933 58.0218L189.265 56.1113L189.358 56.1347L189.344 58.3617L189.34 60.3895L186.717 59.7917Z" fill="#101734"/>
</g>
<defs>
<filter id="filter0_d_581_3988" x="0" y="0" width="316" height="240" filterUnits="userSpaceOnUse" color-interpolation-filters="sRGB">
<feFlood flood-opacity="0" result="BackgroundImageFix"/>
<feColorMatrix in="SourceAlpha" type="matrix" values="0 0 0 0 0 0 0 0 0 0 0 0 0 0 0 0 0 0 127 0" result="hardAlpha"/>
<feOffset dx="10" dy="10"/>
<feComposite in2="hardAlpha" operator="out"/>
<feColorMatrix type="matrix" values="0 0 0 0 0 0 0 0 0 0 0 0 0 0 0 0 0 0 1 0"/>
<feBlend mode="normal" in2="BackgroundImageFix" result="effect1_dropShadow_581_3988"/>
<feBlend mode="normal" in="SourceGraphic" in2="effect1_dropShadow_581_3988" result="shape"/>
</filter>
</defs>
</svg>
