<svg width="40" height="32" viewBox="0 0 40 32" fill="none" xmlns="http://www.w3.org/2000/svg">
<path d="M39.0592 12.5785L34.1794 9.31525V4.09639C34.1794 3.5087 33.5966 3.0305 32.8803 3.0305H29.8099C29.0936 3.0305 28.5108 3.5087 28.5108 4.09639V5.52438L21.9904 1.16404C21.5187 0.848735 20.8971 0.674995 20.24 0.674995C19.5855 0.674995 18.9668 0.847669 18.4978 1.16133L1.4291 12.5784C0.653569 13.0969 0.700099 13.5486 0.796819 13.7716C0.893302 13.9942 1.20401 14.3676 2.20026 14.3676H4.53748V29.3818C4.53748 30.4533 5.59703 31.3249 6.89939 31.3249H14.2803C15.5717 31.3249 16.5832 30.4713 16.5832 29.3818V23.2248C16.5832 22.6971 17.1743 22.2165 17.8232 22.2165H22.7832C23.4018 22.2165 23.9051 22.6689 23.9051 23.2248V29.3818C23.9051 30.4351 25.0138 31.3249 26.326 31.3249H33.5889C34.8913 31.3249 35.9508 30.4532 35.9508 29.3818V14.3676H38.288C39.2843 14.3676 39.5949 13.9942 39.6915 13.7716C39.7882 13.5486 39.8347 13.0969 39.0592 12.5785Z" fill="#1D233B"/>
</svg>
