<svg width="39" height="32" viewBox="0 0 39 32" fill="none" xmlns="http://www.w3.org/2000/svg">
<path d="M7.45393 11.9423L8.31386 13.8554C8.34618 13.9274 8.42976 13.9752 8.52319 13.9752C8.61662 13.9752 8.70019 13.9274 8.73252 13.8554L9.59244 11.9423C10.2885 10.3936 11.7764 9.17275 13.6638 8.60174L15.9954 7.89616C16.083 7.86963 16.1412 7.80106 16.1412 7.7244C16.1412 7.64774 16.083 7.57916 15.9954 7.55264L13.6637 6.84706C11.7763 6.27594 10.2884 5.05519 9.59244 3.50656L8.73252 1.5935C8.70019 1.52158 8.61662 1.47382 8.52319 1.47382C8.42976 1.47382 8.34618 1.52158 8.31386 1.5935L7.45393 3.50656C6.75787 5.05519 5.27009 6.27594 3.38257 6.84706L1.05089 7.55264C0.963242 7.57916 0.905029 7.64774 0.905029 7.7244C0.905029 7.80106 0.963242 7.86963 1.05089 7.89616L3.38244 8.60174C5.26996 9.17275 6.75787 10.3935 7.45393 11.9423Z" fill="#DBA814"/>
<path d="M26.3574 20.0226L24.026 19.3172C22.1385 18.746 20.6505 17.5253 19.9546 15.9767L19.0947 14.0636C19.0624 13.9917 18.9788 13.9439 18.8854 13.9439C18.7919 13.9439 18.7084 13.9917 18.676 14.0636L17.8161 15.9765C17.12 17.5253 15.6321 18.746 13.7447 19.3172L11.4132 20.0226C11.3255 20.0491 11.2673 20.1177 11.2673 20.1944C11.2673 20.271 11.3255 20.3396 11.4132 20.3661L13.7449 21.0718C15.6323 21.643 17.12 22.8637 17.8161 24.4123L18.676 26.3255C18.7084 26.3974 18.7919 26.4452 18.8854 26.4452C18.9788 26.4452 19.0624 26.3974 19.0947 26.3255L19.9546 24.4123C20.6507 22.8637 22.1385 21.6428 24.0259 21.0718L26.3575 20.3661C26.4452 20.3396 26.5034 20.271 26.5034 20.1944C26.5034 20.1177 26.445 20.0491 26.3574 20.0226Z" fill="#DBA814"/>
<path d="M38.4244 11.8399L36.8398 11.3604C35.5571 10.9722 34.546 10.1426 34.0729 9.09012L33.4885 7.79002C33.4665 7.74118 33.4097 7.70862 33.3462 7.70862C33.2828 7.70862 33.226 7.74118 33.2039 7.79002L32.6197 9.09002C32.1466 10.1426 31.1354 10.9722 29.8527 11.3604L28.2682 11.8399C28.2086 11.8579 28.1689 11.9045 28.1689 11.9565C28.1689 12.0086 28.2086 12.0553 28.2682 12.0733L29.8528 12.5527C31.1354 12.9409 32.1466 13.7706 32.6197 14.8231L33.2039 16.1234C33.226 16.1722 33.2828 16.2048 33.3462 16.2048C33.4097 16.2048 33.4665 16.1722 33.4885 16.1234L34.0729 14.8231C34.546 13.7705 35.557 12.9409 36.8398 12.5528L38.4244 12.0733C38.484 12.0553 38.5236 12.0086 38.5236 11.9565C38.5236 11.9045 38.484 11.8579 38.4244 11.8399Z" fill="#DBA814"/>
<path d="M34.586 28.9555L33.4806 28.6209C32.5859 28.3502 31.8806 27.7715 31.5507 27.0375L31.1429 26.1307C31.1277 26.0966 31.088 26.074 31.0437 26.074C30.9994 26.074 30.9597 26.0966 30.9445 26.1307L30.5367 27.0375C30.2068 27.7716 29.5015 28.3503 28.6069 28.6209L27.5015 28.9555C27.46 28.968 27.4324 29.0006 27.4324 29.0369C27.4324 29.0732 27.46 29.1058 27.5015 29.1183L28.6068 29.4529C29.5016 29.7236 30.2069 30.3024 30.5369 31.0365L30.9446 31.9434C30.9598 31.9775 30.9995 32.0001 31.0438 32.0001C31.0881 32.0001 31.1278 31.9775 31.143 31.9434L31.5508 31.0365C31.8807 30.3024 32.586 29.7236 33.4809 29.4529L34.5861 29.1183C34.6277 29.1058 34.6553 29.0732 34.6553 29.0369C34.6553 29.0006 34.6277 28.968 34.586 28.9555Z" fill="#DBA814"/>
<path d="M26.4344 2.88162L25.329 2.54716C24.4343 2.27642 23.729 1.69774 23.3992 0.963594L22.9914 0.0568215C22.9762 0.0226423 22.9365 0 22.8922 0C22.8479 0 22.8082 0.0226423 22.793 0.0567137L22.3854 0.963378C22.0554 1.69753 21.35 2.27631 20.4553 2.54705L19.3499 2.88151C19.3084 2.89402 19.2808 2.92658 19.2808 2.96291C19.2808 2.99925 19.3084 3.03181 19.3499 3.04432L20.4551 3.37889C21.35 3.64962 22.0554 4.2284 22.3854 4.96266L22.793 5.86944C22.8082 5.90351 22.8479 5.92615 22.8922 5.92615C22.9365 5.92615 22.9762 5.90351 22.9914 5.86944L23.3992 4.96256C23.7291 4.2283 24.4344 3.64962 25.3293 3.37899L26.4345 3.04443C26.4761 3.03192 26.5037 2.99936 26.5037 2.96302C26.5037 2.92669 26.4761 2.89412 26.4344 2.88162Z" fill="#DBA814"/>
<path d="M12.8766 27.091L11.4863 26.6705C10.3609 26.33 9.47369 25.602 9.05844 24.6785L8.54583 23.5378C8.52651 23.495 8.47671 23.4664 8.42099 23.4664C8.36527 23.4664 8.31547 23.495 8.29615 23.5378L7.78354 24.6784C7.36856 25.6019 6.4813 26.3299 5.35567 26.6705L3.96565 27.091C3.91322 27.1068 3.87866 27.1478 3.87866 27.1935C3.87866 27.2392 3.91335 27.2802 3.96565 27.2959L5.3558 27.7166C6.48117 28.0571 7.36842 28.7851 7.78354 29.7086L8.29615 30.8493C8.31547 30.8923 8.36527 30.9207 8.42099 30.9207C8.47671 30.9207 8.52664 30.8923 8.54583 30.8493L9.05857 29.7085C9.47356 28.7851 10.3607 28.0572 11.4862 27.7166L12.8766 27.2959C12.9289 27.2802 12.9636 27.2392 12.9636 27.1935C12.9636 27.1478 12.929 27.1068 12.8766 27.091Z" fill="#DBA814"/>
</svg>
