<svg width="40" height="28" viewBox="0 0 40 28" fill="none" xmlns="http://www.w3.org/2000/svg">
<path d="M11.1409 7.5681C12.1931 7.5681 13.0414 6.94163 13.0414 6.16725C13.0414 5.39287 12.1931 4.7664 11.1409 4.7664C10.0958 4.7664 9.24512 5.39287 9.24512 6.16725C9.24512 6.94163 10.097 7.5681 11.1409 7.5681Z" fill="#1D233B"/>
<path d="M19.8129 5.00616C21.6121 5.00616 23.0696 3.93209 23.0696 2.60471C23.0696 1.27734 21.6121 0.200363 19.8129 0.200363C18.0184 0.200363 16.5586 1.27638 16.5586 2.60375C16.5586 3.93112 18.0173 5.00616 19.8129 5.00616Z" fill="#1D233B"/>
<path d="M29.2058 7.65028C30.2541 7.65028 31.1039 7.02266 31.1039 6.24846C31.1039 5.47426 30.2541 4.84665 29.2058 4.84665C28.1575 4.84665 27.3076 5.47426 27.3076 6.24846C27.3076 7.02266 28.1575 7.65028 29.2058 7.65028Z" fill="#1D233B"/>
<path d="M31.567 22.9929H8.05981V27.7987H31.567V22.9929Z" fill="#1D233B"/>
<path d="M36.4899 8.13076C38.2872 8.13076 39.7442 7.05516 39.7442 5.72834C39.7442 4.40153 38.2872 3.32593 36.4899 3.32593C34.6926 3.32593 33.2356 4.40153 33.2356 5.72834C33.2356 7.05516 34.6926 8.13076 36.4899 8.13076Z" fill="#1D233B"/>
<path d="M7.2516 5.81535C7.2516 4.48701 5.79765 3.41293 3.99493 3.41293C2.20281 3.41197 0.744141 4.48701 0.744141 5.81535C0.744141 7.14176 2.20281 8.21777 3.9961 8.21777C5.79765 8.21777 7.2516 7.14176 7.2516 5.81535Z" fill="#1D233B"/>
<path d="M32.8266 8.57644L28.3693 11.8673L28.7439 8.51457C28.7439 8.51457 28.1313 7.75759 27.3312 8.36955L24.6295 11.2022L21.1136 6.6574C21.1136 6.6574 20.1451 5.84532 18.5085 6.6574L15.0774 11.0891L12.7528 8.37052C12.7528 8.37052 12.1589 7.6 11.4107 8.41982L11.6546 12.0771L7.26095 8.57644C7.26095 8.57644 5.90361 8.12689 5.25439 9.20967L8.09397 22.0319H31.5258L35.4305 9.53934C35.4305 9.53934 34.9934 7.88713 32.8266 8.57644Z" fill="#1D233B"/>
</svg>
