<svg width="34" height="28" viewBox="0 0 34 28" fill="none" xmlns="http://www.w3.org/2000/svg">
<path d="M33.2293 3.29417C32.6952 3.53107 32.146 3.73101 31.5849 3.89333C32.2492 3.14204 32.7557 2.25804 33.0649 1.29069C33.1342 1.07386 33.0624 0.836514 32.8841 0.694701C32.7061 0.552778 32.4588 0.535778 32.2628 0.651927C31.0712 1.35869 29.7855 1.8666 28.4375 2.16361C27.0796 0.836733 25.2352 0.081604 23.3286 0.081604C19.304 0.081604 16.0297 3.3558 16.0297 7.38031C16.0297 7.69728 16.0498 8.01249 16.0895 8.32331C11.0953 7.88482 6.45232 5.43013 3.264 1.51915C3.15037 1.37975 2.97533 1.30462 2.79611 1.31898C2.61679 1.33302 2.45568 1.43415 2.36508 1.58956C1.71842 2.69917 1.37656 3.96824 1.37656 5.25948C1.37656 7.01815 2.00446 8.68679 3.11363 9.99063C2.77637 9.87382 2.4491 9.72784 2.13673 9.55444C1.96904 9.46111 1.76438 9.46253 1.59778 9.55806C1.43107 9.65359 1.32655 9.82929 1.32216 10.0213C1.32139 10.0537 1.32139 10.086 1.32139 10.1188C1.32139 12.744 2.73426 15.1074 4.89435 16.3956C4.70878 16.377 4.52331 16.3502 4.33906 16.315C4.14909 16.2787 3.95376 16.3452 3.82566 16.4901C3.69733 16.6349 3.65489 16.8367 3.714 17.021C4.51355 19.5172 6.57209 21.3533 9.06067 21.9131C6.99665 23.2059 4.63628 23.883 2.15845 23.883C1.64143 23.883 1.12145 23.8527 0.612547 23.7924C0.35974 23.7624 0.118011 23.9117 0.0319146 24.1521C-0.0541822 24.3926 0.0370694 24.6608 0.252147 24.7986C3.43531 26.8396 7.11598 27.9184 10.896 27.9184C18.3271 27.9184 22.9758 24.4142 25.5669 21.4745C28.798 17.809 30.6511 12.9572 30.6511 8.16329C30.6511 7.96302 30.648 7.76078 30.6419 7.55919C31.9167 6.59875 33.0142 5.43638 33.9073 4.1004C34.043 3.8975 34.0283 3.62934 33.8711 3.44256C33.7142 3.25567 33.4526 3.19524 33.2293 3.29417Z" fill="#1D233B"/>
</svg>
