<svg width="35" height="28" viewBox="0 0 35 28" fill="none" xmlns="http://www.w3.org/2000/svg">
<path d="M4.494 0.000854492H30.5081C32.9796 0.000854492 35 1.61776 35 3.59493V24.4062C35 26.3828 32.9796 27.9986 30.5081 27.9986H4.494C2.02253 27.9986 0 26.3827 0 24.4062V3.59493C0 1.61776 2.02253 0.000854492 4.494 0.000854492ZM25.497 3.11044C24.6293 3.11044 23.9215 3.67893 23.9215 4.37277V7.38875C23.9215 8.08287 24.6293 8.65005 25.497 8.65005H29.4524C30.3188 8.65005 31.0281 8.08287 31.0281 7.38875V4.37277C31.0281 3.67893 30.3188 3.11044 29.4524 3.11044H25.497ZM31.0431 11.8407H27.9636C28.2556 12.6037 28.4139 13.4084 28.4139 14.2449C28.4139 18.9006 23.5412 22.6767 17.5329 22.6767C11.5261 22.6767 6.65327 18.9006 6.65327 14.2449C6.65327 13.4084 6.8131 12.6037 7.10372 11.8407H3.89083V23.6691C3.89083 24.2816 4.51605 24.7799 5.28103 24.7799H29.6535C30.4192 24.7799 31.0431 24.2816 31.0431 23.6691V11.8407ZM17.533 8.49101C13.6527 8.49101 10.505 10.9296 10.505 13.9406C10.505 16.9484 13.6527 19.3889 17.533 19.3889C21.4155 19.3889 24.5632 16.9484 24.5632 13.9406C24.5632 10.9295 21.4155 8.49101 17.533 8.49101Z" fill="#1D233B"/>
</svg>
