<svg width="40" height="30" viewBox="0 0 40 30" fill="none" xmlns="http://www.w3.org/2000/svg">
<path d="M39.6574 11.401C39.4488 10.8908 38.894 10.5189 38.2261 10.4418L26.8997 9.13378L21.8343 0.974929C21.5356 0.493875 20.9191 0.18927 20.2443 0.18927C19.5694 0.18927 18.953 0.493875 18.6544 0.974929L13.5893 9.13369L2.26251 10.4417C1.59467 10.5189 1.03971 10.8908 0.831197 11.4009C0.622687 11.9112 0.796563 12.4713 1.27989 12.8457L9.47594 19.1954L7.54038 28.1631C7.42631 28.6919 7.69971 29.2263 8.24569 29.5416C8.55455 29.72 8.92039 29.8108 9.288 29.8108C9.57015 29.8108 9.85348 29.7573 10.1129 29.6489L20.2442 25.4153L30.3753 29.6489C30.6363 29.7579 30.9222 29.8099 31.2052 29.8108C32.1834 29.8096 32.9758 29.1791 32.9758 28.4014C32.9758 28.2932 32.9604 28.1877 32.9314 28.0865L31.0126 19.1955L39.2086 12.8457C39.6921 12.4713 39.866 11.9112 39.6574 11.401Z" fill="#1D233B"/>
</svg>
